<?xml version="1.0" encoding="utf-8"?>
<!-- Generator: Adobe Illustrator 22.0.1, SVG Export Plug-In . SVG Version: 6.00 Build 0)  -->
<svg version="1.1" id="Livello_1" xmlns="http://www.w3.org/2000/svg" xmlns:xlink="http://www.w3.org/1999/xlink" x="0px" y="0px"
	 viewBox="0 0 150 150" style="enable-background:new 0 0 150 150;" xml:space="preserve">
<style type="text/css">
	.st0{fill:#969696;}
	.st1{fill:none;stroke:#969696;stroke-width:1.2;stroke-miterlimit:10;}
</style>
<g>
	<g>
		<path class="st0" d="M35.1,111.5c0.8,0.7,1.8,1,2.9,1.1c1.3,0,2-0.5,2-1.5c0-0.8-0.4-1.3-1.3-1.4c-0.4-0.1-0.9-0.1-1.4-0.2
			c-0.9-0.2-1.5-0.5-2-1c-0.5-0.5-0.7-1.2-0.7-2c0-0.9,0.3-1.7,0.9-2.2c0.6-0.6,1.4-0.8,2.4-0.9c1.3,0,2.4,0.4,3.3,1.1l-0.9,1.3
			c-0.8-0.5-1.6-0.8-2.5-0.8c-0.5,0-0.9,0.1-1.2,0.4c-0.3,0.3-0.5,0.6-0.5,1.1c0,0.3,0.1,0.6,0.3,0.8c0.2,0.3,0.6,0.4,1.1,0.5
			c0.3,0,0.7,0.1,1.2,0.2c1,0.1,1.7,0.5,2.1,1.1c0.5,0.6,0.7,1.2,0.7,2c-0.1,2-1.2,3-3.6,3.1c-1.5,0-2.8-0.5-3.9-1.4L35.1,111.5z"/>
		<path class="st0" d="M49.1,109.4H45v4.6h-1.5v-10.6H45v4.5h4.1v-4.5h1.5V114h-1.5V109.4z"/>
		<path class="st0" d="M52.8,108.7c0-1.2,0-2.1,0.1-2.5c0.1-0.4,0.2-0.8,0.3-1c0.2-0.5,0.6-0.9,1.2-1.3c0.5-0.4,1.2-0.6,2-0.6
			c0.8,0,1.5,0.2,2,0.6c0.5,0.4,0.9,0.8,1.2,1.3c0.2,0.3,0.3,0.6,0.4,1c0.1,0.4,0.1,1.2,0.1,2.5c0,1.2,0,2-0.1,2.4
			c-0.1,0.4-0.2,0.8-0.4,1c-0.2,0.5-0.6,0.9-1.2,1.3c-0.5,0.4-1.2,0.6-2,0.6c-0.8,0-1.5-0.2-2-0.6c-0.5-0.4-0.9-0.8-1.2-1.3
			c-0.1-0.2-0.1-0.3-0.2-0.5c-0.1-0.1-0.1-0.3-0.1-0.6C52.8,110.8,52.8,109.9,52.8,108.7z M54.3,108.7c0,1,0,1.7,0.1,2.1
			c0.1,0.4,0.2,0.7,0.4,0.9c0.2,0.2,0.4,0.4,0.6,0.5c0.3,0.2,0.6,0.2,0.9,0.2c0.4,0,0.7-0.1,1-0.2c0.3-0.1,0.5-0.3,0.6-0.5
			c0.2-0.2,0.3-0.5,0.4-0.9c0.1-0.4,0.1-1.1,0.1-2.1s0-1.7-0.1-2.1c-0.1-0.4-0.2-0.7-0.4-0.9c-0.2-0.2-0.4-0.4-0.6-0.5
			c-0.3-0.1-0.6-0.2-1-0.2c-0.4,0-0.7,0.1-0.9,0.2c-0.3,0.1-0.5,0.3-0.6,0.5c-0.2,0.2-0.3,0.5-0.4,0.9
			C54.3,107,54.3,107.7,54.3,108.7z"/>
		<path class="st0" d="M61,103.5h1.6l1.6,7.5h0l2-7.5h1.1l2,7.5h0l1.6-7.5h1.6L70,114h-1.3l-1.9-7.6h0l-2,7.6h-1.3L61,103.5z"/>
		<path class="st0" d="M77.8,103.5h4c0.9,0,1.5,0.2,2.1,0.7c0.6,0.5,1,1.3,1,2.3c0,1.4-0.7,2.4-2,2.9l2.4,4.7h-1.8l-2.1-4.5h-2v4.5
			h-1.5V103.5z M79.3,108.1h2.3c0.6,0,1-0.2,1.3-0.5c0.3-0.3,0.4-0.7,0.4-1.2c0-0.6-0.2-1-0.5-1.2c-0.3-0.2-0.6-0.3-1.1-0.3h-2.4
			V108.1z"/>
		<path class="st0" d="M86.5,108.7c0-1.2,0-2.1,0.1-2.5c0.1-0.4,0.2-0.8,0.3-1c0.2-0.5,0.6-0.9,1.2-1.3c0.5-0.4,1.2-0.6,2-0.6
			c0.8,0,1.5,0.2,2,0.6c0.5,0.4,0.9,0.8,1.2,1.3c0.2,0.3,0.3,0.6,0.4,1c0.1,0.4,0.1,1.2,0.1,2.5c0,1.2,0,2-0.1,2.4
			c-0.1,0.4-0.2,0.8-0.4,1c-0.2,0.5-0.6,0.9-1.2,1.3c-0.5,0.4-1.2,0.6-2,0.6c-0.8,0-1.5-0.2-2-0.6c-0.5-0.4-0.9-0.8-1.2-1.3
			c-0.1-0.2-0.1-0.3-0.2-0.5c-0.1-0.1-0.1-0.3-0.1-0.6C86.5,110.8,86.5,109.9,86.5,108.7z M88,108.7c0,1,0,1.7,0.1,2.1
			c0.1,0.4,0.2,0.7,0.4,0.9c0.2,0.2,0.4,0.4,0.6,0.5c0.3,0.2,0.6,0.2,0.9,0.2c0.4,0,0.7-0.1,1-0.2c0.3-0.1,0.5-0.3,0.6-0.5
			c0.2-0.2,0.3-0.5,0.4-0.9c0.1-0.4,0.1-1.1,0.1-2.1s0-1.7-0.1-2.1c-0.1-0.4-0.2-0.7-0.4-0.9c-0.2-0.2-0.4-0.4-0.6-0.5
			c-0.3-0.1-0.6-0.2-1-0.2c-0.4,0-0.7,0.1-0.9,0.2c-0.3,0.1-0.5,0.3-0.6,0.5c-0.2,0.2-0.3,0.5-0.4,0.9C88.1,107,88,107.7,88,108.7z"
			/>
		<path class="st0" d="M95.5,108.7c0-1.2,0-2.1,0.1-2.5c0.1-0.4,0.2-0.8,0.3-1c0.2-0.5,0.6-0.9,1.2-1.3c0.5-0.4,1.2-0.6,2-0.6
			c0.8,0,1.5,0.2,2,0.6c0.5,0.4,0.9,0.8,1.2,1.3c0.2,0.3,0.3,0.6,0.4,1c0.1,0.4,0.1,1.2,0.1,2.5c0,1.2,0,2-0.1,2.4
			c-0.1,0.4-0.2,0.8-0.4,1c-0.2,0.5-0.6,0.9-1.2,1.3c-0.5,0.4-1.2,0.6-2,0.6c-0.8,0-1.5-0.2-2-0.6c-0.5-0.4-0.9-0.8-1.2-1.3
			c-0.1-0.2-0.1-0.3-0.2-0.5c-0.1-0.1-0.1-0.3-0.1-0.6C95.6,110.8,95.5,109.9,95.5,108.7z M97.1,108.7c0,1,0,1.7,0.1,2.1
			c0.1,0.4,0.2,0.7,0.4,0.9c0.2,0.2,0.4,0.4,0.6,0.5c0.3,0.2,0.6,0.2,0.9,0.2c0.4,0,0.7-0.1,1-0.2c0.3-0.1,0.5-0.3,0.6-0.5
			c0.2-0.2,0.3-0.5,0.4-0.9c0.1-0.4,0.1-1.1,0.1-2.1s0-1.7-0.1-2.1c-0.1-0.4-0.2-0.7-0.4-0.9c-0.2-0.2-0.4-0.4-0.6-0.5
			c-0.3-0.1-0.6-0.2-1-0.2c-0.4,0-0.7,0.1-0.9,0.2c-0.3,0.1-0.5,0.3-0.6,0.5c-0.2,0.2-0.3,0.5-0.4,0.9
			C97.1,107,97.1,107.7,97.1,108.7z"/>
		<path class="st0" d="M104.9,103.5h1.5l2.9,6.9l2.9-6.9h1.5V114h-1.5v-6.6h0l-2.1,5.1h-1.3l-2.1-5.1h0v6.6h-1.5V103.5z"/>
	</g>
	<circle class="st1" cx="75" cy="75" r="73.8"/>
	<polyline class="st1" points="107.3,76.9 73.3,76.9 73.3,25.4 	"/>
	<line class="st1" x1="139.9" y1="76.9" x2="132.3" y2="76.9"/>
	<line class="st1" x1="17.9" y1="76.9" x2="10.3" y2="76.9"/>
	<line class="st1" x1="73.7" y1="141.7" x2="73.7" y2="134.1"/>
	<line class="st1" x1="73.7" y1="16.8" x2="73.7" y2="9.2"/>
</g>
</svg>
