<?xml version="1.0" encoding="utf-8"?>
<!-- Generator: Adobe Illustrator 22.0.1, SVG Export Plug-In . SVG Version: 6.00 Build 0)  -->
<svg version="1.1" id="Livello_1" xmlns="http://www.w3.org/2000/svg" xmlns:xlink="http://www.w3.org/1999/xlink" x="0px" y="0px"
	 viewBox="0 0 150 150" style="enable-background:new 0 0 150 150;" xml:space="preserve">
<style type="text/css">
	.st0{fill:none;stroke:#969696;stroke-width:1.2;stroke-miterlimit:10;}
	.st1{fill:#FFFFFF;stroke:#969696;stroke-width:1.2;stroke-miterlimit:10;}
</style>
<g>
	<circle class="st0" cx="75" cy="75" r="73.8"/>
	<path class="st0" d="M105.2,105.5C105.2,105.5,105.2,105.5,105.2,105.5c-0.7,0.8-1.5,1.5-2.3,2.3c-1.2,1.2-2.4,2.4-3.6,3.7
		c-1.9,2-4.1,3-7,3c-0.3,0-0.6,0-0.9,0c-5.5-0.4-10.7-2.5-14.6-4.4C66.3,105,57,97.7,49.3,88.5c-6.4-7.7-10.6-14.8-13.4-22.4
		c-1.7-4.7-2.4-8.3-2.1-11.7c0.2-2.2,1-4,2.6-5.5l6.4-6.4c0.9-0.9,1.9-1.3,2.8-1.3c1.2,0,2.1,0.7,2.7,1.3l0.1,0.1
		c1.1,1.1,2.2,2.2,3.4,3.3c0.6,0.6,1.2,1.2,1.8,1.8l5.1,5.1c2,2,2,3.8,0,5.8c-0.5,0.5-1.1,1.1-1.6,1.6c-1.6,1.6-3.1,3.1-4.7,4.6
		c0,0-0.1,0.1-0.1,0.1c-1.6,1.6-1.3,3.2-1,4.2l0.1,0.2c1.3,3.2,3.2,6.2,6,9.8l0,0c5.2,6.4,10.6,11.3,16.6,15.1
		c0.8,0.5,1.6,0.9,2.3,1.3c0.7,0.3,1.3,0.7,1.8,1c0.1,0,0.1,0.1,0.2,0.1c0.6,0.3,1.2,0.5,1.8,0.5c1.6,0,2.5-1,2.8-1.3l6.4-6.4
		c0.6-0.6,1.6-1.4,2.8-1.4c1.2,0,2.1,0.7,2.7,1.4l10.3,10.3C107.1,101.5,107.1,103.5,105.2,105.5L105.2,105.5z"/>
	<path class="st1" d="M95.3,85"/>
	<path class="st0" d="M76.4,52L76.4,52c4.9,0.8,9.3,3.1,12.9,6.7c3.5,3.5,5.8,8,6.7,12.9 M76.4,52"/>
	<path class="st0" d="M77.1,36c8.7,1.5,16.6,5.6,23,11.9c6.3,6.3,10.4,14.3,11.9,23"/>
</g>
</svg>
