<?xml version="1.0" encoding="utf-8"?>
<!-- Generator: Adobe Illustrator 22.0.1, SVG Export Plug-In . SVG Version: 6.00 Build 0)  -->
<svg version="1.1" id="Livello_1" xmlns="http://www.w3.org/2000/svg" xmlns:xlink="http://www.w3.org/1999/xlink" x="0px" y="0px"
	 viewBox="0 0 600 200" style="enable-background:new 0 0 600 200;" xml:space="preserve">
<style type="text/css">
	.st0{display:none;}
	.st1{display:inline;}
	.st2{fill:#FFFFFF;stroke:#333333;stroke-width:0.8346;stroke-miterlimit:10;}
	.st3{display:inline;fill:#FFFFFF;stroke:#333333;stroke-width:0.8346;stroke-miterlimit:10;}
	.st4{display:inline;fill:none;stroke:#333333;stroke-width:0.6955;stroke-miterlimit:10;}
	.st5{display:inline;fill:#FFFFFF;stroke:#333333;stroke-width:0.6955;stroke-miterlimit:10;}
	.st6{display:inline;fill:#112E50;}
	.st7{display:inline;fill:url(#SVGID_1_);}
	.st8{display:inline;fill:#FFFFFF;}
	.st9{display:inline;fill:#E3E3E3;}
	.st10{fill:#969696;}
	.st11{fill:none;stroke:#969696;stroke-width:1.2;stroke-miterlimit:10;}
</style>
<g class="st0">
	<g class="st1">
		<path class="st2" d="M85.2,156c0-72-58.3-130.6-130.6-130.6s-130.8,58.3-130.8,130.4L85.2,156z"/>
		<circle class="st2" cx="-157.2" cy="133.8" r="40.8"/>
		<ellipse class="st2" cx="-157.2" cy="133.8" rx="24.5" ry="24.5"/>
		<ellipse class="st2" cx="73.1" cy="133.8" rx="40.8" ry="40.8"/>
		<circle class="st2" cx="73.1" cy="133.8" r="24.5"/>
	</g>
	<path class="st3" d="M-45,77.6l-20.9,54.3h-19.9l31.3-75h19l31.3,75h-19.9L-45,77.6z"/>
	<line class="st4" x1="-123.2" y1="51" x2="-132" y2="40"/>
	<circle class="st5" cx="-131.2" cy="40.8" r="1.5"/>
</g>
<g class="st0">
	<path class="st6" d="M349.6,25.4c-41.2,0-74.6,33.4-74.6,74.6s33.4,74.6,74.6,74.6s74.6-33.4,74.6-74.6S390.7,25.4,349.6,25.4z
		 M349.6,140.2c-22.2,0-40.2-18-40.2-40.2s18-40.2,40.2-40.2s40.2,18,40.2,40.2S371.8,140.2,349.6,140.2z"/>
	
		<linearGradient id="SVGID_1_" gradientUnits="userSpaceOnUse" x1="616.1573" y1="1641.1285" x2="666.6291" y2="1641.1285" gradientTransform="matrix(0.96 0.28 -0.28 0.96 193.3361 -1655.0858)">
		<stop  offset="0" style="stop-color:#E43562"/>
		<stop  offset="1" style="stop-color:#662480"/>
	</linearGradient>
	<circle class="st7" cx="349.6" cy="100" r="25.2"/>
</g>
<g class="st0">
	<path class="st8" d="M275.1,26.2v72.2c0,40.6,64.3,73.5,73.9,73.5c8,0,73.9-32.9,73.9-73.5V26.2H275.1z"/>
	<path class="st9" d="M350.7,70.9l-18.6,48h-17.6l27.8-66.5H359l27.8,66.5h-17.5L350.7,70.9z"/>
</g>
<g>
	<path class="st10" d="M464.3,138.6c0-1.5,0-2.5,0.1-3c0.1-0.5,0.2-0.9,0.4-1.2c0.3-0.6,0.8-1.1,1.5-1.6c0.7-0.5,1.5-0.7,2.5-0.7
		c1,0,1.8,0.3,2.5,0.7c0.7,0.5,1.1,1,1.4,1.6c0.2,0.3,0.4,0.7,0.4,1.2c0.1,0.5,0.1,1.5,0.1,3c0,1.5,0,2.5-0.1,3
		c-0.1,0.5-0.2,0.9-0.4,1.3c-0.3,0.6-0.8,1.1-1.4,1.6c-0.7,0.5-1.5,0.7-2.5,0.7c-1,0-1.8-0.3-2.5-0.7c-0.7-0.5-1.2-1-1.5-1.6
		c-0.1-0.2-0.2-0.4-0.2-0.6c-0.1-0.2-0.1-0.4-0.2-0.7C464.4,141,464.3,140,464.3,138.6z M466.2,138.6c0,1.3,0,2.1,0.1,2.6
		c0.1,0.5,0.2,0.8,0.5,1.1c0.2,0.3,0.5,0.5,0.8,0.7c0.3,0.2,0.7,0.3,1.2,0.3c0.5,0,0.8-0.1,1.2-0.3c0.3-0.2,0.6-0.4,0.8-0.7
		c0.2-0.3,0.4-0.6,0.5-1.1c0.1-0.5,0.1-1.3,0.1-2.6s0-2.1-0.1-2.6c-0.1-0.4-0.3-0.8-0.5-1.1c-0.2-0.3-0.4-0.5-0.8-0.7
		c-0.3-0.2-0.7-0.3-1.2-0.3c-0.4,0-0.8,0.1-1.2,0.3c-0.3,0.2-0.6,0.4-0.8,0.7c-0.2,0.3-0.4,0.6-0.5,1.1
		C466.3,136.4,466.2,137.3,466.2,138.6z"/>
	<path class="st10" d="M475.9,132.1h8v1.8h-6.1v3.8h5.2v1.7h-5.2v5.5h-1.9V132.1z"/>
	<path class="st10" d="M485.6,132.1h8v1.8h-6.1v3.8h5.2v1.7h-5.2v5.5h-1.9V132.1z"/>
	<path class="st10" d="M495.4,132.1h1.9v13h-1.9V132.1z"/>
	<path class="st10" d="M508.6,141.4c-0.3,1.2-0.8,2.1-1.6,2.8c-0.8,0.6-1.7,1-2.8,1c-1,0-1.8-0.3-2.5-0.7c-0.7-0.5-1.2-1-1.5-1.6
		c-0.1-0.2-0.2-0.4-0.2-0.6c-0.1-0.2-0.1-0.4-0.2-0.7c-0.1-0.5-0.1-1.5-0.1-3c0-1.5,0-2.5,0.1-3c0.1-0.5,0.2-0.9,0.4-1.2
		c0.3-0.6,0.8-1.1,1.5-1.6c0.7-0.5,1.5-0.7,2.5-0.7c1.2,0,2.2,0.4,3,1.1c0.8,0.7,1.2,1.6,1.4,2.7h-2c-0.2-0.5-0.4-1-0.8-1.3
		c-0.4-0.4-0.9-0.5-1.6-0.5c-0.4,0-0.8,0.1-1.2,0.3c-0.3,0.2-0.6,0.4-0.8,0.7c-0.2,0.3-0.4,0.6-0.5,1.1c-0.1,0.5-0.1,1.3-0.1,2.6
		s0,2.1,0.1,2.6c0.1,0.5,0.2,0.8,0.5,1.1c0.2,0.3,0.5,0.5,0.8,0.7c0.3,0.2,0.7,0.3,1.2,0.3c1.1,0,1.9-0.6,2.4-1.8H508.6z"/>
	<path class="st10" d="M510.2,132.1h1.9v13h-1.9V132.1z"/>
	<path class="st10" d="M514.9,132.1h1.8l5.7,9.2h0v-9.2h1.9v13h-1.8l-5.7-9.2h0v9.2h-1.9V132.1z"/>
	<path class="st10" d="M533.8,142.1h-4.8l-1,2.9h-2l4.6-13h1.6l4.6,13h-2L533.8,142.1z M533.3,140.4l-1.8-5.7h0l-1.8,5.7H533.3z"/>
</g>
<circle class="st11" cx="500.9" cy="97.1" r="90.6"/>
<polyline class="st11" points="540.6,99.5 498.9,99.5 498.9,36.2 "/>
<line class="st11" x1="580.6" y1="99.5" x2="571.3" y2="99.5"/>
<line class="st11" x1="430.8" y1="99.5" x2="421.5" y2="99.5"/>
<line class="st11" x1="499.3" y1="179" x2="499.3" y2="169.7"/>
</svg>
