<?xml version="1.0" encoding="utf-8"?>
<!-- Generator: Adobe Illustrator 22.0.1, SVG Export Plug-In . SVG Version: 6.00 Build 0)  -->
<svg version="1.1" id="Livello_1" xmlns="http://www.w3.org/2000/svg" xmlns:xlink="http://www.w3.org/1999/xlink" x="0px" y="0px"
	 viewBox="0 0 391.9 248.1" style="enable-background:new 0 0 391.9 248.1;" xml:space="preserve">
<style type="text/css">
	.st0{opacity:0.15;fill:#FFFFFF;}
</style>
<g>
	<path class="st0" d="M260.7,139.3l-32-14.2c-2.3-1-3.7-3.3-3.7-5.7v-8.8c10.8-8.6,17.7-21.8,17.7-36.5V61.6c3.5-2,5.9-5.7,5.9-10
		v-1.2c0-25.8-21-46.7-46.7-46.7h-11.8c-25.8,0-46.7,21-46.7,46.7v10.9c0,3.7,1.6,7.1,4.4,9.3c0.5,0.4,1,0.7,1.5,1V74
		c0,14.8,6.9,28,17.7,36.5v8.8c0,2.5-1.5,4.7-3.7,5.7l-32,14.2c-10.5,4.7-17.3,15.1-17.3,26.6v73c0,3,2.5,5.5,5.5,5.5
		s5.5-2.5,5.5-5.5v-73c0-0.6,0-1.3,0.1-1.9l14.7,14.7c2.3,2.3,3.6,5.3,3.6,8.6v51.6c0,3,2.5,5.5,5.5,5.5c3,0,5.5-2.5,5.5-5.5v-51.6
		c0-6.2-2.4-12-6.8-16.4L130,153.3c1.6-1.6,3.5-3,5.6-4l31.5-14l23.3,23.3v80.1c0,3,2.5,5.5,5.5,5.5c3,0,5.5-2.5,5.5-5.5v-80.1
		l23.3-23.3l31.5,14c2.2,1,4.1,2.3,5.6,4l-17.6,17.6c-4.4,4.4-6.8,10.2-6.8,16.4v51.6c0,3,2.5,5.5,5.5,5.5c3,0,5.5-2.5,5.5-5.5
		v-51.6c0-3.2,1.3-6.3,3.6-8.6l14.7-14.7c0.1,0.6,0.1,1.3,0.1,1.9v73c0,3,2.5,5.5,5.5,5.5s5.5-2.5,5.5-5.5v-73
		C278,154.4,271.2,144,260.7,139.3z M160.3,74v-2.5c3.4-1.4,6.8-3.5,10-6.5c2.2-2.1,2.4-5.5,0.3-7.8c-2.1-2.2-5.5-2.4-7.8-0.3
		c-2.8,2.5-5.5,4.2-8.2,4.9c-0.1,0-0.1,0-0.1,0c0-0.1-0.1-0.2-0.1-0.5V50.5c0-19.7,16-35.7,35.7-35.7h11.8c19.7,0,35.7,16,35.7,35.7
		v1.2c0,0.2-0.1,0.3-0.2,0.4c-33,6.5-49.5-5.8-55.1-11.3c-2.2-2.2-5.6-2.2-7.8,0c-2.2,2.2-2.2,5.6,0,7.8
		c17.1,17.1,42.1,17.4,57.3,15.6v10c0,19.7-16,35.7-35.7,35.7C176.3,109.7,160.3,93.7,160.3,74z M196,120.7c6.4,0,12.5-1.3,18-3.6
		v2.2c0,3.2,0.9,6.2,2.4,8.8L196,148.6l-20.5-20.5c1.6-2.6,2.4-5.7,2.4-8.8v-2.2C183.5,119.4,189.6,120.7,196,120.7z"/>
	<path class="st0" d="M107.3,97.6c0-14.4-7.5-27-18.7-34.3c0.7-2.2,1.1-4.6,1.1-6.9c0-12.8-10.4-23.2-23.2-23.2S43.3,43.6,43.3,56.4
		c0,2.4,0.4,4.7,1.1,6.9c-11.3,7.3-18.7,19.9-18.7,34.3v11.8c0,13.9,7,26.2,17.7,33.6V155c0,2.4-1.3,4.5-3.5,5.6l-19.1,9.5
		c-7.9,4-12.8,11.9-12.8,20.7v48c0,3,2.5,5.5,5.5,5.5s5.5-2.5,5.5-5.5v-45.6l9,9c2.3,2.3,3.6,5.3,3.6,8.6v28c0,3,2.5,5.5,5.5,5.5
		s5.5-2.5,5.5-5.5v-28c0-6.2-2.4-12-6.8-16.4L23.2,182c-0.1-0.1-0.1-0.1-0.2-0.2c0.8-0.7,1.7-1.3,2.6-1.8l19.1-9.5
		c1-0.5,1.9-1.1,2.7-1.7l13.5,13.5v56.6c0,3,2.5,5.5,5.5,5.5c3,0,5.5-2.5,5.5-5.5v-56.6l13.5-13.5c0.8,0.6,1.8,1.2,2.7,1.7l5.3,2.6
		c0.8,0.4,1.6,0.6,2.5,0.6c2,0,4-1.1,4.9-3c1.4-2.7,0.3-6-2.5-7.4l-5.3-2.6c-2.1-1.1-3.5-3.2-3.5-5.6v-12.1
		c10.7-7.4,17.7-19.7,17.7-33.6L107.3,97.6L107.3,97.6z M54.3,56.4c0-6.7,5.5-12.2,12.2-12.2c6.7,0,12.2,5.5,12.2,12.2
		c0,0.7-0.1,1.5-0.2,2.2c-3.8-1.2-7.8-1.8-12-1.8c-4.2,0-8.2,0.6-11.9,1.8C54.4,57.8,54.3,57.1,54.3,56.4z M66.4,67.7
		c16.4,0,29.8,13.4,29.8,29.8v2c-22.9,7-36.6-10.4-37.2-11.2c-1-1.3-2.4-2.1-4-2.2c-1.6-0.1-3.2,0.5-4.3,1.6
		c-5.3,5.3-10.4,7.8-14.1,9C37.1,80.7,50.3,67.7,66.4,67.7z M79.2,159.5l-12.7,12.7l-12.7-12.7c0.4-1.4,0.6-2.9,0.6-4.4v-6.7
		c3.8,1.2,7.9,1.8,12.2,1.8s8.3-0.6,12.2-1.8v6.7C78.6,156.6,78.8,158,79.2,159.5z M66.4,139.1c-16.4,0-29.8-13.4-29.8-29.8v-1.1
		c4.4-1,10.9-3.4,17.7-8.8c2.4,2.3,5.8,5,10.2,7.4c5.2,2.8,12.3,5.4,21,5.4c3.3,0,6.9-0.4,10.6-1.3
		C95.4,126.7,82.3,139.1,66.4,139.1z"/>
	<path class="st0" d="M371.1,158.4L340.3,143c-2.1-1.1-3.5-3.2-3.5-5.6v-7.8c7.2-6.4,11.8-15.7,11.8-26.1v-6.3c0.1,0,0.3,0,0.4,0
		c3,0,5.5-2.5,5.5-5.5V79.9c0-19.3-15.7-34.9-34.9-34.9h-11.8c-19.3,0-34.9,15.7-34.9,34.9v11.8c0,3,2.5,5.5,5.5,5.5
		c0,0,0.2,0,0.4,0v6.3c0,10.4,4.6,19.7,11.8,26.1v7.8c0,2.4-1.3,4.5-3.5,5.6c-2.7,1.4-3.8,4.7-2.5,7.4c1,1.9,2.9,3,4.9,3
		c0.8,0,1.7-0.2,2.5-0.6c1-0.5,1.9-1.1,2.7-1.7l13.5,13.5v74.2c0,3,2.5,5.5,5.5,5.5s5.5-2.5,5.5-5.5v-74.2l13.5-13.5
		c0.8,0.6,1.8,1.2,2.7,1.7l29.8,14.9l-9,9c-4.4,4.4-6.8,10.2-6.8,16.4v45.7c0,3,2.5,5.5,5.5,5.5s5.5-2.5,5.5-5.5v-45.7
		c0-3.2,1.3-6.3,3.6-8.6l8.6-8.6c0.3,1,0.4,2,0.4,3.1v59.7c0,3,2.5,5.5,5.5,5.5s5.5-2.5,5.5-5.5v-59.7
		C384,170.3,379,162.3,371.1,158.4z M283.9,79.9c0-13.2,10.7-23.9,23.9-23.9h11.8c13.2,0,23.9,10.7,23.9,23.9V86
		c-23.9-1.3-38.4-10.6-38.5-10.7c-0.9-0.6-2-0.9-3.1-0.9c-1.4,0-2.8,0.5-3.9,1.6c-5.3,5.3-10.4,7.8-14.1,9L283.9,79.9L283.9,79.9z
		 M289.8,94.6c3.9-1.5,8.4-4,12.9-7.9c5.8,3,17.9,8.2,34.9,9.9v6.8c0,13.2-10.7,23.9-23.9,23.9c-13.2,0-23.9-10.7-23.9-23.9
		L289.8,94.6L289.8,94.6z M313.7,138.4c4.3,0,8.4-0.8,12.2-2.2v1.2c0,1.5,0.2,3,0.6,4.4l-12.7,12.7L301,141.8
		c0.4-1.4,0.6-2.9,0.6-4.4v-1.2C305.3,137.6,309.4,138.4,313.7,138.4z"/>
</g>
</svg>
