<?xml version="1.0" encoding="utf-8"?>
<!-- Generator: Adobe Illustrator 22.0.1, SVG Export Plug-In . SVG Version: 6.00 Build 0)  -->
<svg version="1.1" id="Livello_1" xmlns="http://www.w3.org/2000/svg" xmlns:xlink="http://www.w3.org/1999/xlink" x="0px" y="0px"
	 viewBox="0 0 507.8 249.7" style="enable-background:new 0 0 507.8 249.7;" xml:space="preserve">
<style type="text/css">
	.st0{fill:#666666;}
	.st1{fill:none;stroke:#666666;stroke-width:1.5003;stroke-miterlimit:10;}
</style>
<g>
	<g>
		<path class="st0" d="M297,106.6c0.1-6.5,2.1-11.5,6.1-15.1c3.7-3.5,8.2-5.2,13.3-5.2c5.3,0,9.9,1.7,13.6,5.2
			c3.8,3.5,5.8,8.5,5.9,15.1v31.2c-0.1,6.5-2.1,11.5-5.9,15c-3.7,3.5-8.3,5.3-13.6,5.3c-4.5-0.1-8.6-1.5-12.1-4.3
			c-3.6-2.7-5.9-6.6-6.9-11.8h10.1c1.5,4,4.5,5.9,8.9,5.9c6.2-0.1,9.5-3.7,9.6-10.9v-6.7c-4.7,1.5-9,2.2-13.1,2.2
			c-4.5,0.1-8.3-1.5-11.4-4.8c-3.1-3.1-4.7-8.1-4.6-14.9V106.6z M306.8,113.1c0.1,7.2,3.3,10.8,9.6,10.8c6.3-0.1,9.5-3.7,9.7-10.8
			v-5.8c-0.2-7.1-3.4-10.7-9.7-10.8c-6.3,0.1-9.5,3.7-9.6,10.8V113.1z"/>
		<path class="st0" d="M355.8,97.6L346,105V94.2l9.7-7.3h9.8v70.7h-9.8V97.6z"/>
		<path class="st0" d="M381.7,86.9h36.5V97h-27.3v16.1c3.2-2.6,6.9-3.9,11-3.9c2.6,0.1,5.1,0.5,7.3,1.5c2.1,1,3.8,2.2,5,3.7
			c1.9,1.9,3.3,4.2,4.1,6.7c0.4,1.4,0.7,3.1,0.9,5.1c0.2,2,0.3,4.5,0.3,7.5c0,4.6-0.3,8.1-0.9,10.6c-0.7,2.4-1.8,4.6-3.3,6.4
			c-1.3,1.8-3.3,3.5-5.9,5c-2.5,1.6-5.5,2.4-8.9,2.5c-4.6,0-8.9-1.4-12.7-4.3c-3.9-2.9-6.3-7.6-7.3-14.1h9.8
			c1.1,5.4,4.3,8.2,9.8,8.3c2.4,0,4.2-0.5,5.6-1.5c1.3-0.9,2.3-2.2,2.8-3.7c0.6-1.5,0.9-3.2,1-5c0.1-1.7,0.1-3.4,0.1-5.1
			c0.1-4-0.5-7.3-1.8-9.9c-0.7-1.2-1.7-2.2-3.1-2.9c-1.4-0.6-3-0.9-5-0.9c-1.8,0-3.4,0.4-4.9,1.3c-1.5,0.9-2.8,2.4-4,4.6h-9.2V86.9z
			"/>
		<path class="st0" d="M428.8,137c0.1-6.8,2.8-12.1,8.3-15.9c-2.1-1.8-3.7-4-4.9-6.4c-1.4-2.2-2.1-4.9-2.1-8
			c0.1-5.9,2-10.8,5.8-14.6c3.6-3.8,8.2-5.8,13.8-5.8c5.7,0.1,10.4,2,14.1,5.8c3.7,3.8,5.5,8.7,5.6,14.6c0,3.1-0.6,5.7-1.9,8
			c-1.3,2.4-3,4.5-5.1,6.4c5.5,3.8,8.3,9.1,8.3,15.9c-0.1,6.4-2.1,11.5-6.1,15.3c-4.1,3.9-9,5.9-14.9,6c-5.8-0.1-10.7-2.1-14.7-6
			C430.9,148.4,428.9,143.4,428.8,137z M438.6,136.9c0.1,3.2,1.2,5.9,3.4,8c2.1,2.2,4.7,3.3,7.7,3.3c3.1,0,5.7-1.1,7.9-3.3
			c2.1-2.1,3.3-4.7,3.3-8c-0.1-3.3-1.2-6-3.3-8.1c-2.1-2-4.7-3.1-7.9-3.2c-3,0.1-5.6,1.1-7.7,3.2
			C439.8,130.9,438.7,133.6,438.6,136.9z M439.9,106.6c0.1,3.3,1.1,5.8,3.1,7.5c2,1.8,4.2,2.7,6.8,2.7c2.6,0,4.9-0.9,6.9-2.7
			c1.9-1.7,2.9-4.2,3-7.5c-0.1-3.4-1.1-5.9-3-7.7c-2-1.7-4.3-2.5-6.9-2.5c-2.5,0-4.8,0.8-6.8,2.5C441,100.7,440,103.2,439.9,106.6z"
			/>
	</g>
	<g>
		<path class="st0" d="M433,168h2.8l5.6,13.2L447,168h2.8v20.3h-3v-12.6h-0.1l-4.1,9.7h-2.5l-4.1-9.7H436v12.6h-3V168z"/>
		<path class="st0" d="M466.1,186.7c-1.2,1.1-2.7,1.7-4.6,1.8c-1.5,0-2.8-0.4-3.9-1.2c-1-0.7-1.8-1.5-2.3-2.5
			c-0.1-0.3-0.3-0.6-0.4-0.9c-0.1-0.3-0.2-0.6-0.3-1.1c-0.1-0.8-0.2-2.4-0.2-4.7c0-2.4,0.1-3.9,0.2-4.7c0.1-0.8,0.4-1.4,0.7-1.9
			c0.5-0.9,1.2-1.8,2.3-2.5c1-0.7,2.3-1.1,3.9-1.1c1.6,0,2.9,0.4,3.9,1.1c1,0.7,1.8,1.6,2.2,2.5c0.3,0.5,0.6,1.1,0.7,1.9
			c0.1,0.8,0.2,2.4,0.2,4.7c0,2.1,0,3.6-0.1,4.4c-0.1,0.8-0.3,1.5-0.6,1.9l2.6,2.1l-1.8,2.1L466.1,186.7z M461.2,182.6l1.8-2.1
			l2.3,1.9c0.2-0.7,0.3-2.1,0.3-4.2c0-2-0.1-3.4-0.2-4.1c-0.1-0.7-0.4-1.2-0.8-1.7c-0.3-0.4-0.7-0.8-1.2-1c-0.5-0.3-1.1-0.4-1.8-0.4
			c-0.7,0-1.3,0.2-1.8,0.4c-0.5,0.3-0.9,0.6-1.2,1c-0.4,0.4-0.6,1-0.8,1.7c-0.1,0.7-0.2,2.1-0.2,4.1s0.1,3.3,0.2,4.1
			c0.1,0.7,0.4,1.3,0.8,1.7c0.3,0.4,0.7,0.8,1.2,1c0.5,0.3,1.1,0.5,1.8,0.5c0.9,0,1.6-0.2,2.2-0.7L461.2,182.6z"/>
	</g>
	<g>
		<path class="st1" d="M287.8,58.4c20.3-30.5,56.6-50.5,96.3-50.5c64,0,116.2,52.2,116.2,116.2c0,64-51.6,116.2-115.6,116.2
			s-115.9-51.3-115.9-115.2c0-11.5,1.7-21.7,4.8-31.9"/>
		<polyline class="st1" points="318.2,59 285.9,59 285.9,26.7 		"/>
	</g>
	<g>
		<path class="st0" d="M51,149.6L77.7,115c1-1.4,1.7-2.7,2.1-3.9c0.3-1.1,0.4-2.2,0.4-3.2c0-2.7-0.8-5-2.4-6.9c-1.7-2-4-3-7.1-3.1
			c-2.7,0-4.9,0.9-6.7,2.7c-1.9,1.8-3,4.3-3.3,7.5H51c0.2-5.9,2.2-10.7,5.7-14.6c3.6-3.7,8-5.6,13.3-5.7c5.9,0.1,10.7,2,14.3,5.8
			c3.7,3.8,5.6,8.6,5.7,14.4c0,4.7-1.4,8.8-4.1,12.4l-22,28.5H90v10.1H51V149.6z"/>
		<path class="st0" d="M101.3,108.1c0.1-6.5,2.1-11.5,6.1-15.1c3.7-3.5,8.2-5.2,13.3-5.2c5.3,0,9.9,1.7,13.6,5.2
			c3.8,3.5,5.7,8.5,5.9,15.1v31.2c-0.1,6.5-2.1,11.5-5.9,15c-3.7,3.5-8.3,5.3-13.6,5.3c-5.2-0.1-9.6-1.8-13.3-5.3
			c-4-3.5-6-8.5-6.1-15V108.1z M130.4,108.8c-0.2-7.1-3.4-10.7-9.7-10.8c-6.3,0.1-9.5,3.7-9.6,10.8v30c0.1,7.2,3.3,10.8,9.6,10.8
			c6.3-0.1,9.5-3.7,9.7-10.8V108.8z"/>
		<path class="st0" d="M151,108.1c0.1-6.5,2.1-11.5,6.1-15.1c3.7-3.5,8.2-5.2,13.3-5.2c5.3,0,9.9,1.7,13.6,5.2
			c3.8,3.5,5.7,8.5,5.9,15.1v31.2c-0.1,6.5-2.1,11.5-5.9,15c-3.7,3.5-8.3,5.3-13.6,5.3c-5.2-0.1-9.6-1.8-13.3-5.3
			c-4-3.5-6-8.5-6.1-15V108.1z M180.1,108.8c-0.2-7.1-3.4-10.7-9.7-10.8c-6.3,0.1-9.5,3.7-9.6,10.8v30c0.1,7.2,3.3,10.8,9.6,10.8
			c6.3-0.1,9.5-3.7,9.7-10.8V108.8z"/>
	</g>
	<g>
		<path class="st0" d="M115.6,186.3h-7.4l-1.5,4.5h-3.1l7.1-20.3h2.5l7.1,20.3h-3.1L115.6,186.3z M114.8,183.5l-2.8-8.9h-0.1
			l-2.8,8.9H114.8z"/>
		<path class="st0" d="M123.1,170.5h3v13.1c0,1.4,0.4,2.4,1.2,3.2c0.7,0.8,1.7,1.1,2.8,1.1c1.2,0,2.1-0.4,2.9-1.1
			c0.7-0.7,1.1-1.8,1.1-3.2v-13.1h3v13.4c0,2.1-0.7,3.8-2,5.1c-1.3,1.3-3,1.9-5,2c-2,0-3.6-0.7-4.9-2c-1.3-1.2-2-2.9-2-5.1V170.5z"
			/>
		<path class="st0" d="M145.3,173.3h-5.4v-2.7h13.7v2.7h-5.4v17.5h-3V173.3z"/>
		<path class="st0" d="M156.1,180.7c0-2.4,0.1-3.9,0.2-4.7c0.1-0.8,0.4-1.4,0.7-1.9c0.5-0.9,1.2-1.8,2.3-2.5c1-0.7,2.3-1.1,3.9-1.1
			c1.6,0,2.9,0.4,3.9,1.1c1,0.7,1.8,1.6,2.2,2.5c0.3,0.5,0.6,1.1,0.7,1.9c0.1,0.8,0.2,2.4,0.2,4.7c0,2.3-0.1,3.9-0.2,4.7
			c-0.1,0.8-0.4,1.5-0.7,2c-0.5,0.9-1.2,1.8-2.2,2.5c-1,0.7-2.3,1.1-3.9,1.2c-1.5,0-2.8-0.4-3.9-1.2c-1-0.7-1.8-1.5-2.3-2.5
			c-0.1-0.3-0.3-0.6-0.4-0.9c-0.1-0.3-0.2-0.6-0.3-1.1C156.2,184.5,156.1,183,156.1,180.7z M159.1,180.7c0,2,0.1,3.3,0.2,4.1
			c0.1,0.7,0.4,1.3,0.8,1.7c0.3,0.4,0.7,0.8,1.2,1c0.5,0.3,1.1,0.5,1.8,0.5c0.7,0,1.3-0.2,1.8-0.5c0.5-0.3,0.9-0.6,1.2-1
			c0.4-0.4,0.7-1,0.8-1.7c0.1-0.7,0.2-2.1,0.2-4.1s-0.1-3.4-0.2-4.1c-0.1-0.7-0.4-1.2-0.8-1.7c-0.3-0.4-0.7-0.8-1.2-1
			c-0.5-0.3-1.1-0.4-1.8-0.4c-0.7,0-1.3,0.2-1.8,0.4c-0.5,0.3-0.9,0.6-1.2,1c-0.4,0.4-0.6,1-0.8,1.7
			C159.1,177.3,159.1,178.7,159.1,180.7z"/>
	</g>
	<g>
		<path class="st0" d="M110.7,61.4h2.1v6.1h5.9v2.2h-5.9v6.1h-2.1v-6.1h-5.9v-2.2h5.9V61.4z"/>
		<path class="st0" d="M130.6,55.5h6.9c2.7,0,4.6,1.2,6,3.4c0.5,0.8,0.8,1.6,0.9,2.4c0.1,0.8,0.1,2.3,0.1,4.3c0,2.2-0.1,3.7-0.2,4.6
			c-0.1,0.4-0.2,0.8-0.3,1.2c-0.2,0.3-0.3,0.7-0.6,1c-0.6,1-1.4,1.7-2.4,2.4c-1,0.7-2.3,1-3.7,1h-6.7V55.5z M133.6,72.9h3.6
			c1.7,0,2.9-0.6,3.6-1.8c0.3-0.4,0.5-1,0.6-1.7c0.1-0.7,0.1-1.9,0.1-3.7c0-1.8,0-3-0.1-3.8c-0.1-0.8-0.4-1.4-0.8-1.9
			c-0.8-1.2-2-1.7-3.5-1.7h-3.6V72.9z"/>
		<path class="st0" d="M149.1,55.5h3v20.3h-3V55.5z"/>
	</g>
	<g>
		<path class="st1" d="M26.4,59.9C46.7,29.4,83,9.4,122.7,9.4c64,0,116.2,52.2,116.2,116.2c0,64-51.6,116.2-115.6,116.2
			S7.5,190.5,7.5,126.5c0-11.5,1.7-21.7,4.8-31.9"/>
		<polyline class="st1" points="56.8,60.5 24.5,60.5 24.5,28.2 		"/>
	</g>
</g>
</svg>
