<?xml version="1.0" encoding="utf-8"?>
<!-- Generator: Adobe Illustrator 22.0.0, SVG Export Plug-In . SVG Version: 6.00 Build 0)  -->
<svg version="1.1" id="Livello_1" xmlns="http://www.w3.org/2000/svg" xmlns:xlink="http://www.w3.org/1999/xlink" x="0px" y="0px"
	 viewBox="0 0 673 666.2" style="enable-background:new 0 0 673 666.2;" xml:space="preserve">
<style type="text/css">
	.st0{fill:#87D0EF;}
	.st1{fill:#FFFFFF;}
	.st2{fill:url(#SVGID_1_);}
	.st3{fill:#1F2F4D;}
</style>
<g>
	<path class="st0" d="M0,0.4v328c0,184.6,292.2,334.3,336,334.3c36.5,0,336-149.7,336-334.3V0.4H0z"/>
	<g>
		<path class="st1" d="M62.4,49.9L43.2,99.5H25l28.7-68.7h17.3l28.7,68.7H81.7L62.4,49.9z M62.4,49.9"/>
		<path class="st1" d="M153.8,68.5c0,19.7-12.2,32.5-30.5,32.5c-18.7,0-31.2-12.8-31.2-32.5V30.8h16.9v37.7
			c0,10.5,5.6,16.9,14.3,16.9c8.1,0,13.5-6.5,13.5-16.9V30.8h16.9V68.5z"/>
		<path class="st1" d="M195,45.5v53.9h-16.8V45.5h-22.3V30.8h61.3v14.8H195z"/>
		<path class="st1" d="M248.8,28.7c-20.1,0-36.4,16.3-36.4,36.4s16.3,36.4,36.4,36.4c20.1,0,36.4-16.3,36.4-36.4
			S268.9,28.7,248.8,28.7z M248.8,84.8c-10.8,0-19.6-8.8-19.6-19.6s8.8-19.6,19.6-19.6s19.6,8.8,19.6,19.6S259.6,84.8,248.8,84.8z"
			/>
		<path class="st1" d="M583.7,73.9c-3,7.9-9.3,11.8-17,11.8c-10.9,0-19.6-8.8-19.6-20.5c0-11.7,8.7-20.4,19.6-20.4
			c7.6,0,13.9,3.6,16.8,11h17.1l0.6-0.1c-3.3-16.3-17.6-26.4-34.6-26.4c-20.4,0-36.5,15.8-36.5,35.9c0,20.2,16.1,35.9,36.5,35.9
			c17.6,0,31.4-10,34.6-27.2H583.7z"/>
		<g>
			<path class="st1" d="M325.5,47.8c-5.2-4.7-9.7-5-11.7-5c-2.2,0-4.9,0.3-6.8,2.4c-1,1-1.8,2.6-1.8,4.4c0,1.7,0.5,2.9,1.6,3.9
				c1.7,1.6,4.1,2.2,8.8,4l5.2,2c3,1.1,6.8,2.7,9.5,5.3c4.1,3.9,5.1,8.9,5.1,12.9c0,7.2-2.5,13.4-6.1,17.2
				c-6.1,6.5-15.1,7.1-19.7,7.1c-5,0-9.4-0.7-13.8-2.9c-3.5-1.8-7.6-5-10.2-7.6l8.3-11.5c1.8,1.8,4.6,4.2,6.5,5.3
				c2.7,1.7,5.5,2.5,8.8,2.5c2.1,0,5-0.4,7.3-2.4c1.4-1.1,2.5-3,2.5-5.6c0-2.3-0.9-3.8-2.4-5c-1.9-1.6-6.1-3.1-8.1-3.9l-5.7-2
				c-3.2-1.1-7-2.6-9.7-5.5c-3.6-3.9-4.2-8.8-4.2-12.1c0-6.1,1.9-11.4,6-15.6c4.9-5,10.7-6.4,17.2-6.4c4.8,0,12.5,0.8,20.6,6.9
				L325.5,47.8z"/>
			<path class="st1" d="M379.4,44.3h-23.2v13.4h22.1v13.5h-22.1v15.4h23.2v13.5h-39.3V30.8h39.3V44.3z"/>
			<path class="st1" d="M409.9,30.8c8.9,0,14.4,2.9,17.7,6c2.9,2.8,6,7.8,6,15.5c0,4.4-0.9,9.8-5.4,14.2c-2.4,2.3-5.8,4.4-9.7,5.3
				l21.4,28.4h-19.6l-18.8-27.4v27.4h-16V30.8H409.9z M401.6,62.4h3.6c2.9,0,6.9-0.3,9.6-3c1.1-1.1,2.6-3.3,2.6-6.8
				c0-4-1.9-6-3.2-7.1c-2.6-2-6.8-2.2-8.9-2.2h-3.8V62.4z"/>
			<path class="st1" d="M451,30.8l17.6,44.5l17.6-44.5h17.3L474,100.3h-10.8l-29.5-69.5H451z"/>
			<path class="st1" d="M523.1,30.8v69.5h-16V30.8H523.1z"/>
			<path class="st1" d="M646.9,44.3h-23.2v13.4h22.1v13.5h-22.1v15.4h23.2v13.5h-39.3V30.8h39.3V44.3z"/>
		</g>
	</g>
	<g>
		<linearGradient id="SVGID_1_" gradientUnits="userSpaceOnUse" x1="179.5954" y1="393.78" x2="322.5999" y2="393.78">
			<stop  offset="0" style="stop-color:#E43562"/>
			<stop  offset="1" style="stop-color:#64257E"/>
		</linearGradient>
		<path class="st2" d="M188,416.4c-11.2,11.2-11.2,29.3,0,40.5c5.6,5.6,13,8.4,20.2,8.4c7.4,0,14.7-2.8,20.3-8.4l94-94.1l-40.5-40.5
			L188,416.4z M188,416.4"/>
		<path class="st3" d="M423.2,242l41-21.2l21.4-41.5l-19.9-20l-41.5,21.4l-21.2,41L353,271.6l20.2,20.3L423.2,242z M423.2,242"/>
		<path class="st3" d="M432.1,350.7l-3.8-0.4c-7,0-13.6,1.4-19.9,3.7L290.8,236.4c2.3-6.2,3.7-12.9,3.7-19.9l-0.4-3.8
			c-2.1-29.9-26.6-53.4-56.9-53.4c-8.9,0-17.2,2.1-24.6,5.7l38.1,38.2c2,2,3.4,4.4,4.3,6.8c2.5,6.8,1.2,14.7-4.3,20.2
			c-3.7,3.7-8.6,5.6-13.4,5.6c-2.3,0-4.6-0.5-6.6-1.3c-2.5-1-4.9-2.2-6.9-4.3L185.7,192c-3.6,7.5-5.8,15.8-5.8,24.5
			c0,30.4,23.7,55,53.4,57l3.9,0.4c7,0,13.6-1.5,19.8-3.7l117.6,117.6c-2.2,6.2-3.7,12.8-3.7,19.8l0.4,3.9
			c2.1,29.8,26.6,53.5,57,53.5c8.8,0,17.1-2.2,24.5-5.8l-38-38.1c-2.1-2-3.4-4.4-4.4-6.8c-2.4-6.8-1.1-14.8,4.4-20.2
			c3.7-3.7,8.6-5.6,13.5-5.6c2.2,0,4.5,0.5,6.6,1.3c2.4,0.9,4.9,2.2,6.8,4.3l38.1,38.1c3.6-7.5,5.7-15.8,5.7-24.6
			C485.6,377.3,462,352.8,432.1,350.7L432.1,350.7z M432.1,350.7"/>
	</g>
</g>
</svg>
