<?xml version="1.0" encoding="utf-8"?>
<!-- Generator: Adobe Illustrator 22.0.0, SVG Export Plug-In . SVG Version: 6.00 Build 0)  -->
<svg version="1.1" id="Livello_1" xmlns="http://www.w3.org/2000/svg" xmlns:xlink="http://www.w3.org/1999/xlink" x="0px" y="0px"
	 viewBox="0 0 183.2 183.8" style="enable-background:new 0 0 183.2 183.8;" xml:space="preserve">
<style type="text/css">
	.st0{fill:#FFFFFF;}
	.st1{fill:none;stroke:#FFFFFF;stroke-width:0.9947;stroke-miterlimit:10;}
</style>
<g>
	<g>
		<g>
			<path class="st0" d="M66.8,89.7h2.8c2.8,0,4.9-0.8,6.5-2.4c1.5-1.5,2.3-3.5,2.3-6c-0.1-2.5-0.8-4.5-2.4-6.1
				c-1.5-1.5-3.5-2.3-5.9-2.4c-1.7,0-3.3,0.6-4.8,1.7c-1.5,1.2-2.5,3-3,5.4h-8.1c0.4-4.3,2.1-8,5.1-11c2.9-2.9,6.4-4.4,10.5-4.5
				c5.2,0.1,9.3,1.8,12.3,5.1c2.9,3.3,4.4,7.1,4.4,11.6c0,2.3-0.4,4.4-1.2,6.5c-0.9,2.1-2.6,4-5,5.6c2.5,1.6,4.2,3.5,5.3,5.8
				c1,2.3,1.6,4.6,1.6,7.1c-0.1,5.5-1.7,9.8-4.9,13C79.1,122.3,75,124,70,124c-3.9,0-7.3-1.3-10.3-3.9s-4.9-6.3-5.8-11.2H62
				c0.7,2,1.8,3.5,3.1,4.8c1.3,1.3,3.1,1.9,5.4,1.9c2.4,0,4.4-0.8,6-2.5c1.7-1.6,2.5-3.8,2.6-6.8c-0.1-3-0.9-5.3-2.6-6.9
				c-1.6-1.6-3.7-2.4-6.2-2.4h-3.5V89.7z"/>
			<path class="st0" d="M97.1,81.3c0.1-5.4,1.7-9.6,5-12.5c3.1-2.9,6.8-4.3,11.1-4.3c3.8,0,7.3,1.1,10.3,3.4
				c2.9,2.3,4.8,5.6,5.6,9.9h-8.4c-1.3-3.2-3.8-4.9-7.5-4.9c-5.2,0.1-7.9,3.1-8,9v5.5c3.9-1.3,7.5-1.9,10.9-1.8
				c3.7,0,6.9,1.3,9.5,3.9c2.6,2.6,3.8,6.8,3.7,12.4v5.3c-0.1,5.4-1.7,9.5-4.9,12.5c-3.1,2.9-6.8,4.4-11.3,4.4
				c-4.3-0.1-8-1.5-11.1-4.4c-3.3-2.9-5-7.1-5-12.4L97.1,81.3L97.1,81.3z M105.2,106.7c0.1,5.9,2.8,8.9,8,9c5.2-0.1,7.9-3,8-9v-4.8
				c-0.2-5.9-2.8-8.9-8-9c-5.2,0.1-7.9,3.1-8,9V106.7z"/>
		</g>
		<path class="st1" d="M28.5,49.9C42,29.6,66.1,16.4,92.4,16.4c42.4,0,77,34.6,77,77s-34.2,77-76.6,77S16,136.5,16,94
			c0-7.6,1.1-14.4,3.2-21.1"/>
		<polyline class="st1" points="48.7,50.2 27.3,50.2 27.3,28.8 		"/>
	</g>
	<g>
		<path class="st0" d="M98.2,133.7h1.4l2.8,6.5l2.7-6.5h1.4v10H105v-6.3l0,0l-2,4.8h-1.2l-2-4.8l0,0v6.3h-1.5v-10H98.2z"/>
		<path class="st0" d="M109.2,133.7h6.2v1.4h-4.7v2.9h4v1.3h-4v3h4.7v1.4h-6.2V133.7z"/>
		<path class="st0" d="M117.4,141.3c0.8,0.7,1.7,1,2.8,1c1.3,0,1.9-0.5,1.9-1.4c0-0.7-0.4-1.2-1.3-1.3c-0.4-0.1-0.8-0.1-1.3-0.2
			c-0.8-0.1-1.5-0.5-1.9-1s-0.7-1.1-0.7-1.9c0-0.9,0.3-1.6,0.8-2.1s1.3-0.8,2.3-0.8c1.2,0,2.3,0.4,3.1,1l-0.8,1.2
			c-0.7-0.5-1.5-0.8-2.4-0.8c-0.5,0-0.8,0.1-1.1,0.4c-0.3,0.2-0.5,0.6-0.5,1.1c0,0.3,0.1,0.6,0.3,0.8c0.2,0.2,0.6,0.4,1,0.5
			c0.3,0,0.6,0.1,1.1,0.2c0.9,0.1,1.6,0.5,2,1s0.6,1.2,0.6,1.9c0,1.9-1.2,2.9-3.4,2.9c-1.4,0-2.7-0.5-3.7-1.4L117.4,141.3z"/>
		<path class="st0" d="M125.6,133.7h1.5v10h-1.5V133.7z"/>
	</g>
</g>
</svg>
