<?xml version="1.0" encoding="utf-8"?>
<!-- Generator: Adobe Illustrator 22.0.1, SVG Export Plug-In . SVG Version: 6.00 Build 0)  -->
<svg version="1.1" id="Livello_1" xmlns="http://www.w3.org/2000/svg" xmlns:xlink="http://www.w3.org/1999/xlink" x="0px" y="0px"
	 viewBox="0 0 673 666.2" style="enable-background:new 0 0 673 666.2;" xml:space="preserve">
<style type="text/css">
	.st0{fill:#FFFFFF;}
	.st1{fill:url(#SVGID_1_);}
	.st2{fill:#87D0EF;}
</style>
<g>
	<path class="st0" d="M0.5,0v328c0,184.6,292.1,334.3,336,334.3c36.5,0,336-149.7,336-334.3V0H0.5z"/>
	
		<linearGradient id="SVGID_1_" gradientUnits="userSpaceOnUse" x1="169.9262" y1="356.448" x2="502.8838" y2="356.448" gradientTransform="matrix(1 0 0 -1 0 668.3937)">
		<stop  offset="0" style="stop-color:#E43562"/>
		<stop  offset="1" style="stop-color:#65247F"/>
	</linearGradient>
	<path class="st1" d="M336.7,243.8l-85.9,221h-80.8l128-305.8h77.2l127.8,306h-80.4L336.7,243.8z"/>
	<g>
		<path class="st2" d="M67.2,51l-21.1,54.4h-20L57.5,30h19l31.4,75.3H88.4L67.2,51z"/>
		<path class="st2" d="M606.3,51.9l-21.1,54.4h-20L596.6,31h19l31.4,75.3h-19.8L606.3,51.9z"/>
		<path class="st2" d="M167.3,71.5c0,21.5-13.3,35.6-33.3,35.6c-20.3,0-34.2-14.1-34.2-35.6V30h18.4v41.5c0,11.4,6.1,18.4,15.6,18.4
			c8.9,0,14.8-7,14.8-18.4V30h18.4v41.5H167.3z"/>
		<path class="st2" d="M212.3,46.2v59.1h-18.4V46.2h-24.3V30h67.1v16.2H212.3z"/>
		<path class="st2" d="M271.3,27.8c-22.1,0-39.9,17.9-39.9,39.9s17.9,39.9,39.9,39.9s39.9-17.9,39.9-39.9S293.3,27.8,271.3,27.8z
			 M271.3,89.2c-11.8,0-21.5-9.7-21.5-21.5s9.7-21.5,21.5-21.5s21.5,9.7,21.5,21.5S283.1,89.2,271.3,89.2z"/>
		<g>
			<path class="st2" d="M351,48.7c-5.7-5.1-10.6-5.5-12.7-5.5c-2.5,0-5.3,0.4-7.4,2.7c-1.1,1.1-1.9,2.9-1.9,4.8s0.6,3.2,1.7,4.2
				c1.9,1.7,4.4,2.5,9.5,4.4l5.7,2.1c3.2,1.3,7.4,3,10.5,5.9c4.4,4.2,5.5,9.7,5.5,14.1c0,7.8-2.7,14.6-6.7,18.8
				c-6.7,7-16.5,7.8-21.5,7.8c-5.5,0-10.3-0.8-15-3.2c-3.8-1.9-8.4-5.5-11.2-8.4l9.1-12.6c1.9,1.9,4.9,4.6,7,5.9
				c3,1.9,6.1,2.7,9.5,2.7c2.3,0,5.5-0.4,8-2.7c1.5-1.3,2.7-3.2,2.7-6.1c0-2.5-1-4.2-2.7-5.5c-2.1-1.7-6.7-3.4-8.9-4.2l-6.3-2.1
				c-3.6-1.3-7.6-2.9-10.6-6.1c-4-4.2-4.6-9.5-4.6-13.3c0-6.7,2.1-12.4,6.7-17.1c5.3-5.5,11.8-7,18.8-7c5.3,0,13.7,1,22.6,7.6
				L351,48.7z"/>
			<path class="st2" d="M382.5,30v76.1H365V30C365,30,382.5,30,382.5,30z"/>
			<path class="st2" d="M447,103.8c-6.7,3.4-12.2,4.2-16.7,4.2c-14.1,0-23.6-4.8-29.9-11c-6.8-6.7-11.8-16.7-11.8-28.9
				c0-12,4.9-22.1,11.8-28.7c6.7-6.5,16.5-11,28.3-11c4.9,0,10.8,1,18.3,4.2v20.3c-3.8-4.2-9.7-8.2-17.9-8.2
				c-6.5,0-11.6,2.1-15.6,5.9c-4.2,4.2-7.2,10.3-7.2,17.5c0,7.8,3.2,13.5,6.7,16.7c1.5,1.5,7,6.5,16.4,6.5c4.6,0,10.6-1.3,17.5-7.8
				v20.3H447z"/>
			<path class="st2" d="M515.6,75.1c0,7.2-1,16.4-8.4,24.1c-7.2,7.6-15.8,8.7-23.8,8.7c-8,0-16.4-1.1-23.8-8.7
				c-7.6-7.8-8.4-16.7-8.4-24.1V30h17.5v44.7c0,3.2,0.2,8.9,4,12.7c3,3.2,7.2,4,10.6,4c3.2,0,7.6-0.8,10.6-4c3.8-3.8,4-9.5,4-12.7
				V30h17.5L515.6,75.1L515.6,75.1z"/>
			<path class="st2" d="M549.1,30c9.7,0,15.8,3.2,19.4,6.7c3.2,3,6.7,8.6,6.7,16.9c0,4.8-1,10.6-5.9,15.6c-2.7,2.5-6.5,4.8-10.6,5.9
				l23.4,31.2h-21.5l-20.5-30v30h-17.5V30.2h26.6V30z M540,64.7h4c3.2,0,7.6-0.4,10.5-3.2c1.3-1.3,2.9-3.6,2.9-7.4
				c0-4.4-2.1-6.7-3.6-7.8c-2.9-2.1-7.4-2.5-9.7-2.5h-4.2v20.9H540z"/>
		</g>
	</g>
</g>
</svg>
