<?xml version="1.0" encoding="utf-8"?>
<!-- Generator: Adobe Illustrator 22.0.0, SVG Export Plug-In . SVG Version: 6.00 Build 0)  -->
<svg version="1.1" id="Livello_1" xmlns="http://www.w3.org/2000/svg" xmlns:xlink="http://www.w3.org/1999/xlink" x="0px" y="0px"
	 viewBox="0 0 482.8 330.7" style="enable-background:new 0 0 482.8 330.7;" xml:space="preserve">
<style type="text/css">
	.st0{fill:none;stroke:#969696;stroke-width:2.5225;stroke-miterlimit:10;}
	.st1{fill:#969696;}
</style>
<g>
	<circle class="st0" cx="70.4" cy="73.5" r="57.7"/>
	<path class="st0" d="M96.3,58.3c-5.1-7.6-13.6-13.2-23.7-13.2c-15.8,0-28.5,12.7-28.5,28.5c0,15.8,12.9,28.1,28.7,28.1
		c9.9,0,18.7-5.6,23.8-13.2"/>
	<g>
		<line class="st0" x1="35.2" y1="67.6" x2="73" y2="67.6"/>
		<line class="st0" x1="35.2" y1="80.2" x2="73" y2="80.2"/>
	</g>
</g>
<g>
	<path class="st0" d="M354.1,28.1v56.6c0,31.9,50.5,57.7,58,57.7c6.3,0,58-25.8,58-57.7V28.1H354.1z"/>
	<path class="st0" d="M413.4,63.2l-14.6,37.7H385l21.8-52.2h13.2l21.8,52.2H428L413.4,63.2z M413.4,63.2"/>
</g>
<g>
	<g>
		<path class="st1" d="M394.8,254.7h2.1c2.1,0,3.7-0.6,4.9-1.8c1.2-1.2,1.7-2.7,1.7-4.5c0-1.9-0.6-3.4-1.8-4.6
			c-1.2-1.2-2.6-1.8-4.5-1.8c-1.3,0-2.5,0.4-3.6,1.3c-1.1,0.9-1.9,2.2-2.3,4h-6.1c0.3-3.3,1.6-6,3.8-8.2c2.2-2.2,4.8-3.3,7.9-3.4
			c3.9,0,7,1.3,9.2,3.8c2.2,2.5,3.3,5.4,3.3,8.7c0,1.7-0.3,3.3-0.9,4.9c-0.7,1.6-2,3-3.8,4.2c1.9,1.2,3.2,2.7,4,4.3
			c0.8,1.7,1.2,3.5,1.2,5.3c0,4.1-1.3,7.4-3.7,9.8c-2.4,2.4-5.5,3.7-9.2,3.7c-2.9,0-5.5-1-7.7-2.9c-2.2-1.9-3.7-4.7-4.4-8.4h6.1
			c0.5,1.5,1.3,2.7,2.3,3.6c1,0.9,2.4,1.4,4,1.4c1.8,0,3.3-0.6,4.5-1.9c1.2-1.2,1.9-2.9,1.9-5.1c0-2.2-0.7-4-1.9-5.2
			c-1.2-1.2-2.8-1.8-4.7-1.8h-2.6V254.7z"/>
		<path class="st1" d="M417.5,248.4c0-4.1,1.3-7.2,3.8-9.4c2.3-2.2,5.1-3.3,8.3-3.3c2.9,0,5.5,0.8,7.7,2.5c2.2,1.7,3.6,4.2,4.2,7.4
			h-6.3c-1-2.4-2.8-3.7-5.6-3.7c-3.9,0.1-5.9,2.3-6,6.8v4.1c2.9-0.9,5.6-1.4,8.1-1.4c2.8,0,5.2,1,7.2,2.9c1.9,2,2.9,5.1,2.8,9.3v4
			c-0.1,4-1.3,7.2-3.7,9.4c-2.3,2.2-5.1,3.3-8.5,3.3c-3.2,0-6-1.1-8.3-3.3c-2.5-2.2-3.7-5.3-3.8-9.3V248.4z M423.6,267.5
			c0.1,4.5,2.1,6.7,6,6.7c3.9,0,5.9-2.3,6-6.7v-3.6c-0.1-4.4-2.1-6.7-6-6.7c-3.9,0.1-5.9,2.3-6,6.7V267.5z"/>
	</g>
	<path class="st0" d="M366.1,224.8c10.1-15.2,28.2-25.2,48-25.2c31.9,0,57.9,26,57.9,57.9c0,31.9-25.7,57.9-57.5,57.9
		s-57.7-25.5-57.7-57.4c0-5.7,0.8-10.8,2.4-15.9"/>
	<polyline class="st0" points="381.2,225.1 365.1,225.1 365.1,209 	"/>
</g>
<g>
	<path id="XMLID_273_" class="st0" d="M211.5,130.8V48.5h-29.3v82.3H211.5z M300,130.8v-26.5h-29.3v26.5H300z M256.9,130.8V75h-29.3
		v55.8H256.9z"/>
	<line class="st0" x1="182.2" y1="12.2" x2="301.1" y2="90.5"/>
	<path class="st0" d="M301.1,81.1"/>
	<polyline class="st0" points="301.5,76.2 301.5,92.3 285.4,92.3 	"/>
</g>
<g>
	<polygon class="st0" points="282.2,196.6 184,196.6 184,317.7 305.1,317.7 305.1,217.6 	"/>
	<line class="st0" x1="225.6" y1="226.9" x2="281.1" y2="226.9"/>
	<line class="st0" x1="225.6" y1="249.6" x2="281.1" y2="249.6"/>
	<line class="st0" x1="225.6" y1="274.8" x2="281.1" y2="274.8"/>
	<line class="st0" x1="225.6" y1="297.5" x2="281.1" y2="297.5"/>
	<polyline class="st0" points="217.1,214 205.6,225.2 201.6,220.8 	"/>
	<polyline class="st0" points="217.1,236.8 205.6,248 201.6,243.6 	"/>
	<polyline class="st0" points="217.1,262 205.6,273.2 201.6,268.8 	"/>
	<polyline class="st0" points="217.1,284.7 205.6,295.9 201.6,291.5 	"/>
</g>
<g>
	<path class="st0" d="M13.4,299c-4.4,4.4-4.4,11.5,0,15.9c2.2,2.2,5.1,3.3,7.9,3.3c2.9,0,5.8-1.1,8-3.3L66.1,278l-15.9-15.9
		L13.4,299z M13.4,299"/>
	<path class="st0" d="M105.6,230.6l16-8.3l8.4-16.3l-7.8-7.8l-16.3,8.4l-8.3,16l-19.6,19.6l7.9,7.9L105.6,230.6z M105.6,230.6"/>
	<path class="st0" d="M109.1,273.3l-1.5-0.1c-2.7,0-5.3,0.6-7.8,1.5l-46.1-46.1c0.9-2.4,1.5-5,1.5-7.8l-0.1-1.5
		c-0.8-11.7-10.4-20.9-22.3-20.9c-3.5,0-6.7,0.8-9.6,2.2l14.9,15c0.8,0.8,1.3,1.7,1.7,2.7c1,2.7,0.5,5.8-1.7,7.9
		c-1.5,1.5-3.4,2.2-5.3,2.2c-0.9,0-1.8-0.2-2.6-0.5c-1-0.4-1.9-0.9-2.7-1.7l-14.9-14.9c-1.4,2.9-2.3,6.2-2.3,9.6
		c0,11.9,9.3,21.5,20.9,22.3l1.5,0.1c2.7,0,5.3-0.6,7.7-1.5l46.1,46.1c-0.9,2.4-1.5,5-1.5,7.7l0.1,1.5c0.8,11.7,10.4,21,22.3,21
		c3.4,0,6.7-0.8,9.6-2.3l-14.9-14.9c-0.8-0.8-1.3-1.7-1.7-2.7c-1-2.7-0.4-5.8,1.7-7.9c1.5-1.5,3.4-2.2,5.3-2.2
		c0.9,0,1.8,0.2,2.6,0.5c1,0.4,1.9,0.9,2.7,1.7l14.9,14.9c1.4-2.9,2.2-6.2,2.2-9.7C130,283.7,120.8,274.1,109.1,273.3L109.1,273.3z
		 M109.1,273.3"/>
</g>
</svg>
