<?xml version="1.0" encoding="utf-8"?>
<!-- Generator: Adobe Illustrator 22.0.1, SVG Export Plug-In . SVG Version: 6.00 Build 0)  -->
<svg version="1.1" id="Livello_1" xmlns="http://www.w3.org/2000/svg" xmlns:xlink="http://www.w3.org/1999/xlink" x="0px" y="0px"
	 viewBox="0 0 600 200" style="enable-background:new 0 0 600 200;" xml:space="preserve">
<style type="text/css">
	.st0{display:none;}
	.st1{display:inline;}
	.st2{fill:#FFFFFF;stroke:#333333;stroke-width:0.8346;stroke-miterlimit:10;}
	.st3{display:inline;fill:#FFFFFF;stroke:#333333;stroke-width:0.8346;stroke-miterlimit:10;}
	.st4{display:inline;fill:none;stroke:#333333;stroke-width:0.6955;stroke-miterlimit:10;}
	.st5{display:inline;fill:#FFFFFF;stroke:#333333;stroke-width:0.6955;stroke-miterlimit:10;}
	.st6{display:inline;fill:#112E50;}
	.st7{display:inline;fill:url(#SVGID_1_);}
	.st8{fill:#FFFFFF;}
	.st9{fill:#E3E3E3;}
</style>
<g class="st0">
	<g class="st1">
		<path class="st2" d="M85.2,156c0-72-58.3-130.6-130.6-130.6s-130.8,58.3-130.8,130.4L85.2,156z"/>
		<circle class="st2" cx="-157.2" cy="133.8" r="40.8"/>
		<ellipse class="st2" cx="-157.2" cy="133.8" rx="24.5" ry="24.5"/>
		
			<ellipse transform="matrix(0.3162 -0.9487 0.9487 0.3162 -76.9451 160.8406)" class="st2" cx="73.1" cy="133.8" rx="40.8" ry="40.8"/>
		<circle class="st2" cx="73.1" cy="133.8" r="24.5"/>
	</g>
	<path class="st3" d="M-45,77.6l-20.9,54.3h-19.9l31.3-75h19l31.3,75h-19.9L-45,77.6z"/>
	<line class="st4" x1="-123.2" y1="51" x2="-132" y2="40"/>
	<circle class="st5" cx="-131.2" cy="40.8" r="1.5"/>
</g>
<g class="st0">
	<path class="st6" d="M349.6,25.4c-41.2,0-74.6,33.4-74.6,74.6s33.4,74.6,74.6,74.6s74.6-33.4,74.6-74.6S390.7,25.4,349.6,25.4z
		 M349.6,140.2c-22.2,0-40.2-18-40.2-40.2s18-40.2,40.2-40.2s40.2,18,40.2,40.2S371.8,140.2,349.6,140.2z"/>
	
		<linearGradient id="SVGID_1_" gradientUnits="userSpaceOnUse" x1="522.5173" y1="-783.2549" x2="572.9891" y2="-783.2549" gradientTransform="matrix(0.96 0.28 0.28 -0.96 43.0259 -805.3079)">
		<stop  offset="0" style="stop-color:#E43562"/>
		<stop  offset="1" style="stop-color:#662480"/>
	</linearGradient>
	<circle class="st7" cx="349.6" cy="100" r="25.2"/>
</g>
<g>
	<path class="st8" d="M445.1,26.2v72.2c0,40.6,64.3,73.5,73.9,73.5c8,0,73.9-32.9,73.9-73.5V26.2H445.1z"/>
	<path class="st9" d="M520.7,70.9l-18.6,48h-17.6l27.8-66.5H529l27.8,66.5h-17.5L520.7,70.9z"/>
</g>
</svg>
