<?xml version="1.0" encoding="utf-8"?>
<!-- Generator: Adobe Illustrator 22.0.1, SVG Export Plug-In . SVG Version: 6.00 Build 0)  -->
<svg version="1.1" id="Livello_1" xmlns="http://www.w3.org/2000/svg" xmlns:xlink="http://www.w3.org/1999/xlink" x="0px" y="0px"
	 viewBox="0 0 600 200" style="enable-background:new 0 0 600 200;" xml:space="preserve">
<style type="text/css">
	.st0{display:none;}
	.st1{display:inline;fill:url(#XMLID_2_);}
	.st2{display:inline;fill:none;stroke:#969696;stroke-width:3.4061;stroke-miterlimit:10;}
	.st3{fill:#E3E3E3;}
	.st4{fill:none;stroke:#FFFFFF;stroke-width:2.4348;stroke-miterlimit:10;}
	.st5{fill:#FFFFFF;stroke:#969696;stroke-width:2.4348;stroke-miterlimit:10;}
	.st6{fill:none;stroke:#969696;stroke-width:2.4348;stroke-miterlimit:10;}
</style>
<g class="st0">
	
		<linearGradient id="XMLID_2_" gradientUnits="userSpaceOnUse" x1="5.65" y1="819.5583" x2="152.7136" y2="819.5583" gradientTransform="matrix(1 0 0 1 0 -697.5937)">
		<stop  offset="0" style="stop-color:#E43562"/>
		<stop  offset="1" style="stop-color:#64257E"/>
	</linearGradient>
	<path id="XMLID_236_" class="st1" d="M42.2,173.4V70.5H5.7v102.7L42.2,173.4L42.2,173.4z M152.7,173.4v-33.1h-36.5v33.1H152.7z
		 M98.8,173.4v-69.6H62.3v69.6H98.8z"/>
	<line class="st2" x1="5.7" y1="25.4" x2="154.1" y2="123.1"/>
	<path class="st2" d="M154.1,111.4"/>
	<polyline class="st2" points="154.7,105.3 154.7,125.4 134.6,125.4 	"/>
</g>
<g>
	<g>
		<polygon class="st3" points="28.1,54.2 123.8,54.2 123.8,172.3 5.8,172.3 5.8,74.8 		"/>
		<line class="st4" x1="83.1" y1="83.8" x2="29.1" y2="83.8"/>
		<line class="st4" x1="83.1" y1="105.9" x2="29.1" y2="105.9"/>
		<line class="st4" x1="83.1" y1="130.6" x2="29.1" y2="130.6"/>
		<line class="st4" x1="83.1" y1="152.6" x2="29.1" y2="152.6"/>
		<polyline class="st4" points="91.4,71.3 102.8,82.2 106.6,77.9 		"/>
		<polyline class="st4" points="91.4,93.5 102.8,104.4 106.6,100.1 		"/>
		<polyline class="st4" points="91.4,118 102.8,129 106.6,124.7 		"/>
		<polyline class="st4" points="91.4,140.1 102.8,151 106.6,146.7 		"/>
	</g>
	<g>
		<polygon class="st5" points="199.4,25.4 103.8,25.4 103.8,143.5 221.8,143.5 221.8,46 		"/>
		<line class="st6" x1="144.4" y1="55" x2="198.4" y2="55"/>
		<line class="st6" x1="144.4" y1="77" x2="198.4" y2="77"/>
		<line class="st6" x1="144.4" y1="101.6" x2="198.4" y2="101.6"/>
		<line class="st6" x1="144.4" y1="123.8" x2="198.4" y2="123.8"/>
		<polyline class="st6" points="136.1,42.4 124.8,53.4 121,49.1 		"/>
		<polyline class="st6" points="136.1,64.6 124.8,75.6 121,71.3 		"/>
		<polyline class="st6" points="136.1,89.3 124.8,100.1 121,95.8 		"/>
		<polyline class="st6" points="136.1,111.4 124.8,122.2 121,117.9 		"/>
	</g>
</g>
</svg>
