<?xml version="1.0" encoding="utf-8"?>
<!-- Generator: Adobe Illustrator 22.0.1, SVG Export Plug-In . SVG Version: 6.00 Build 0)  -->
<svg version="1.1" id="Livello_1" xmlns="http://www.w3.org/2000/svg" xmlns:xlink="http://www.w3.org/1999/xlink" x="0px" y="0px"
	 viewBox="0 0 600 200" style="enable-background:new 0 0 600 200;" xml:space="preserve">
<style type="text/css">
	.st0{fill:#FFFFFF;stroke:#333333;stroke-width:0.8346;stroke-miterlimit:10;}
	.st1{fill:none;stroke:#333333;stroke-width:0.6955;stroke-miterlimit:10;}
	.st2{fill:#FFFFFF;stroke:#333333;stroke-width:0.6955;stroke-miterlimit:10;}
	.st3{fill:#112E50;}
	.st4{fill:url(#SVGID_1_);}
</style>
<g>
	<g>
		<path class="st0" d="M285.1,156c0-72-58.3-130.6-130.6-130.6S23.7,83.7,23.7,155.8L285.1,156z"/>
		<circle class="st0" cx="42.7" cy="133.8" r="40.8"/>
		<ellipse class="st0" cx="42.7" cy="133.8" rx="24.5" ry="24.5"/>
		
			<ellipse transform="matrix(0.1602 -0.9871 0.9871 0.1602 97.1979 381.8425)" class="st0" cx="273" cy="133.8" rx="40.8" ry="40.8"/>
		<circle class="st0" cx="273" cy="133.8" r="24.5"/>
	</g>
	<path class="st0" d="M154.9,77.6L134,131.9h-19.9l31.3-75h19l31.3,75h-19.9L154.9,77.6z"/>
	<line class="st1" x1="76.7" y1="51" x2="67.9" y2="40"/>
	<circle class="st2" cx="68.7" cy="40.8" r="1.5"/>
</g>
<g>
	<path class="st3" d="M519.5,25.4c-41.2,0-74.6,33.4-74.6,74.6s33.4,74.6,74.6,74.6s74.6-33.4,74.6-74.6S560.6,25.4,519.5,25.4z
		 M519.5,140.2c-22.2,0-40.2-18-40.2-40.2s18-40.2,40.2-40.2s40.2,18,40.2,40.2S541.7,140.2,519.5,140.2z"/>
	
		<linearGradient id="SVGID_1_" gradientUnits="userSpaceOnUse" x1="591.9774" y1="930.5687" x2="642.4492" y2="930.5687" gradientTransform="matrix(0.96 0.28 -0.28 0.96 187.4921 -966.1779)">
		<stop  offset="0" style="stop-color:#E43562"/>
		<stop  offset="1" style="stop-color:#662480"/>
	</linearGradient>
	<circle class="st4" cx="519.5" cy="100" r="25.2"/>
</g>
</svg>
