<?xml version="1.0" encoding="utf-8"?>
<!-- Generator: Adobe Illustrator 22.0.1, SVG Export Plug-In . SVG Version: 6.00 Build 0)  -->
<svg version="1.1" id="Livello_1" xmlns="http://www.w3.org/2000/svg" xmlns:xlink="http://www.w3.org/1999/xlink" x="0px" y="0px"
	 width="69.2px" height="54.8px" viewBox="0 0 69.2 54.8" style="enable-background:new 0 0 69.2 54.8;" xml:space="preserve">
<style type="text/css">
	.st0{fill:#FFFFFF;}
</style>
<path class="st0" d="M60.4,53.8H9.1c-4.2,0-7.7-3.5-7.7-7.7V14.9c0-4.2,3.5-7.7,7.7-7.7h10.5l0.9-3.1c0.4-1.7,1.9-2.9,3.7-2.9h21
	c1.8,0,3.3,1.2,3.7,2.9l0,0.1l0.8,3h10.5c4.2,0,7.7,3.5,7.7,7.7v31.2C68.1,50.3,64.6,53.8,60.4,53.8L60.4,53.8z M9.1,9.7
	C6.3,9.7,4,12,4,14.9v31.2c0,2.8,2.3,5.1,5.1,5.1h51.2c2.8,0,5.1-2.3,5.1-5.1V14.9c0-2.8-2.3-5.1-5.1-5.1H47.9l-1.4-5
	c-0.1-0.6-0.7-1-1.3-1h-21c-0.6,0-1.1,0.4-1.3,1l-1.5,5H9.1z M34.7,46c-9,0-16.3-7.3-16.3-16.3c0-9,7.3-16.3,16.3-16.3
	c9,0,16.3,7.3,16.3,16.3C51,38.7,43.7,46,34.7,46L34.7,46z M34.7,16C27.2,16,21,22.2,21,29.7c0,7.6,6.2,13.7,13.7,13.7
	c7.6,0,13.7-6.2,13.7-13.7C48.5,22.2,42.3,16,34.7,16L34.7,16z M58.7,14.5c-1.3,0-2.4,1.1-2.4,2.4c0,1.3,1.1,2.4,2.4,2.4
	c1.3,0,2.4-1.1,2.4-2.4C61.1,15.5,60,14.5,58.7,14.5L58.7,14.5z M58.7,14.5"/>
</svg>
