<?xml version="1.0" encoding="utf-8"?>
<!-- Generator: Adobe Illustrator 22.0.1, SVG Export Plug-In . SVG Version: 6.00 Build 0)  -->
<svg version="1.1" id="Livello_1" xmlns="http://www.w3.org/2000/svg" xmlns:xlink="http://www.w3.org/1999/xlink" x="0px" y="0px"
	 width="234px" height="111.8px" viewBox="0 0 234 111.8" style="enable-background:new 0 0 234 111.8;" xml:space="preserve">
<style type="text/css">
	.st0{fill:#7FA7B9;}
	.st1{fill:#FFFFFF;stroke:#343434;stroke-width:0.8346;stroke-miterlimit:10;}
	.st2{fill:#FFFFFF;stroke:#343434;stroke-width:0.6955;stroke-miterlimit:10;}
</style>
<ellipse class="st0" cx="117.3" cy="108.1" rx="115.5" ry="2.2"/>
<g>
	<path class="st1" d="M203.6,92.9c0-50.1-40.6-90.8-90.8-90.8S22.1,42.7,22.1,92.9L203.6,92.9z"/>
	<circle class="st1" cx="35.2" cy="77.4" r="28.4"/>
	<circle class="st1" cx="35.2" cy="77.4" r="17"/>
	<circle class="st1" cx="195.4" cy="77.4" r="28.4"/>
	<circle class="st1" cx="195.4" cy="77.4" r="17"/>
</g>
<line class="st2" x1="58.8" y1="19.9" x2="52.8" y2="12.4"/>
<circle class="st2" cx="53.3" cy="12.9" r="1"/>
<g>
	<path class="st1" d="M109.6,59.7c0-1.8,0.1-3.4,0.4-4.8c0.3-1.4,0.9-2.7,1.8-4.1l7.7-11.5c1.4-2.2,2.1-4.2,2.1-6.1
		c-0.1-2.6-0.9-4.6-2.4-6.1c-1.6-1.4-3.3-2.1-5.2-2.1c-2.3,0-4.2,0.7-5.7,2.2c-1.7,1.5-2.5,4.2-2.5,7.9l-9.1,0l0-1.8
		c0.1-5.1,1.8-9.3,5.1-12.5c3.3-3.3,7.2-5,11.8-5c4.6,0.1,8.6,1.6,12,4.7c3.5,3.2,5.2,7.5,5.3,13c-0.1,3.9-1,7.1-2.8,9.7l-7.8,11.6
		c-1,1.6-1.5,3.5-1.5,5.8l0,5.3l-9.1,0L109.6,59.7z M109.6,72.6l9.1,0l0,9.4l-9.1,0L109.6,72.6z"/>
</g>
</svg>
