<?xml version="1.0" encoding="utf-8"?>
<!-- Generator: Adobe Illustrator 22.0.1, SVG Export Plug-In . SVG Version: 6.00 Build 0)  -->
<svg version="1.1" id="Livello_1" xmlns="http://www.w3.org/2000/svg" xmlns:xlink="http://www.w3.org/1999/xlink" x="0px" y="0px"
	 viewBox="0 0 26.2 303.1" style="enable-background:new 0 0 26.2 303.1;" xml:space="preserve">
<style type="text/css">
	.st0{fill:#969696;}
	.st1{fill:none;stroke:#969696;stroke-width:1.5;stroke-miterlimit:10;}
</style>
<path class="st0" d="M22.1,224c-0.3-0.8-1-1.3-1.8-1.3H5.9c-0.9,0-1.6,0.5-1.8,1.3l-2.7,7.8v10.4c0,0.7,0.6,1.3,1.3,1.3H4
	c0.7,0,1.3-0.6,1.3-1.3v-1.3h15.6v1.3c0,0.7,0.6,1.3,1.3,1.3h1.3c0.7,0,1.3-0.6,1.3-1.3v-10.4L22.1,224z M5.9,237c-1.1,0-2-0.9-2-2
	c0-1.1,0.9-2,2-2s2,0.9,2,2C7.9,236.2,7,237,5.9,237z M20.2,237c-1.1,0-2-0.9-2-2c0-1.1,0.9-2,2-2s2,0.9,2,2
	C22.2,236.2,21.3,237,20.2,237z M4,230.5l2-5.9h14.3l2,5.9H4z"/>
<g>
	<path class="st0" d="M15.9,288.4c0,0.3-0.3,0.6-0.8,0.6H11c-0.4,0-0.8-0.3-0.8-0.6c0-0.3,0.3-0.6,0.8-0.6h4.2
		C15.6,287.7,15.9,288,15.9,288.4L15.9,288.4z M22.7,282.4v1.8c0,1.3-1.3,2.4-3,2.4H6.5c-1.6,0-3-1.1-3-2.4v-1.8
		c0-0.3,0.3-0.6,0.8-0.6h0.2c0,0,0,0,0-0.1v-1.7c0,0,0-0.1,0-0.1c0-0.1,0.1-0.2,0.1-0.3c0.1-0.1,0.1-0.1,0.2-0.2c0,0,0.1,0,0.1,0
		c0.3-0.1,0.6-0.2,0.9-0.3v-7.6c0-1.2,1-2.3,2.4-2.7c0,0,0-0.1,0-0.1v-1.5c0-1.5,1.5-2.7,3.3-2.7h3.2c1.8,0,3.3,1.2,3.3,2.7v1.5
		c0,0,0,0.1,0,0.1c0.5,0.2,1,0.4,1.4,0.8c0,0,0,0,0-0.1c0.2-0.3,0.7-0.4,1-0.3c0.4,0.2,0.5,0.5,0.3,0.8c-1.4,2.2-3.5,4.3-6.2,6.1
		c-2.1,1.5-4.6,2.7-7.2,3.8v1.8h11.4v-7.5c0-0.3,0.3-0.6,0.8-0.6c0.4,0,0.8,0.3,0.8,0.6v7.5h1.6C22.4,281.8,22.7,282.1,22.7,282.4
		L22.7,282.4z M9.7,268.7c0,0.1,0,0.3,0.1,0.4c0,0,0,0,0,0c0.2,0.6,0.9,1,1.7,1h3.2c0.8,0,1.5-0.4,1.7-1c0,0,0,0,0,0
		c0-0.1,0.1-0.2,0.1-0.4v-1.5c0-0.8-0.8-1.4-1.8-1.4h-3.2c-1,0-1.8,0.6-1.8,1.4V268.7z M7.4,278.6c4.8-2,8.7-4.7,11.2-7.8
		c-0.2-0.3-0.6-0.6-1-0.8c-0.6,0.8-1.6,1.4-2.9,1.4h-3.2c-1.2,0-2.3-0.6-2.9-1.4c-0.7,0.3-1.2,0.9-1.2,1.5V278.6z M21.2,283h-1.6
		c0,0,0,0,0,0h-13c0,0,0,0,0,0H5v1.2c0,0.6,0.6,1.2,1.4,1.2h13.3c0.8,0,1.4-0.5,1.4-1.2V283z M21.2,283"/>
</g>
<g>
	<path class="st0" d="M25.1,142.1l-1.2-2.6c-0.1-0.3-0.4-0.5-0.7-0.5h-1.9c-0.4,0-0.8,0.4-0.8,0.8v1.2h-0.6v-1
		c0-0.4-0.4-0.8-0.8-0.8H17v-2.1c0-0.4-0.4-0.8-0.8-0.8h-3.9v-0.7h3.9c0.4,0,0.8-0.4,0.8-0.8c0-0.4-0.4-0.8-0.8-0.8H7
		c-0.4,0-0.8,0.4-0.8,0.8c0,0.4,0.4,0.8,0.8,0.8h3.9v0.7H7c-0.4,0-0.8,0.4-0.8,0.8v0.7H4.5c-0.4,0-0.8,0.4-0.8,0.8v4.2H2.6v-4.2
		c0-0.4-0.4-0.8-0.8-0.8S1,138.1,1,138.5v10c0,0.4,0.4,0.8,0.8,0.8s0.8-0.4,0.8-0.8v-4.2h1.1v4.2c0,0.4,0.4,0.8,0.8,0.8h3l3.1,2.6
		c0.1,0.1,0.3,0.2,0.5,0.2h8c0.4,0,0.8-0.4,0.8-0.8v-2.1h0.6v1.2c0,0.4,0.4,0.8,0.8,0.8h1.9c0.3,0,0.6-0.2,0.7-0.5l1.2-2.6
		c0-0.1,0.1-0.2,0.1-0.3v-5.3C25.2,142.3,25.1,142.2,25.1,142.1L25.1,142.1z M23.6,147.6l-0.9,2h-0.6v-1.2c0-0.4-0.4-0.8-0.8-0.8
		h-2.2c-0.4,0-0.8,0.4-0.8,0.8v2.1h-6.9l-3.1-2.6c-0.1-0.1-0.3-0.2-0.5-0.2H5.2v-8.4H7c0.4,0,0.8-0.4,0.8-0.8v-0.7h7.7v2.1
		c0,0.4,0.4,0.8,0.8,0.8h2.1v1c0,0.4,0.4,0.8,0.8,0.8h2.2c0.4,0,0.8-0.4,0.8-0.8v-1.2h0.6l0.9,2V147.6z M23.6,147.6"/>
</g>
<g>
	<polygon class="st0" points="12.7,5.4 12.7,2.3 13.5,2.3 13.5,5.4 13.5,5.4 13.5,5.4 13.1,5.4 	"/>
	<polygon class="st0" points="2.1,15.9 4.3,15.5 5.1,15.3 5.1,14.9 5,14.5 5,14.5 1.9,15 	"/>
	<polygon class="st0" points="21.5,8.2 19.9,9.1 20.2,9.5 20.4,9.8 23.1,8.3 22.6,7.5 	"/>
	<polygon class="st0" points="7.9,19.7 7.5,19.5 5.5,21.8 6.2,22.4 7,21.4 8.2,20 	"/>
	<polygon class="st0" points="22.6,19.5 23,18.8 22.1,18.2 20.3,17.2 20.3,17.2 20.1,17.6 19.9,18 	"/>
	<polygon class="st0" points="1.9,12 3,12.2 5,12.5 5,12.5 5.1,11.8 5.1,11.7 5.1,11.7 2.1,11.1 	"/>
	<polygon class="st0" points="24.1,11.1 23.3,11.3 21,11.7 21.1,12.3 21.2,12.5 21.2,12.5 24.3,12 	"/>
	<polygon class="st0" points="9.9,6 9.9,6 10.6,5.8 10.7,5.7 9.7,2.8 8.8,3.1 9,3.5 	"/>
	<polygon class="st0" points="3.5,19.5 6.2,18 6.2,18 5.9,17.4 5.8,17.2 3.1,18.8 3.5,19.5 	"/>
	<polygon class="st0" points="18,20 20,22.4 20.7,21.9 20.7,21.9 18.6,19.5 18.2,19.9 	"/>
	<polygon class="st0" points="3.1,8.3 5.8,9.8 6.2,9.2 6.3,9.1 3.6,7.5 	"/>
	<rect x="22.2" y="13.6" transform="matrix(0.1741 -0.9847 0.9847 0.1741 3.7172 34.8488)" class="st0" width="0.9" height="3.1"/>
	<polygon class="st0" points="6.2,4.6 5.5,5.2 6.3,6 7.5,7.6 7.9,7.2 8.2,7 	"/>
	<polygon class="st0" points="16.3,3.5 15.5,5.7 15.5,5.7 16,5.9 16.3,6 17.4,3.1 16.5,2.8 	"/>
	<polygon class="st0" points="18.5,7.4 18.7,7.6 20.7,5.2 20,4.6 20,4.6 18,7 18,7 	"/>
	<path class="st0" d="M13.1,0.7C5.9,0.7,0,6.6,0,13.8c0,4.2,2,7.9,5,10.3h1.3c-3.3-2.2-5.5-6-5.5-10.3C0.8,7,6.3,1.5,13.1,1.5
		c6.8,0,12.3,5.5,12.3,12.3c0,4.3-2.2,8.1-5.5,10.3h1.3c3-2.4,5-6.1,5-10.3C26.2,6.6,20.3,0.7,13.1,0.7L13.1,0.7z"/>
	<rect x="9.4" y="16.3" class="st0" width="1.6" height="2.5"/>
	<rect x="11.5" y="16.3" class="st0" width="1.6" height="2.5"/>
	<rect x="13.6" y="16.3" class="st0" width="1.6" height="2.5"/>
	<rect x="15.7" y="16.3" class="st0" width="1.6" height="2.5"/>
	<path class="st0" d="M13.5,13.6c-0.1,0-0.1,0-0.2,0l-6-5.3l5.3,6c0,0,0,0.1,0,0.1c0,0.5,0.4,0.8,0.8,0.8c0.5,0,0.8-0.4,0.8-0.8
		C14.3,14,13.9,13.6,13.5,13.6L13.5,13.6z"/>
	<path class="st0" d="M13.5,15"/>
</g>
<g>
	<path class="st0" d="M21.8,47.4H19v-1.3c0-0.4-0.3-0.7-0.7-0.7c-0.4,0-0.7,0.3-0.7,0.7v1.3h-3.9v-1.3c0-0.4-0.3-0.7-0.7-0.7
		c-0.4,0-0.7,0.3-0.7,0.7v1.3H8.5v-1.3c0-0.4-0.3-0.7-0.7-0.7c-0.4,0-0.7,0.3-0.7,0.7v1.3H4.4c-1,0-1.7,0.8-1.7,1.7v15.5
		c0,1,0.8,1.7,1.7,1.7h17.5c1,0,1.7-0.8,1.7-1.7V49.2C23.6,48.2,22.8,47.4,21.8,47.4L21.8,47.4z M22.3,64.7c0,0.2-0.2,0.4-0.4,0.4
		H4.4c-0.2,0-0.4-0.2-0.4-0.4V49.2c0-0.2,0.2-0.4,0.4-0.4h2.8v1.3c0,0.4,0.3,0.7,0.7,0.7c0.4,0,0.7-0.3,0.7-0.7v-1.3h3.9v1.3
		c0,0.4,0.3,0.7,0.7,0.7c0.4,0,0.7-0.3,0.7-0.7v-1.3h3.9v1.3c0,0.4,0.3,0.7,0.7,0.7c0.4,0,0.7-0.3,0.7-0.7v-1.3h2.8
		c0.2,0,0.4,0.2,0.4,0.4V64.7z M22.3,64.7"/>
	<rect x="7.2" y="53.3" class="st0" width="2.6" height="2"/>
	<rect x="7.2" y="56.6" class="st0" width="2.6" height="2"/>
	<rect x="7.2" y="59.9" class="st0" width="2.6" height="2"/>
	<rect x="11.8" y="59.9" class="st0" width="2.6" height="2"/>
	<rect x="11.8" y="56.6" class="st0" width="2.6" height="2"/>
	<rect x="11.8" y="53.3" class="st0" width="2.6" height="2"/>
	<rect x="16.4" y="59.9" class="st0" width="2.6" height="2"/>
	<rect x="16.4" y="56.6" class="st0" width="2.6" height="2"/>
	<rect x="16.4" y="53.3" class="st0" width="2.6" height="2"/>
</g>
<g>
	<path class="st0" d="M15.6,88h-9c-0.3,0-0.5,0.2-0.5,0.5V95c0,0.3,0.2,0.5,0.5,0.5h9c0.3,0,0.5-0.2,0.5-0.5v-6.5
		C16.1,88.2,15.9,88,15.6,88z M15.1,94.5h-8V89h8V94.5z"/>
	<path class="st0" d="M19.6,108.5H2.6c-0.3,0-0.5,0.2-0.5,0.5c0,0.3,0.2,0.5,0.5,0.5h17.1c0.3,0,0.5-0.2,0.5-0.5
		C20.1,108.8,19.9,108.5,19.6,108.5z"/>
	<path class="st0" d="M23.4,91.3l-1.5-1.8c-0.1-0.1-0.1-0.1-0.2-0.1c-0.5,0-0.7,0.5-0.5,0.8l1.5,1.7c0.3,0.4,0.5,0.6,0.5,1h-1.4
		c-0.3,0-0.6,0.3-0.6,0.6V96c0,0.6,0.5,1,1,1h1v7.5c0,0.3-0.2,0.5-0.5,0.5h-1.1c-0.3,0-0.4-0.3-0.4-0.5V98c0-0.9-0.8-1.5-1.6-1.5
		h-0.9V88c0-1.4-1.1-2.5-2.5-2.5h-10c-1.4,0-2.5,1.1-2.5,2.5v19.5c0,0.5,0.4,0.5,1.1,0.5c0.4,0,0.9,0,1.4,0h10c0.6,0,1.1,0,1.4,0
		c0.7,0,1.1,0,1.1-0.5v-10h0.9c0.3,0,0.6,0.2,0.6,0.5v6.5c0,0.9,0.6,1.5,1.4,1.5h1.1c0.8,0,1.5-0.7,1.5-1.5l0,0V93
		C24.1,92.2,23.7,91.7,23.4,91.3z M17.6,107c-0.3,0-0.8,0-1.5,0h-10c-0.7,0-1.2,0-1.5,0V88c0-0.8,0.7-1.5,1.5-1.5h10
		c0.8,0,1.5,0.7,1.5,1.5V107z M22.1,96v-2h1v2H22.1z"/>
</g>
<g>
	<g>
		<g>
			<g>
				<path class="st0" d="M16.9,193.6H18c0.2,0,0.4,0.1,0.6,0.2c0.2,0.1,0.3,0.3,0.3,0.6c0,0.4-0.2,0.6-0.5,0.8l0.6,1.3h-0.5
					l-0.6-1.2h-0.5v1.2h-0.4V193.6z M17.3,194.8h0.6c0.2,0,0.3,0,0.4-0.1c0.1-0.1,0.1-0.2,0.1-0.3c0-0.1,0-0.3-0.1-0.3
					c-0.1-0.1-0.2-0.1-0.3-0.1h-0.7V194.8z"/>
			</g>
		</g>
		<line class="st1" x1="8.4" y1="183.8" x2="8.4" y2="196.4"/>
		<line class="st1" x1="13.2" y1="183.8" x2="13.2" y2="196.4"/>
		<polyline class="st1" points="8.4,190.1 18.5,190.1 18.5,184.1 		"/>
	</g>
	<circle class="st1" cx="13.1" cy="189.6" r="10.5"/>
</g>
</svg>
