<?xml version="1.0" encoding="utf-8"?>
<!-- Generator: Adobe Illustrator 22.0.1, SVG Export Plug-In . SVG Version: 6.00 Build 0)  -->
<svg version="1.1" id="Livello_1" xmlns="http://www.w3.org/2000/svg" xmlns:xlink="http://www.w3.org/1999/xlink" x="0px" y="0px"
	 viewBox="0 0 600 200" style="enable-background:new 0 0 600 200;" xml:space="preserve">
<style type="text/css">
	.st0{display:none;}
	.st1{display:inline;}
	.st2{fill:#FFFFFF;stroke:#333333;stroke-width:0.8346;stroke-miterlimit:10;}
	.st3{display:inline;fill:#FFFFFF;stroke:#333333;stroke-width:0.8346;stroke-miterlimit:10;}
	.st4{display:inline;fill:none;stroke:#333333;stroke-width:0.6955;stroke-miterlimit:10;}
	.st5{display:inline;fill:#FFFFFF;stroke:#333333;stroke-width:0.6955;stroke-miterlimit:10;}
	.st6{display:inline;fill:#112E50;}
	.st7{display:inline;fill:url(#SVGID_1_);}
	.st8{display:inline;fill:#FFFFFF;}
	.st9{display:inline;fill:#E3E3E3;}
	.st10{fill:#666666;}
	.st11{fill:none;stroke:#666666;stroke-width:1.0882;stroke-miterlimit:10;}
	.st12{fill:none;stroke:#666666;stroke-width:0.9947;stroke-miterlimit:10;}
</style>
<g class="st0">
	<g class="st1">
		<path class="st2" d="M85.2,156c0-72-58.3-130.6-130.6-130.6s-130.8,58.3-130.8,130.4L85.2,156z"/>
		<circle class="st2" cx="-157.2" cy="133.8" r="40.8"/>
		<ellipse class="st2" cx="-157.2" cy="133.8" rx="24.5" ry="24.5"/>
		
			<ellipse transform="matrix(0.3162 -0.9487 0.9487 0.3162 -76.9451 160.8406)" class="st2" cx="73.1" cy="133.8" rx="40.8" ry="40.8"/>
		<circle class="st2" cx="73.1" cy="133.8" r="24.5"/>
	</g>
	<path class="st3" d="M-45,77.6l-20.9,54.3h-19.9l31.3-75h19l31.3,75h-19.9L-45,77.6z"/>
	<line class="st4" x1="-123.2" y1="51" x2="-132" y2="40"/>
	<circle class="st5" cx="-131.2" cy="40.8" r="1.5"/>
</g>
<g class="st0">
	<path class="st6" d="M349.6,25.4c-41.2,0-74.6,33.4-74.6,74.6s33.4,74.6,74.6,74.6s74.6-33.4,74.6-74.6S390.7,25.4,349.6,25.4z
		 M349.6,140.2c-22.2,0-40.2-18-40.2-40.2s18-40.2,40.2-40.2s40.2,18,40.2,40.2S371.8,140.2,349.6,140.2z"/>
	
		<linearGradient id="SVGID_1_" gradientUnits="userSpaceOnUse" x1="522.5173" y1="-783.2549" x2="572.9891" y2="-783.2549" gradientTransform="matrix(0.96 0.28 0.28 -0.96 43.0259 -805.3079)">
		<stop  offset="0" style="stop-color:#E43562"/>
		<stop  offset="1" style="stop-color:#662480"/>
	</linearGradient>
	<circle class="st7" cx="349.6" cy="100" r="25.2"/>
</g>
<g class="st0">
	<path class="st8" d="M275.1,26.2v72.2c0,40.6,64.3,73.5,73.9,73.5c8,0,73.9-32.9,73.9-73.5V26.2H275.1z"/>
	<path class="st9" d="M350.7,70.9l-18.6,48h-17.6l27.8-66.5H359l27.8,66.5h-17.5L350.7,70.9z"/>
</g>
<g>
	<g>
		<g>
			<g>
				<path class="st10" d="M469.1,83.6h3.4c3.4,0,6-1,7.9-2.9c1.9-1.9,2.7-4.3,2.7-7.1c-0.1-3-1-5.5-2.9-7.4
					c-1.9-1.9-4.2-2.7-7.1-2.9c-2.1,0-4,0.6-5.7,2.1c-1.8,1.4-3.1,3.5-3.6,6.5h-9.9c0.5-5.2,2.6-9.6,6.2-13.2
					c3.5-3.5,7.8-5.5,12.7-5.5c6.4,0.1,11.2,2.1,14.9,6.2c3.5,4,5.3,8.7,5.5,14c0,2.7-0.4,5.3-1.4,7.9c-1.2,2.6-3.2,4.8-6.1,6.8
					c3,1.9,5.1,4.3,6.5,7c1.2,2.7,1.9,5.6,1.9,8.6c-0.1,6.6-2.1,11.8-6,15.7c-3.9,3.9-8.8,6-14.9,6c-4.7,0-8.8-1.6-12.5-4.7
					s-6-7.7-7-13.5h9.9c0.9,2.3,2.1,4.3,3.8,5.7c1.7,1.6,3.8,2.3,6.5,2.3c2.9,0,5.3-1,7.3-3.1c1.9-1.9,3.1-4.7,3.1-8.2
					c-0.1-3.6-1.2-6.5-3.1-8.4c-1.9-1.9-4.4-3-7.5-3h-4.2v-9H469.1z"/>
				<path class="st10" d="M507,53.8h36.8v10.1h-27.5v16.2c3.2-2.6,6.9-3.9,11-3.9c2.6,0.1,5.1,0.5,7.3,1.4c2.1,1,3.8,2.2,5.1,3.6
					c1.9,1.9,3.4,4.2,4.2,6.8c0.4,1.4,0.8,3.1,0.9,5.1c0.3,1.9,0.4,4.5,0.4,7.5c0,4.7-0.4,8.2-1,10.6c-0.6,2.5-1.8,4.5-3.4,6.5
					c-1.3,1.9-3.4,3.5-5.8,4.9c-2.6,1.6-5.6,2.5-9,2.5c-4.7,0-9-1.4-12.7-4.3c-4-2.9-6.5-7.7-7.3-14.2h9.9c1.2,5.5,4.3,8.2,9.9,8.3
					c2.3,0,4.2-0.4,5.7-1.4c1.3-1,2.3-2.2,2.9-3.6c0.5-1.6,0.9-3.2,1-4.9c0.1-1.7,0.1-3.4,0.1-5.1c0.1-4.2-0.5-7.4-1.9-9.9
					c-0.6-1.2-1.8-2.2-3.1-2.9c-1.3-0.5-3.1-0.9-5.1-0.9c-1.8,0-3.4,0.4-4.9,1.2c-1.4,0.9-2.7,2.5-4,4.5H507V53.8L507,53.8z"/>
			</g>
			<path class="st11" d="M422.7,47.6C438.9,23,468.3,7,500.1,7c51.4,0,93.5,41.9,93.5,93.5S552.2,194,500.7,194
				s-93.2-41.4-93.2-92.9c0-9.3,1.3-17.5,3.9-25.6"/>
		</g>
		<g>
			<path class="st10" d="M469.7,145.7c-0.3,1.2-0.8,1.9-1.4,2.6c-0.8,0.5-1.7,0.9-2.6,0.9s-1.7-0.3-2.3-0.6
				c-0.6-0.4-1.2-0.9-1.3-1.4c-0.1-0.3-0.1-0.4-0.3-0.5c-0.1-0.3-0.1-0.4-0.1-0.6c-0.1-0.4-0.1-1.4-0.1-2.7c0-1.4,0-2.3,0.1-2.9
				c0.1-0.4,0.3-0.9,0.4-1.2c0.4-0.5,0.8-1.2,1.3-1.6c0.6-0.4,1.4-0.6,2.3-0.6c1.2,0,2.1,0.4,2.7,1c0.6,0.6,1.2,1.6,1.3,2.6h-1.9
				c-0.1-0.4-0.4-0.9-0.8-1.2c-0.4-0.4-0.9-0.5-1.4-0.5c-0.4,0-0.8,0.1-1.2,0.3c-0.4,0.3-0.5,0.4-0.8,0.6c-0.3,0.3-0.4,0.5-0.4,1
				c-0.1,0.4-0.1,1.2-0.1,2.5c0,1.2,0,1.9,0.1,2.5c0.1,0.5,0.3,0.8,0.4,1c0.3,0.3,0.4,0.4,0.8,0.6s0.6,0.3,1.2,0.3
				c1,0,1.8-0.5,2.2-1.7L469.7,145.7L469.7,145.7z"/>
			<path class="st10" d="M471.3,143.1c0-1.4,0-2.3,0.1-2.9c0.1-0.4,0.3-0.9,0.4-1.2c0.4-0.5,0.8-1.2,1.3-1.4
				c0.6-0.4,1.4-0.6,2.3-0.6s1.7,0.3,2.3,0.6c0.6,0.4,1.2,0.9,1.3,1.6c0.3,0.4,0.4,0.6,0.4,1.2c0,0.5,0.1,1.4,0.1,2.9
				c0,1.4,0,2.3-0.1,2.7c-0.1,0.4-0.3,0.9-0.4,1.2c-0.3,0.5-0.8,1.2-1.3,1.4c-0.6,0.4-1.4,0.6-2.3,0.6s-1.7-0.3-2.3-0.6
				c-0.6-0.4-1.2-0.9-1.3-1.4c-0.1-0.3-0.1-0.4-0.3-0.5c-0.1-0.1-0.1-0.4-0.1-0.6C471.3,145.4,471.3,144.5,471.3,143.1z M473,143.1
				c0,1.2,0,1.9,0.1,2.5c0.1,0.4,0.3,0.8,0.4,1c0.3,0.3,0.4,0.4,0.8,0.6c0.4,0.3,0.6,0.3,1.2,0.3s0.8-0.1,1.2-0.3
				c0.4-0.1,0.5-0.4,0.6-0.6c0.3-0.3,0.4-0.5,0.4-1c0.1-0.4,0.1-1.2,0.1-2.5c0-1.2,0-1.9-0.1-2.5c-0.1-0.4-0.3-0.8-0.4-1
				c-0.3-0.3-0.4-0.4-0.6-0.6c-0.4-0.1-0.6-0.3-1.2-0.3s-0.8,0.1-1.2,0.3c-0.4,0.3-0.5,0.4-0.8,0.6c-0.3,0.3-0.4,0.5-0.4,1
				C473,141,473,141.8,473,143.1z"/>
			<path class="st10" d="M482.3,137h1.7l5.3,8.7l0,0V137h1.9v12.2h-1.7l-5.3-8.7l0,0v8.7h-1.9C482.3,149.2,482.3,137,482.3,137z"/>
			<path class="st10" d="M496.3,138.5h-3.2v-1.7h8.2v1.7H498v10.5h-1.8v-10.5H496.3z"/>
			<path class="st10" d="M503.2,137h4.5c1,0,1.8,0.3,2.5,0.8c0.8,0.5,1.2,1.4,1.2,2.6c0,1.7-0.8,2.7-2.3,3.4l2.7,5.5h-2.1l-2.5-5.2
				h-2.3v5.2h-1.8V137H503.2z M505,142.3h2.6c0.6,0,1.2-0.3,1.6-0.5c0.4-0.3,0.4-0.8,0.4-1.3c0-0.6-0.3-1.2-0.5-1.3
				c-0.3-0.1-0.8-0.4-1.3-0.4H505C505,138.7,505,142.3,505,142.3z"/>
			<path class="st10" d="M513.6,143.1c0-1.4,0-2.3,0.1-2.9c0.1-0.4,0.3-0.9,0.4-1.2c0.4-0.5,0.8-1.2,1.3-1.4
				c0.6-0.4,1.4-0.6,2.3-0.6c0.9,0,1.7,0.3,2.3,0.6s1.2,0.9,1.3,1.6c0.3,0.4,0.4,0.6,0.4,1.2c0,0.5,0.1,1.4,0.1,2.9
				c0,1.4,0,2.3-0.1,2.7c-0.1,0.4-0.3,0.9-0.4,1.2c-0.3,0.5-0.8,1.2-1.3,1.4c-0.6,0.4-1.4,0.6-2.3,0.6c-0.9,0-1.7-0.3-2.3-0.6
				c-0.6-0.4-1.2-0.9-1.3-1.4c-0.1-0.3-0.1-0.4-0.3-0.5c-0.1-0.3-0.1-0.4-0.1-0.6C513.7,145.4,513.6,144.5,513.6,143.1z
				 M515.3,143.1c0,1.2,0,1.9,0.1,2.5c0.1,0.4,0.3,0.8,0.4,1c0.3,0.3,0.4,0.4,0.8,0.6s0.6,0.3,1.2,0.3c0.5,0,0.8-0.1,1.2-0.3
				c0.4-0.1,0.5-0.4,0.6-0.6c0.3-0.3,0.4-0.5,0.4-1c0.1-0.4,0.1-1.2,0.1-2.5c0-1.2,0-1.9-0.1-2.5c-0.1-0.4-0.3-0.8-0.4-1
				c-0.3-0.3-0.4-0.4-0.6-0.6c-0.4-0.1-0.6-0.3-1.2-0.3c-0.5,0-0.8,0.1-1.2,0.3c-0.4,0.3-0.5,0.4-0.8,0.6c-0.3,0.3-0.4,0.5-0.4,1
				C515.4,141,515.3,141.8,515.3,143.1z"/>
			<path class="st10" d="M524.8,137h1.8v10.4h5.7v1.8h-7.5V137z"/>
			<path class="st10" d="M534.6,137h1.8v10.4h5.7v1.8h-7.5V137z"/>
			<path class="st10" d="M544.4,137h1.8v12.2h-1.8V137z"/>
		</g>
	</g>
	<polyline class="st12" points="449.5,47.8 422.1,47.8 422.1,20.4 	"/>
</g>
</svg>
