<?xml version="1.0" encoding="utf-8"?>
<!-- Generator: Adobe Illustrator 22.0.1, SVG Export Plug-In . SVG Version: 6.00 Build 0)  -->
<svg version="1.1" id="Livello_1" xmlns="http://www.w3.org/2000/svg" xmlns:xlink="http://www.w3.org/1999/xlink" x="0px" y="0px"
	 viewBox="0 0 600 200" style="enable-background:new 0 0 600 200;" xml:space="preserve">
<style type="text/css">
	.st0{display:none;}
	.st1{display:inline;}
	.st2{fill:#FFFFFF;stroke:#333333;stroke-width:0.8346;stroke-miterlimit:10;}
	.st3{display:inline;fill:#FFFFFF;stroke:#333333;stroke-width:0.8346;stroke-miterlimit:10;}
	.st4{display:inline;fill:none;stroke:#333333;stroke-width:0.6955;stroke-miterlimit:10;}
	.st5{display:inline;fill:#FFFFFF;stroke:#333333;stroke-width:0.6955;stroke-miterlimit:10;}
	.st6{display:inline;fill:#112E50;}
	.st7{display:inline;fill:url(#SVGID_1_);}
	.st8{display:inline;fill:#FFFFFF;}
	.st9{display:inline;fill:#E3E3E3;}
	.st10{fill:#666666;}
	.st11{fill:none;stroke:#666666;stroke-width:0.9947;stroke-miterlimit:10;}
</style>
<g class="st0">
	<g class="st1">
		<path class="st2" d="M85.2,156c0-72-58.3-130.6-130.6-130.6s-130.8,58.3-130.8,130.4L85.2,156z"/>
		<circle class="st2" cx="-157.2" cy="133.8" r="40.8"/>
		<ellipse class="st2" cx="-157.2" cy="133.8" rx="24.5" ry="24.5"/>
		<ellipse class="st2" cx="73.1" cy="133.8" rx="40.8" ry="40.8"/>
		<circle class="st2" cx="73.1" cy="133.8" r="24.5"/>
	</g>
	<path class="st3" d="M-45,77.6l-20.9,54.3h-19.9l31.3-75h19l31.3,75h-19.9L-45,77.6z"/>
	<line class="st4" x1="-123.2" y1="51" x2="-132" y2="40"/>
	<circle class="st5" cx="-131.2" cy="40.8" r="1.5"/>
</g>
<g class="st0">
	<path class="st6" d="M349.6,25.4c-41.2,0-74.6,33.4-74.6,74.6s33.4,74.6,74.6,74.6s74.6-33.4,74.6-74.6S390.7,25.4,349.6,25.4z
		 M349.6,140.2c-22.2,0-40.2-18-40.2-40.2s18-40.2,40.2-40.2s40.2,18,40.2,40.2S371.8,140.2,349.6,140.2z"/>
	
		<linearGradient id="SVGID_1_" gradientUnits="userSpaceOnUse" x1="616.1573" y1="1641.1285" x2="666.6291" y2="1641.1285" gradientTransform="matrix(0.96 0.28 -0.28 0.96 193.3361 -1655.0858)">
		<stop  offset="0" style="stop-color:#E43562"/>
		<stop  offset="1" style="stop-color:#662480"/>
	</linearGradient>
	<circle class="st7" cx="349.6" cy="100" r="25.2"/>
</g>
<g class="st0">
	<path class="st8" d="M275.1,26.2v72.2c0,40.6,64.3,73.5,73.9,73.5c8,0,73.9-32.9,73.9-73.5V26.2H275.1z"/>
	<path class="st9" d="M350.7,70.9l-18.6,48h-17.6l27.8-66.5H359l27.8,66.5h-17.5L350.7,70.9z"/>
</g>
<g>
	<g>
		<path class="st10" d="M468.6,82.5h3.4c3.4,0,6-0.9,7.8-2.9c1.8-1.8,2.7-4.3,2.7-7.3c-0.1-3-0.9-5.5-2.9-7.5
			c-1.8-1.8-4.3-2.7-7.2-2.9c-2.1,0-4.1,0.8-5.9,2.1c-1.8,1.4-3,3.7-3.7,6.5h-9.8c0.5-5.2,2.6-9.7,6.1-13.3
			c3.5-3.5,7.7-5.4,12.8-5.5c6.3,0.1,11.2,2.2,14.9,6.1c3.5,4.1,5.4,8.6,5.4,14.1c0,2.7-0.5,5.4-1.4,7.8c-1,2.6-3.1,4.8-6,6.8
			c3,2,5.1,4.3,6.4,7.1c1.2,2.7,2,5.6,2,8.6c-0.1,6.7-2.1,11.9-6,15.8c-3.9,3.9-8.9,6-14.9,6c-4.7,0-8.9-1.6-12.6-4.7
			c-3.7-3.1-6-7.7-7.1-13.6h9.8c0.9,2.5,2.2,4.3,3.8,5.9c1.6,1.6,3.8,2.4,6.5,2.4c2.9,0,5.4-0.9,7.3-3c2.1-2,3-4.6,3.1-8.2
			c-0.1-3.7-1-6.4-3.1-8.4c-2-2-4.4-2.9-7.6-2.9h-4.3v-9.2C468.3,82.5,468.6,82.5,468.6,82.5z"/>
		<path class="st10" d="M505.5,72.3c0.1-6.5,2.1-11.6,6-15.2c3.8-3.5,8.2-5.2,13.5-5.2c4.6,0,8.9,1.3,12.6,4.2
			c3.5,2.7,5.9,6.8,6.8,12h-10.2c-1.6-3.9-4.6-6-9.2-6c-6.3,0.1-9.5,3.8-9.7,11v6.7c4.7-1.6,9.2-2.4,13.2-2.2
			c4.4,0,8.4,1.6,11.5,4.7c3.1,3.1,4.6,8.2,4.4,15v6.4c-0.1,6.5-2.1,11.5-6,15.2c-3.8,3.5-8.2,5.4-13.7,5.4
			c-5.2-0.1-9.7-1.8-13.5-5.4c-4.1-3.5-6-8.6-6-15L505.5,72.3L505.5,72.3z M515.3,103.1c0.1,7.2,3.4,10.9,9.7,11
			c6.3-0.1,9.5-3.7,9.7-11v-5.9c-0.3-7.2-3.4-10.9-9.7-11c-6.3,0.1-9.5,3.8-9.7,11V103.1z"/>
	</g>
	<path class="st11" d="M422.2,47.2c16.3-24.7,45.6-40.7,77.5-40.7c51.5,0,93.5,42,93.5,93.5s-41.6,93.5-93.1,93.5
		s-93.2-41.2-93.2-92.7c0-9.3,1.3-17.5,3.9-25.6"/>
	<polyline class="st11" points="446.6,47.6 420.6,47.6 420.6,21.5 	"/>
	<g>
		<path class="st10" d="M508.3,135.3h1.8l3.7,8.5l3.5-8.5h1.8v13.1h-2v-8.2l0,0l-2.6,6.3H513l-2.6-6.3l0,0v8.2h-2v-13.1H508.3z"/>
		<path class="st10" d="M522.7,135.3h8.1v1.8h-6.1v3.8h5.2v1.7h-5.2v3.9h6.1v1.8h-8.1V135.3z"/>
		<path class="st10" d="M533.4,145.2c1,0.9,2.2,1.3,3.7,1.3c1.7,0,2.5-0.7,2.5-1.8c0-0.9-0.5-1.6-1.7-1.7c-0.5-0.1-1-0.1-1.7-0.3
			c-1-0.1-2-0.7-2.5-1.3c-0.5-0.7-0.9-1.4-0.9-2.5c0-1.2,0.4-2.1,1-2.7c0.7-0.7,1.7-1,3-1c1.6,0,3,0.5,4.1,1.3l-1,1.6
			c-0.9-0.7-2-1-3.1-1c-0.7,0-1,0.1-1.4,0.5c-0.4,0.3-0.7,0.8-0.7,1.4c0,0.4,0.1,0.8,0.4,1s0.8,0.5,1.3,0.7c0.4,0,0.8,0.1,1.4,0.3
			c1.2,0.1,2.1,0.7,2.6,1.3c0.5,0.7,0.8,1.6,0.8,2.5c0,2.5-1.6,3.8-4.4,3.8c-1.8,0-3.5-0.7-4.8-1.8L533.4,145.2z"/>
		<path class="st10" d="M544.2,135.3h2v13.1h-2V135.3z"/>
	</g>
</g>
</svg>
