<?xml version="1.0" encoding="utf-8"?>
<!-- Generator: Adobe Illustrator 22.0.1, SVG Export Plug-In . SVG Version: 6.00 Build 0)  -->
<svg version="1.1" id="Livello_1" xmlns="http://www.w3.org/2000/svg" xmlns:xlink="http://www.w3.org/1999/xlink" x="0px" y="0px"
	 viewBox="0 0 600 200" style="enable-background:new 0 0 600 200;" xml:space="preserve">
<style type="text/css">
	.st0{display:none;}
	.st1{display:inline;fill:url(#XMLID_2_);}
	.st2{display:inline;fill:none;stroke:#969696;stroke-width:3.4061;stroke-miterlimit:10;}
	.st3{fill:#666666;}
	.st4{fill:none;stroke:#666666;stroke-width:1.0882;stroke-miterlimit:10;}
	.st5{fill:none;stroke:#666666;stroke-width:0.9947;stroke-miterlimit:10;}
</style>
<g class="st0">
	
		<linearGradient id="XMLID_2_" gradientUnits="userSpaceOnUse" x1="5.65" y1="819.5583" x2="152.7136" y2="819.5583" gradientTransform="matrix(1 0 0 1 0 -697.5937)">
		<stop  offset="0" style="stop-color:#E43562"/>
		<stop  offset="1" style="stop-color:#64257E"/>
	</linearGradient>
	<path id="XMLID_236_" class="st1" d="M42.2,173.4V70.5H5.7v102.7L42.2,173.4L42.2,173.4z M152.7,173.4v-33.1h-36.5v33.1H152.7z
		 M98.8,173.4v-69.6H62.3v69.6H98.8z"/>
	<line class="st2" x1="5.7" y1="25.4" x2="154.1" y2="123.1"/>
	<path class="st2" d="M154.1,111.4"/>
	<polyline class="st2" points="154.7,105.3 154.7,125.4 134.6,125.4 	"/>
</g>
<g>
	<g>
		<g>
			<g>
				<path class="st3" d="M54,72.1c0.1-6.6,2.1-11.6,6.1-15.2c3.7-3.6,8.2-5.2,13.4-5.2c5.3,0,9.9,1.8,13.7,5.3
					c3.7,3.6,5.8,8.6,5.9,15.2v31.4c-0.1,6.6-2.1,11.6-5.9,15.1c-3.7,3.6-8.4,5.3-13.7,5.3c-4.5-0.1-8.6-1.4-12.2-4.4
					c-3.6-2.8-5.9-6.7-7-11.9h10.2c1.5,4,4.5,5.9,9,5.9c6.3-0.1,9.5-3.6,9.8-10.8v-6.7c-4.6,1.5-9.2,2.2-13.1,2.2
					c-4.4,0.1-8.4-1.5-11.5-4.8c-3.1-3.1-4.6-8.2-4.6-14.9C54,78.7,54,72.1,54,72.1z M63.8,78.7c0.1,7.2,3.4,10.8,9.7,10.8
					c6.3-0.1,9.5-3.6,9.8-10.8v-5.8c-0.3-7.1-3.5-10.7-9.8-10.8c-6.3,0.1-9.5,3.7-9.7,10.8V78.7z"/>
				<path class="st3" d="M105.2,52.4h36.7v10.1h-27.5v16.2c3.2-2.6,6.8-3.9,11.1-3.9c2.7,0.1,5.2,0.5,7.3,1.4c2.1,1,3.7,2.2,5.2,3.6
					c1.9,1.9,3.4,4.3,4.1,6.7c0.4,1.4,0.8,3.1,0.9,5.2c0.3,1.9,0.4,4.5,0.4,7.6c0,4.6-0.4,8.2-1,10.7c-0.6,2.4-1.8,4.5-3.4,6.4
					c-1.3,1.9-3.4,3.6-5.9,5c-2.6,1.5-5.5,2.4-9,2.4c-4.6,0-9-1.4-12.8-4.4c-4-2.8-6.4-7.6-7.3-14.2h9.9c1.2,5.4,4.4,8.2,9.9,8.4
					c2.3,0,4.3-0.4,5.7-1.4c1.3-1,2.3-2.2,2.8-3.6c0.5-1.5,0.9-3.2,1-5c0.1-1.8,0.1-3.5,0.1-5.2c0.1-4.1-0.5-7.5-1.9-9.9
					c-0.6-1.2-1.8-2.2-3.1-2.8c-1.3-0.5-3.1-0.9-5.2-0.9c-1.8,0-3.5,0.4-5,1.2c-1.4,0.9-2.8,2.4-4,4.5h-9.2V52.4L105.2,52.4z"/>
			</g>
			<path class="st4" d="M20.8,46.4C37.1,21.8,66.4,5.6,98.4,5.6c51.4,0,93.6,42,93.6,93.6s-41.5,93.4-93,93.4S5.7,151.4,5.7,100
				c0-9.3,1.3-17.5,3.9-25.6"/>
		</g>
		<g>
			<path class="st3" d="M67.8,144.4c-0.3,1.2-0.8,1.9-1.4,2.6c-0.8,0.5-1.7,0.9-2.7,0.9c-0.9,0-1.7-0.3-2.3-0.6
				c-0.6-0.4-1.2-0.9-1.3-1.4c-0.1-0.3-0.1-0.4-0.3-0.5c-0.1-0.3-0.1-0.4-0.1-0.6c-0.1-0.4-0.1-1.4-0.1-2.8c0-1.4,0-2.3,0.1-2.8
				c0.1-0.4,0.3-0.9,0.4-1.2c0.4-0.5,0.8-1.2,1.3-1.5c0.6-0.4,1.4-0.6,2.3-0.6c1.2,0,2.1,0.4,2.8,1c0.6,0.6,1.2,1.5,1.3,2.6h-1.9
				c-0.1-0.4-0.4-0.9-0.8-1.2c-0.4-0.4-0.9-0.5-1.4-0.5c-0.4,0-0.8,0.1-1.2,0.3c-0.4,0.3-0.5,0.4-0.8,0.6c-0.3,0.3-0.4,0.5-0.4,1
				c0,0.5-0.1,1.2-0.1,2.4c0,1.2,0,1.9,0.1,2.4c0.1,0.4,0.3,0.8,0.4,1c0.3,0.3,0.4,0.4,0.8,0.6c0.4,0.3,0.6,0.3,1.2,0.3
				c1,0,1.8-0.5,2.2-1.7L67.8,144.4L67.8,144.4z"/>
			<path class="st3" d="M69.4,141.9c0-1.4,0-2.3,0.1-2.8c0.1-0.4,0.3-0.9,0.4-1.2c0.4-0.5,0.8-1.2,1.3-1.4c0.6-0.4,1.4-0.6,2.3-0.6
				s1.7,0.3,2.3,0.6c0.6,0.4,1.2,0.9,1.3,1.5c0.3,0.4,0.4,0.6,0.4,1.2c0.1,0.4,0.1,1.4,0.1,2.8s0,2.3-0.1,2.8
				c-0.1,0.4-0.3,0.9-0.4,1.2c-0.3,0.5-0.8,1.2-1.3,1.4c-0.6,0.4-1.4,0.6-2.3,0.6s-1.7-0.3-2.3-0.6c-0.6-0.4-1.2-0.9-1.3-1.4
				c-0.1-0.3-0.1-0.4-0.3-0.5c-0.1-0.1-0.1-0.4-0.1-0.6C69.4,144.2,69.4,143.3,69.4,141.9z M71.2,141.9c0,1.2,0,1.9,0.1,2.4
				c0.1,0.4,0.3,0.8,0.4,1c0.3,0.3,0.4,0.4,0.8,0.6c0.4,0.3,0.6,0.3,1.2,0.3c0.5,0,0.8-0.1,1.2-0.3c0.4-0.1,0.5-0.4,0.6-0.6
				c0.3-0.3,0.4-0.5,0.4-1c0.1-0.4,0.1-1.2,0.1-2.4c0-1.2,0-1.9-0.1-2.4c-0.1-0.4-0.3-0.8-0.4-1c-0.3-0.3-0.4-0.4-0.6-0.6
				c-0.4-0.1-0.6-0.3-1.2-0.3c-0.5,0-0.8,0.1-1.2,0.3c-0.4,0.3-0.5,0.4-0.8,0.6c-0.3,0.3-0.4,0.5-0.4,1
				C71.2,139.8,71.2,140.6,71.2,141.9z"/>
			<path class="st3" d="M80.4,135.7h1.7l5.3,8.6l0,0v-8.6h1.8v12.2h-1.5l-5.3-8.6l0,0v8.6h-1.8L80.4,135.7L80.4,135.7z"/>
			<path class="st3" d="M94.6,137.4h-3.2v-1.7h8.2v1.7h-3.4v10.6h-1.8v-10.6H94.6z"/>
			<path class="st3" d="M101.5,135.7h4.6c1,0,1.8,0.3,2.4,0.8c0.8,0.5,1.2,1.4,1.2,2.6c0,1.7-0.8,2.8-2.3,3.4l2.8,5.4h-2.1l-2.4-5.2
				h-2.4v5.2h-1.8V135.7z M103.3,141.1h2.7c0.6,0,1.2-0.3,1.5-0.5c0.4-0.4,0.4-0.8,0.4-1.3c0-0.6-0.3-1.2-0.5-1.3
				c-0.4-0.3-0.8-0.4-1.3-0.4h-2.8V141.1z"/>
			<path class="st3" d="M111.8,141.9c0-1.4,0-2.3,0.1-2.8c0.1-0.4,0.3-0.9,0.4-1.2c0.4-0.5,0.8-1.2,1.3-1.4c0.6-0.4,1.4-0.6,2.3-0.6
				c0.9,0,1.7,0.3,2.3,0.6c0.6,0.4,1.2,0.9,1.3,1.5c0.3,0.4,0.4,0.6,0.4,1.2s0.1,1.4,0.1,2.8s0,2.3-0.1,2.8
				c-0.1,0.4-0.3,0.9-0.4,1.2c-0.3,0.5-0.8,1.2-1.3,1.4c-0.6,0.4-1.4,0.6-2.3,0.6s-1.7-0.3-2.3-0.6c-0.6-0.4-1.2-0.9-1.3-1.4
				c-0.1-0.3-0.1-0.4-0.3-0.5c-0.1-0.3-0.1-0.4-0.1-0.6C111.9,144.2,111.8,143.3,111.8,141.9z M113.6,141.9c0,1.2,0,1.9,0.1,2.4
				c0.1,0.4,0.3,0.8,0.4,1c0.3,0.3,0.4,0.4,0.8,0.6c0.4,0.3,0.6,0.3,1.2,0.3c0.5,0,0.8-0.1,1.2-0.3s0.5-0.4,0.6-0.6
				c0.3-0.3,0.4-0.5,0.4-1c0.1-0.4,0.1-1.2,0.1-2.4c0-1.2,0-1.9-0.1-2.4c-0.1-0.4-0.3-0.8-0.4-1c-0.3-0.3-0.4-0.4-0.6-0.6
				c-0.4-0.1-0.6-0.3-1.2-0.3c-0.5,0-0.8,0.1-1.2,0.3c-0.4,0.3-0.5,0.4-0.8,0.6c-0.3,0.3-0.4,0.5-0.4,1
				C113.7,139.8,113.6,140.6,113.6,141.9z"/>
			<path class="st3" d="M123,135.7h1.8v10.4h5.8v1.8H123V135.7z"/>
			<path class="st3" d="M132.9,135.7h1.8v10.4h5.8v1.8h-7.6V135.7z"/>
			<path class="st3" d="M142.6,135.7h1.8v12.2h-1.8V135.7z"/>
		</g>
	</g>
	<polyline class="st5" points="44.4,46.5 20.6,46.5 20.6,22.7 	"/>
</g>
</svg>
