<?xml version="1.0" encoding="utf-8"?>
<!-- Generator: Adobe Illustrator 22.0.1, SVG Export Plug-In . SVG Version: 6.00 Build 0)  -->
<svg version="1.1" id="Livello_1" xmlns="http://www.w3.org/2000/svg" xmlns:xlink="http://www.w3.org/1999/xlink" x="0px" y="0px"
	 viewBox="0 0 541.4 209.6" style="enable-background:new 0 0 541.4 209.6;" xml:space="preserve">
<style type="text/css">
	.st0{fill:none;stroke:#FFFFFF;stroke-width:1.2;stroke-miterlimit:10;}
	.st1{fill:#FFFFFF;}
</style>
<g>
	<g>
		<path class="st0" d="M84.1,127.5h19.7 M76.9,155v-48.9h30.3"/>
		<path class="st0" d="M134.3,144.1h-18 M105.1,155l17.2-48.9h6l17.2,48.9"/>
		<path class="st0" d="M177.2,151.2c-2.8,2.7-6.5,4.2-11.2,4.2c-3.7-0.1-6.8-1-9.3-2.8c-2.5-1.7-4.4-3.7-5.5-6
			c-0.3-0.7-0.7-1.4-0.9-2.1c-0.3-0.7-0.5-1.6-0.6-2.6c-0.3-2-0.5-5.8-0.5-11.3c0-5.7,0.2-9.5,0.5-11.4c0.3-1.9,0.9-3.5,1.6-4.7
			c1.1-2.3,3-4.3,5.5-6c2.5-1.8,5.6-2.7,9.3-2.8c3.8,0,6.9,1,9.4,2.8c2.5,1.8,4.3,3.8,5.4,6c0.8,1.2,1.4,2.7,1.7,4.7
			c0.3,1.9,0.4,5.7,0.4,11.4c0,5.1-0.1,8.6-0.3,10.6c-0.3,2-0.7,3.6-1.4,4.7l6.3,5.1"/>
	</g>
	<path class="st0" d="M217.3,130.7C233,79.9,204.4,25.7,153.6,10C102.8-5.7,48.8,22.4,33,73.2c-14.6,47.2,8.5,97,52.6,116.4"/>
	<circle class="st0" cx="95.8" cy="193.2" r="10.8"/>
	<path class="st0" d="M32.3,74.2C16.7,74.3,4,87,4.1,102.6c0.1,15.6,12.7,28.2,28.3,28.1"/>
	<path class="st0" d="M218.2,130.4c15.6-0.1,28.3-12.8,28.2-28.4s-12.7-28.2-28.3-28.1"/>
	<path class="st0" d="M33.3,72.8C46.4,83.1,63,89.2,81,89.1c42.4-0.3,76.6-34.2,76.3-76.4"/>
	<path class="st0" d="M157.3,12.4c0.2,34,25.1,61.6,55.8,61.4c1.7,0,3.3-0.1,4.9-0.3"/>
	<path class="st0" d="M415.6,6.1c-67.1,0.1-121.5,35.6-121.4,79.1c0,21.5,13.3,40.9,34.8,55c-17.5,30-40.6,35.2-40.6,35.2
		c16,4.7,33.6,4.3,50.3-2.5c9.8-3.9,18.3-9.7,25.4-16.6c15.8,4.8,33.4,7.5,51.9,7.4c67.1-0.1,121.5-35.6,121.4-79.1
		C537.2,41.1,482.7,5.9,415.6,6.1z"/>
	<g>
		<path class="st0" d="M384.4,69.9c-1.3-12.5,5-25.1,16.7-31.3c15.5-8.2,34.7-2.3,42.9,13.2s2.3,34.7-13.2,42.9"/>
		<path class="st0" d="M414.1,125.7c-1.2-12.4,5.1-24.8,16.7-31"/>
	</g>
	<circle class="st1" cx="414.5" cy="134.6" r="2"/>
</g>
</svg>
