<?xml version="1.0" encoding="utf-8"?>
<!-- Generator: Adobe Illustrator 22.0.1, SVG Export Plug-In . SVG Version: 6.00 Build 0)  -->
<svg version="1.1" id="Livello_1" xmlns="http://www.w3.org/2000/svg" xmlns:xlink="http://www.w3.org/1999/xlink" x="0px" y="0px"
	 viewBox="0 0 391.9 153.4" style="enable-background:new 0 0 391.9 153.4;" xml:space="preserve">
<style type="text/css">
	.st0{fill:none;stroke:#969696;stroke-width:1.2;stroke-miterlimit:10;}
	.st1{fill:#969696;}
</style>
<g>
	<g>
		<path class="st0" d="M60.4,93.6h14.2 M55.3,113.4V78.2h21.8"/>
		<path class="st0" d="M96.6,105.5H83.7 M75.6,113.4L88,78.2h4.3l12.4,35.2"/>
		<path class="st0" d="M127.5,110.7c-2,2-4.7,3-8,3.1c-2.7-0.1-4.9-0.7-6.7-2c-1.8-1.2-3.2-2.7-4-4.3c-0.2-0.5-0.5-1-0.7-1.5
			c-0.2-0.5-0.3-1.1-0.5-1.9c-0.2-1.4-0.4-4.1-0.4-8.2c0-4.1,0.1-6.8,0.4-8.2c0.2-1.4,0.6-2.5,1.1-3.4c0.8-1.6,2.2-3.1,4-4.3
			c1.8-1.3,4-1.9,6.7-2c2.7,0,5,0.7,6.8,2c1.8,1.3,3.1,2.7,3.9,4.3c0.6,0.9,1,2,1.2,3.4c0.2,1.4,0.3,4.1,0.3,8.2
			c0,3.7-0.1,6.2-0.2,7.7c-0.2,1.4-0.5,2.6-1,3.4l4.5,3.7"/>
	</g>
	<g>
		<path class="st0" d="M156.4,95.9c11.3-36.6-9.3-75.6-45.8-86.9C73.9-2.3,35,17.9,23.7,54.5c-10.5,34,6.1,69.8,37.9,83.8"/>
		<circle class="st0" cx="68.9" cy="140.9" r="7.8"/>
		<path class="st0" d="M23.2,55.2C11.9,55.3,2.8,64.4,2.9,75.7S12,96,23.3,95.9"/>
		<path class="st0" d="M157,95.7c11.2-0.1,20.4-9.2,20.3-20.4C177.2,64,168.1,55,156.9,55"/>
		<path class="st0" d="M23.9,54.2c9.4,7.4,21.3,11.8,34.3,11.7c30.5-0.2,55.1-24.7,54.9-55"/>
		<path class="st0" d="M113.2,10.8c0.1,24.5,18.1,44.3,40.1,44.2c1.2,0,2.4-0.1,3.5-0.2"/>
	</g>
	<path class="st0" d="M299.1,6.2c-48.3,0.1-87.4,25.6-87.4,57c0,15.4,9.6,29.4,25,39.6c-12.6,21.6-29.2,25.3-29.2,25.3
		c11.5,3.4,24.2,3.1,36.2-1.8c7-2.8,13.2-6.9,18.3-11.9c11.3,3.5,24,5.4,37.4,5.4c48.3-0.1,87.4-25.6,87.4-57
		C386.6,31.4,347.4,6.1,299.1,6.2z"/>
	<g>
		<path class="st0" d="M276.6,52.1c-0.9-9,3.6-18,12-22.5c11.1-5.9,25-1.7,30.9,9.5s1.7,25-9.5,30.9"/>
		<path class="st0" d="M298,92.3c-0.8-8.9,3.7-17.9,12.1-22.3"/>
	</g>
	<circle class="st1" cx="298.3" cy="98.7" r="1.4"/>
</g>
</svg>
