<?xml version="1.0" encoding="utf-8"?>
<!-- Generator: Adobe Illustrator 22.0.1, SVG Export Plug-In . SVG Version: 6.00 Build 0)  -->
<svg version="1.1" id="Livello_1" xmlns="http://www.w3.org/2000/svg" xmlns:xlink="http://www.w3.org/1999/xlink" x="0px" y="0px"
	 viewBox="0 0 391.9 248.1" style="enable-background:new 0 0 391.9 248.1;" xml:space="preserve">
<style type="text/css">
	.st0{fill:none;stroke:#FFFFFF;stroke-width:2.9205;stroke-miterlimit:10;}
</style>
<g>
	<path class="st0" d="M331.5,144.7C304.2,95.4,251.6,62,191.2,62c-60.4,0-113,33.4-140.3,82.7"/>
	<line class="st0" x1="96.7" y1="222.2" x2="294.4" y2="222.2"/>
	<circle class="st0" cx="54.1" cy="194.9" r="50.1"/>
	<circle class="st0" cx="54.1" cy="194.9" r="30.1"/>
	<circle class="st0" cx="336.8" cy="194.9" r="50.1"/>
	<circle class="st0" cx="336.8" cy="194.9" r="30.1"/>
	<path class="st0" d="M191.8,126.1L166,192.6h-24.3l38.5-92h23.2l38.5,92h-24.2L191.8,126.1z M191.8,126.1"/>
	<line class="st0" x1="95.9" y1="93.5" x2="85.2" y2="80.1"/>
	<circle class="st0" cx="86.1" cy="81" r="1.8"/>
	<line class="st0" x1="228.2" y1="5.9" x2="220.2" y2="44.2"/>
	<line class="st0" x1="157.2" y1="5.9" x2="165.2" y2="44.2"/>
	<line class="st0" x1="95.8" y1="23.4" x2="112.6" y2="58.7"/>
	<line class="st0" x1="42.3" y1="53.4" x2="68" y2="82.8"/>
	<line class="st0" x1="6.9" y1="98.4" x2="39.5" y2="119.7"/>
	<line class="st0" x1="287.9" y1="23.4" x2="271.1" y2="58.7"/>
	<line class="st0" x1="341.3" y1="53.4" x2="315.7" y2="82.8"/>
	<line class="st0" x1="376.8" y1="98.4" x2="344.2" y2="119.7"/>
</g>
</svg>
