<?xml version="1.0" encoding="utf-8"?>
<!-- Generator: Adobe Illustrator 22.0.1, SVG Export Plug-In . SVG Version: 6.00 Build 0)  -->
<svg version="1.1" id="Livello_1" xmlns="http://www.w3.org/2000/svg" xmlns:xlink="http://www.w3.org/1999/xlink" x="0px" y="0px"
	 viewBox="0 0 150 150" style="enable-background:new 0 0 150 150;" xml:space="preserve">
<style type="text/css">
	.st0{fill:none;stroke:#969696;stroke-width:1.2;stroke-miterlimit:10;}
	.st1{clip-path:url(#SVGID_2_);}
	.st2{fill:#FFFFFF;stroke:#969696;stroke-width:1.2;stroke-miterlimit:10;}
	.st3{enable-background:new    ;}
	.st4{fill:#969696;}
</style>
<g>
	<circle class="st0" cx="75" cy="75" r="73.5"/>
	<g>
		<g>
			<defs>
				<circle id="SVGID_1_" cx="75" cy="75" r="73.5"/>
			</defs>
			<clipPath id="SVGID_2_">
				<use xlink:href="#SVGID_1_"  style="overflow:visible;"/>
			</clipPath>
			<g class="st1">
				<path class="st2" d="M95.2,85"/>
				<g class="st3">
					<path class="st4" d="M51.5,27.4c-0.3,1.2-0.8,2.1-1.6,2.8c-0.8,0.6-1.7,1-2.8,1c-1,0-1.8-0.3-2.5-0.7c-0.7-0.5-1.2-1-1.5-1.6
						c-0.1-0.2-0.2-0.4-0.2-0.6c-0.1-0.2-0.1-0.4-0.2-0.7c-0.1-0.5-0.1-1.5-0.1-3c0-1.5,0-2.5,0.1-3c0.1-0.5,0.2-0.9,0.4-1.2
						c0.3-0.6,0.8-1.1,1.5-1.6c0.7-0.5,1.5-0.7,2.5-0.7c1.2,0,2.2,0.4,3,1.1c0.8,0.7,1.2,1.6,1.4,2.7h-2c-0.2-0.5-0.4-1-0.8-1.3
						c-0.4-0.3-0.9-0.5-1.5-0.5c-0.4,0-0.8,0.1-1.2,0.3c-0.3,0.2-0.6,0.4-0.8,0.7c-0.2,0.3-0.4,0.6-0.5,1.1
						c-0.1,0.5-0.1,1.3-0.1,2.6s0,2.1,0.1,2.6c0.1,0.5,0.2,0.8,0.5,1.1c0.2,0.3,0.5,0.5,0.8,0.6c0.3,0.2,0.7,0.3,1.2,0.3
						c1.1,0,1.9-0.6,2.4-1.8H51.5z"/>
					<path class="st4" d="M53.1,18.1H58c1,0,1.9,0.3,2.6,0.9c0.8,0.6,1.2,1.6,1.2,2.8c0,1.8-0.8,3-2.4,3.6l2.9,5.7h-2.3l-2.6-5.5H55
						v5.5h-1.9V18.1z M55,23.8h2.9c0.7,0,1.2-0.2,1.6-0.6c0.4-0.4,0.5-0.9,0.5-1.4c0-0.7-0.2-1.2-0.6-1.5c-0.3-0.3-0.8-0.4-1.4-0.4
						h-3V23.8z"/>
					<path class="st4" d="M70.6,28.2h-4.8l-1,2.9h-2l4.6-12.9h1.6l4.6,12.9h-2L70.6,28.2z M70.1,26.4l-1.8-5.7h0l-1.8,5.7H70.1z"/>
					<path class="st4" d="M75.5,27.9c1,0.8,2.2,1.3,3.6,1.3c1.6,0,2.5-0.6,2.5-1.8c0-1-0.5-1.5-1.6-1.7c-0.5-0.1-1.1-0.2-1.7-0.2
						c-1.1-0.2-1.9-0.6-2.5-1.2c-0.6-0.7-0.9-1.5-0.9-2.4c0-1.1,0.4-2,1.1-2.7c0.7-0.7,1.7-1,3-1c1.6,0,2.9,0.5,4.1,1.3L82,21
						c-0.9-0.6-2-1-3.1-1c-0.6,0-1.1,0.2-1.5,0.5c-0.4,0.3-0.6,0.8-0.6,1.4c0,0.4,0.1,0.7,0.4,1c0.3,0.3,0.7,0.5,1.3,0.6
						c0.3,0.1,0.8,0.1,1.4,0.2c1.2,0.2,2,0.6,2.6,1.3c0.6,0.7,0.8,1.5,0.8,2.4c-0.1,2.5-1.5,3.7-4.4,3.8c-1.9,0-3.4-0.6-4.8-1.8
						L75.5,27.9z"/>
				</g>
				<g class="st3">
					<path class="st4" d="M92.6,25.4h-5v5.7h-1.9V18.1h1.9v5.5h5v-5.5h1.9v12.9h-1.9V25.4z"/>
				</g>
				<g class="st3">
					<path class="st4" d="M98.4,18.1h2.3l-0.7,9.7H99L98.4,18.1z M98.6,29.2h1.8v1.8h-1.8V29.2z"/>
				</g>
				<path class="st0" d="M36.1,67.5c-12.7-23-37.2-38.6-65.4-38.6S-82,44.5-94.7,67.5"/>
				<line class="st0" x1="-73.4" y1="103.6" x2="18.8" y2="103.6"/>
				<circle class="st0" cx="-93.3" cy="90.8" r="23.4"/>
				<circle class="st0" cx="-93.3" cy="90.8" r="14"/>
				<circle class="st0" cx="38.6" cy="90.8" r="23.4"/>
				<circle class="st0" cx="38.6" cy="90.8" r="14"/>
				<path class="st0" d="M220.8,67.5c-12.7-23-37.2-38.6-65.4-38.6S102.7,44.5,90,67.5"/>
				<line class="st0" x1="111.4" y1="103.6" x2="203.5" y2="103.6"/>
				<circle class="st0" cx="91.5" cy="90.8" r="23.4"/>
				<circle class="st0" cx="91.5" cy="90.8" r="14"/>
				<circle class="st0" cx="223.3" cy="90.8" r="23.4"/>
				<circle class="st0" cx="223.3" cy="90.8" r="14"/>
				<line class="st0" x1="111" y1="43.6" x2="106" y2="37.3"/>
				<circle class="st0" cx="106.4" cy="37.8" r="0.8"/>
				<line class="st0" x1="52.4" y1="50.9" x2="58.5" y2="68.1"/>
				<line class="st0" x1="79.5" y1="51.3" x2="71.8" y2="67.7"/>
				<line class="st0" x1="64.9" y1="41.9" x2="65.9" y2="67.2"/>
			</g>
		</g>
	</g>
</g>
</svg>
