<?xml version="1.0" encoding="utf-8"?>
<!-- Generator: Adobe Illustrator 22.0.1, SVG Export Plug-In . SVG Version: 6.00 Build 0)  -->
<svg version="1.1" id="Livello_1" xmlns="http://www.w3.org/2000/svg" xmlns:xlink="http://www.w3.org/1999/xlink" x="0px" y="0px"
	 viewBox="0 0 150 150" style="enable-background:new 0 0 150 150;" xml:space="preserve">
<style type="text/css">
	.st0{fill:none;stroke:#969696;stroke-width:1.2;stroke-miterlimit:10;}
	.st1{enable-background:new    ;}
	.st2{fill:#969696;}
</style>
<g>
	<circle class="st0" cx="75" cy="75" r="73.5"/>
	<g class="st1">
		<path class="st2" d="M38.7,94h3.3v22.8h-3.3V94z"/>
		<path class="st2" d="M50.7,97.1h-6.1V94h15.5v3.1h-6.1v19.7h-3.3V97.1z"/>
		<path class="st2" d="M71.9,111.7h-8.4l-1.7,5.1h-3.5l8-22.8h2.8l8,22.8h-3.5L71.9,111.7z M71,108.7l-3.2-10h-0.1l-3.2,10H71z"/>
		<path class="st2" d="M80.2,94h3.3v19.6h10.8v3.3H80.2V94z"/>
		<path class="st2" d="M97.7,107.4L91,94h3.5l4.7,10.1l4.7-10.1h3.5l-6.7,13.4v9.4h-3.2V107.4z"/>
	</g>
	<path class="st0" d="M86.4,43c2.2-5.2,7.3-8.9,13.1-8.9c7.9,0,13.6,6.8,14.3,14.8c0,0,0.4,2-0.5,5.6c-1.2,4.9-3.9,9.3-7.5,12.6
		L86.4,84.5L67.3,67.1c-3.7-3.3-6.4-7.7-7.5-12.6C58.9,51,59.3,49,59.3,49c0.7-8.1,6.4-14.8,14.3-14.8C79.5,34.1,84.2,37.8,86.4,43
		L86.4,43z"/>
	<line class="st0" x1="43.9" y1="85.1" x2="43.9" y2="32.8"/>
</g>
</svg>
