<?xml version="1.0" encoding="utf-8"?>
<!-- Generator: Adobe Illustrator 22.0.1, SVG Export Plug-In . SVG Version: 6.00 Build 0)  -->
<svg version="1.1" id="Livello_1" xmlns="http://www.w3.org/2000/svg" xmlns:xlink="http://www.w3.org/1999/xlink" x="0px" y="0px"
	 width="391.9px" height="248.1px" viewBox="0 0 391.9 248.1" style="enable-background:new 0 0 391.9 248.1;" xml:space="preserve"
	>
<style type="text/css">
	.st0{fill:none;stroke:#FFFFFF;stroke-width:2.9205;stroke-miterlimit:10;}
	.st1{fill:#FFFFFF;}
	.st2{fill:none;stroke:#FFFFFF;stroke-width:6.7581;stroke-linecap:round;stroke-miterlimit:10;}
	.st3{clip-path:url(#XMLID_2_);fill:none;stroke:#FFFFFF;stroke-width:10;stroke-miterlimit:10;}
</style>
<g>
	<g>
		<g>
			<path class="st0" d="M59.9,90.8C87.2,41.5,139.8,8.1,200.2,8.1c60.4,0,113,33.4,140.3,82.7"/>
			<path class="st1" d="M179.7,166.8c-0.8,0.9-1.5,1.9-2.2,2.9l117.3,0v-2.9L179.7,166.8z"/>
			<circle class="st0" cx="337.3" cy="140.9" r="50.1"/>
			<circle class="st0" cx="337.3" cy="140.9" r="30.1"/>
			<circle class="st0" cx="54.6" cy="140.9" r="50.1"/>
			<path class="st1" d="M80.8,152.5c-4.4,10-14.5,17.1-26.2,17.1c-15.8,0-28.6-12.8-28.6-28.6s12.8-28.6,28.6-28.6
				c9.3,0,17.6,4.5,22.8,11.3c0.3-1.1,0.7-2.1,1.3-3.1c-5.8-6.8-14.4-11.2-24-11.2c-17.4,0-31.5,14.1-31.5,31.5
				c0,17.4,14.1,31.5,31.5,31.5c12.1,0,22.7-6.9,28-17C82,154.4,81.4,153.4,80.8,152.5z"/>
			<line class="st0" x1="295.6" y1="39.5" x2="306.2" y2="26.1"/>
			<circle class="st0" cx="305.4" cy="27" r="1.8"/>
		</g>
		<line id="XMLID_71_" class="st2" x1="169.7" y1="176" x2="232.2" y2="238.5"/>
		<g>
			<g>
				<defs>
					<circle id="XMLID_21_" cx="134.8" cy="131" r="57"/>
				</defs>
				<clipPath id="XMLID_2_">
					<use xlink:href="#XMLID_21_"  style="overflow:visible;"/>
				</clipPath>
				<line class="st3" x1="431.2" y1="157.1" x2="133.1" y2="157.1"/>
				<circle class="st3" cx="59" cy="132.4" r="75.6"/>
				<circle class="st3" cx="59" cy="132.4" r="45.3"/>
			</g>
		</g>
		<circle id="XMLID_72_" class="st2" cx="134.8" cy="131" r="57"/>
	</g>
</g>
</svg>
