<?xml version="1.0" encoding="utf-8"?>
<!-- Generator: Adobe Illustrator 22.0.1, SVG Export Plug-In . SVG Version: 6.00 Build 0)  -->
<svg version="1.1" id="Livello_1" xmlns="http://www.w3.org/2000/svg" xmlns:xlink="http://www.w3.org/1999/xlink" x="0px" y="0px"
	 width="135.3px" height="134.8px" viewBox="0 0 135.3 134.8" style="enable-background:new 0 0 135.3 134.8;" xml:space="preserve"
	>
<style type="text/css">
	.st0{fill:none;stroke:#969596;stroke-width:1.2083;stroke-miterlimit:10;}
	.st1{fill:#9C9B9B;}
	.st2{fill:url(#SVGID_1_);}
	.st3{fill:url(#SVGID_2_);}
	.st4{fill:url(#SVGID_3_);}
</style>
<g>
	<path class="st0" d="M67.7,0.8C30.9,0.8,1.1,30.6,1.1,67.4S30.9,134,67.7,134c36.8,0,66.6-29.8,66.6-66.6S104.4,0.8,67.7,0.8z
		 M50.5,99C39.4,92.9,31.8,81,31.8,67.4c0-19.8,16.1-35.9,35.9-35.9s35.9,16.1,35.9,35.9c0,13.6-7.6,25.5-18.7,31.5"/>
	<g>
		<path class="st1" d="M13.1,52.8l0.4-1.3l4.7,1.5l0,0l-3.5-5.1l0.5-1.6l2.7,4l6.5-1.3l-0.5,1.6l-5.2,1l1.2,2.1l2.8,0.9l-0.4,1.3
			L13.1,52.8z"/>
		<path class="st1" d="M16.3,44.1l0.6-1.3l8.6,4l-0.6,1.3L16.3,44.1z"/>
		<path class="st1" d="M18.1,40.2l0.7-1.2l7,4.2l2.3-3.8l1.2,0.7l-3.1,5L18.1,40.2z"/>
		<path class="st1" d="M26.1,36.3c-0.8-0.7-1.4-1.2-1.6-1.5c-0.2-0.3-0.4-0.6-0.5-0.8c-0.2-0.5-0.3-1-0.2-1.6c0-0.6,0.3-1.2,0.8-1.7
			c0.5-0.6,1-0.9,1.6-1.1c0.6-0.1,1.1-0.2,1.6,0c0.3,0,0.6,0.1,0.9,0.3c0.3,0.2,0.9,0.7,1.7,1.4c0.8,0.7,1.4,1.2,1.6,1.5
			c0.3,0.3,0.4,0.6,0.5,0.8c0.2,0.4,0.3,1,0.2,1.6c0,0.6-0.3,1.2-0.8,1.8c-0.5,0.5-1,0.9-1.6,1c-0.6,0.2-1.1,0.2-1.6,0.1
			c-0.2,0-0.3-0.1-0.4-0.1c-0.1,0-0.3-0.1-0.5-0.2C27.5,37.5,27,37,26.1,36.3z M27,35.3c0.7,0.6,1.2,1,1.5,1.2
			c0.3,0.2,0.6,0.3,0.8,0.2c0.2,0,0.5,0,0.7-0.1c0.3-0.1,0.5-0.3,0.7-0.5c0.2-0.3,0.3-0.5,0.4-0.8c0.1-0.3,0.1-0.5,0-0.7
			c0-0.3-0.2-0.5-0.4-0.8c-0.2-0.3-0.7-0.7-1.4-1.3c-0.7-0.6-1.2-1-1.5-1.2c-0.3-0.2-0.6-0.2-0.8-0.2c-0.2,0-0.5,0-0.7,0.1
			c-0.3,0.1-0.5,0.3-0.7,0.5c-0.2,0.3-0.3,0.5-0.4,0.8c-0.1,0.3-0.1,0.5,0,0.8c0,0.3,0.2,0.5,0.4,0.8C25.9,34.2,26.3,34.7,27,35.3z"
			/>
		<path class="st1" d="M29,25.9l1-0.8l6,3.1l-1.9-6.4l1-0.8l6,7.4L40,29.2l-3.8-4.6l0,0l1.4,4.8l-0.9,0.7l-4.4-2.3l0,0l3.7,4.6
			L35,33.3L29,25.9z"/>
		<path class="st1" d="M38.1,19l5.1-2.9l0.7,1.2L40,19.5l1.3,2.4l3.4-1.9l0.6,1.1L41.9,23l1.4,2.4l3.9-2.2l0.7,1.2l-5.1,2.9L38.1,19
			z"/>
		<path class="st1" d="M47.5,15.8l-2.4,0.9l-0.5-1.2l6-2.3l0.5,1.2l-2.4,0.9l2.9,7.7l-1.3,0.5L47.5,15.8z"/>
		<path class="st1" d="M52.9,12.5l3.5-0.8c0.8-0.2,1.4-0.1,2,0.2c0.7,0.3,1.1,0.9,1.3,1.8c0.3,1.3-0.1,2.3-1.2,3l3,3.7l-1.6,0.4
			l-2.7-3.6l-1.7,0.4l0.9,4L55,21.8L52.9,12.5z M55.2,16.3l2.1-0.4c0.5-0.1,0.9-0.4,1.1-0.7c0.2-0.3,0.2-0.7,0.2-1.1
			c-0.1-0.5-0.3-0.8-0.7-1c-0.3-0.1-0.6-0.2-1.1-0.1l-2.1,0.5L55.2,16.3z"/>
		<path class="st1" d="M61.8,10.9l1.4-0.1l0.9,9.5l-1.4,0.1L61.8,10.9z"/>
		<path class="st1" d="M75.3,17.9c-0.3,0.9-0.7,1.5-1.3,1.9c-0.6,0.4-1.3,0.6-2.1,0.5c-0.7-0.1-1.3-0.3-1.8-0.7
			c-0.5-0.4-0.8-0.8-1-1.2c-0.1-0.1-0.1-0.3-0.1-0.4c0-0.1-0.1-0.3-0.1-0.5c0-0.4,0-1.1,0.1-2.2c0.1-1.1,0.2-1.8,0.3-2.2
			c0.1-0.4,0.2-0.7,0.4-0.9c0.3-0.4,0.6-0.8,1.2-1.1c0.5-0.3,1.1-0.4,1.9-0.4c0.9,0.1,1.6,0.4,2.1,1c0.5,0.6,0.8,1.3,0.9,2.1
			l-1.5-0.1c-0.1-0.4-0.3-0.7-0.5-1c-0.3-0.3-0.7-0.4-1.1-0.5c-0.3,0-0.6,0-0.9,0.1c-0.3,0.1-0.5,0.3-0.6,0.4
			c-0.2,0.2-0.3,0.4-0.4,0.8c-0.1,0.3-0.2,1-0.3,1.9c-0.1,0.9-0.1,1.6-0.1,1.9c0,0.3,0.1,0.6,0.3,0.8c0.1,0.2,0.3,0.4,0.5,0.5
			c0.2,0.2,0.5,0.3,0.8,0.3c0.8,0.1,1.4-0.3,1.9-1.2L75.3,17.9z"/>
		<path class="st1" d="M78.2,11.5l5.7,1.3l-0.3,1.3l-4.4-1l-0.6,2.7l3.7,0.9L82,17.9L78.3,17l-0.6,2.7l4.4,1l-0.3,1.3L76,20.7
			L78.2,11.5z"/>
		<path class="st1" d="M86.5,13.6l3.3,1.4c0.7,0.3,1.2,0.7,1.5,1.3c0.4,0.7,0.4,1.4,0.1,2.2c-0.5,1.2-1.4,1.8-2.6,1.8l0.4,4.7
			l-1.5-0.6l-0.2-4.5l-1.7-0.7L84.2,23l-1.3-0.5L86.5,13.6z M86.2,18l2,0.8c0.5,0.2,0.9,0.2,1.3,0c0.3-0.2,0.6-0.4,0.8-0.8
			c0.2-0.5,0.2-0.9,0-1.2c-0.1-0.3-0.4-0.5-0.8-0.7l-2-0.8L86.2,18z"/>
		<path class="st1" d="M95.4,19.1l-2.2-1.3l0.6-1.1l5.6,3.3l-0.7,1.1l-2.2-1.3l-4.2,7.1l-1.2-0.7L95.4,19.1z"/>
		<path class="st1" d="M100.9,21.2l1.1,0.8l-5.7,7.7l-1.1-0.8L100.9,21.2z"/>
		<path class="st1" d="M104.3,23.7l4.3,4l-0.9,1l-3.3-3l-1.9,2.1l2.8,2.6l-0.9,0.9l-2.8-2.6l-2.8,3l-1-0.9L104.3,23.7z"/>
		<path class="st1" d="M110,29.3l0.9,1l-7.2,6.3l-0.9-1L110,29.3z"/>
		<path class="st1" d="M110.7,41.6c-0.8,0.3-1.6,0.4-2.3,0.2c-0.7-0.2-1.3-0.6-1.8-1.3c-0.4-0.6-0.6-1.2-0.6-1.8
			c0-0.6,0.1-1.1,0.3-1.5c0.1-0.1,0.2-0.3,0.2-0.4c0.1-0.1,0.2-0.3,0.3-0.4c0.3-0.3,0.9-0.7,1.8-1.3c0.9-0.6,1.5-1,1.9-1.2
			c0.3-0.2,0.7-0.2,0.9-0.3c0.5-0.1,1,0,1.6,0.2c0.6,0.2,1.1,0.6,1.5,1.2c0.5,0.7,0.7,1.5,0.6,2.2c-0.1,0.8-0.5,1.4-1,2l-0.8-1.2
			c0.2-0.3,0.4-0.7,0.4-1.1c0-0.4-0.1-0.8-0.3-1.2c-0.2-0.3-0.4-0.5-0.7-0.6c-0.2-0.1-0.5-0.2-0.7-0.2c-0.3,0-0.6,0-0.9,0.2
			c-0.3,0.1-0.9,0.5-1.6,1c-0.8,0.5-1.3,0.9-1.5,1.2c-0.2,0.2-0.4,0.5-0.5,0.8c-0.1,0.2-0.1,0.5-0.1,0.8c0,0.3,0.1,0.5,0.3,0.8
			c0.5,0.6,1.1,0.9,2.1,0.7L110.7,41.6z"/>
		<path class="st1" d="M112.9,47.2l-1.5-3.1l-2.2,0.3l-0.6-1.3l10-1.2l0.5,1.1l-7.1,7.2l-0.6-1.3L112.9,47.2z M113.9,46.2l3.2-3l0,0
			l-4.3,0.6L113.9,46.2z"/>
		<path class="st1" d="M120.2,48.9l-0.8-2.4l1.2-0.4l2,6.1l-1.2,0.4l-0.8-2.4l-7.8,2.6l-0.4-1.3L120.2,48.9z"/>
		<path class="st1" d="M123,54.1l0.3,1.4l-9.3,2.1l-0.3-1.4L123,54.1z"/>
	</g>
	<g>
		<path class="st1" d="M25.5,86.2l0.7,1.3l-5.4,5.2l0,0l7.4-1.5l0.7,1.3L19,94.3l-0.5-1L25.5,86.2z"/>
		<path class="st1" d="M29.3,93.3l3.5,4.7l-1.1,0.8L29,95.2l-2.2,1.6l2.3,3.1l-1,0.8l-2.3-3.1l-2.3,1.7l2.7,3.6l-1.1,0.8l-3.5-4.7
			L29.3,93.3z"/>
		<path class="st1" d="M33.7,99l2.6,2.5c0.5,0.5,0.9,1.1,0.9,1.8c0.1,0.7-0.2,1.4-0.8,2.1c-0.9,0.9-2,1.1-3.1,0.6l-1.4,4.5l-1.2-1.2
			l1.5-4.2l-1.3-1.2l-2.8,2.9l-1-1L33.7,99z M31.7,103l1.5,1.5c0.4,0.4,0.8,0.5,1.2,0.5c0.4,0,0.7-0.2,1-0.5
			c0.3-0.4,0.5-0.7,0.4-1.1c0-0.3-0.2-0.6-0.5-0.9l-1.6-1.5L31.7,103z"/>
		<path class="st1" d="M39.8,104.6l1.1,0.8l-5.7,7.6l-1.1-0.8L39.8,104.6z"/>
		<path class="st1" d="M43.5,108.7l-2.2-1.3l0.6-1.1l5.6,3.3l-0.6,1.1l-2.2-1.3l-4.2,7.1l-1.2-0.7L43.5,108.7z"/>
		<path class="st1" d="M49.1,118.3l-3.2-1.4l-1.5,1.7L43,118l6.8-7.5l1.1,0.5l-0.6,10.1l-1.4-0.6L49.1,118.3z M49.2,116.9l0.4-4.4
			l0,0l-2.8,3.3L49.2,116.9z M49.6,107.9l1.6,0.7l0.3,2.3l-1-0.4L49.6,107.9z"/>
		<path class="st1" d="M62.3,121.5l-3.5-0.5l-1,2l-1.5-0.2l4.7-9l1.2,0.2l2,9.9l-1.5-0.2L62.3,121.5z M62.1,120.2l-0.7-4.3l0,0
			l-1.9,3.9L62.1,120.2z"/>
		<path class="st1" d="M65.4,114.5l1.4,0l0.1,6.1c0,0.6,0.2,1.1,0.6,1.5c0.4,0.4,0.8,0.5,1.3,0.5c0.5,0,1-0.2,1.3-0.6
			c0.3-0.3,0.5-0.8,0.5-1.5l-0.1-6.1l1.4,0l0.1,6.3c0,1-0.3,1.8-0.9,2.4c-0.6,0.6-1.4,0.9-2.3,0.9c-0.9,0-1.7-0.3-2.3-0.9
			c-0.6-0.6-1-1.4-1-2.4L65.4,114.5z"/>
		<path class="st1" d="M75.8,115.1l-2.5,0.4l-0.2-1.3l6.4-1.1l0.2,1.3l-2.5,0.4l1.4,8.1l-1.4,0.2L75.8,115.1z"/>
		<path class="st1" d="M81.7,117.5c-0.4-1-0.6-1.8-0.6-2.1c-0.1-0.4-0.1-0.7,0-1c0.1-0.5,0.3-1,0.6-1.5c0.3-0.5,0.9-0.8,1.5-1.1
			c0.7-0.2,1.3-0.3,1.9-0.1c0.6,0.2,1,0.4,1.4,0.8c0.2,0.2,0.4,0.4,0.6,0.8c0.2,0.3,0.4,1,0.8,2.1c0.4,1,0.6,1.7,0.6,2.1
			c0.1,0.4,0.1,0.7,0,1c-0.1,0.5-0.3,1-0.6,1.4c-0.4,0.5-0.9,0.9-1.6,1.1c-0.7,0.2-1.3,0.2-1.9,0.1c-0.6-0.2-1-0.4-1.4-0.8
			c-0.1-0.1-0.2-0.2-0.3-0.3c-0.1-0.1-0.2-0.3-0.3-0.4C82.3,119.2,82.1,118.6,81.7,117.5z M83,117.1c0.3,0.9,0.5,1.5,0.7,1.8
			c0.2,0.3,0.4,0.5,0.6,0.6c0.2,0.1,0.4,0.2,0.7,0.3c0.3,0.1,0.6,0,0.9-0.1c0.3-0.1,0.6-0.3,0.8-0.5c0.2-0.2,0.3-0.4,0.4-0.6
			c0.1-0.3,0.1-0.5,0.1-0.9c0-0.3-0.2-0.9-0.5-1.8c-0.3-0.9-0.5-1.5-0.7-1.8c-0.2-0.3-0.4-0.5-0.6-0.6c-0.2-0.1-0.4-0.2-0.7-0.3
			c-0.3,0-0.6,0-0.9,0.1c-0.3,0.1-0.6,0.3-0.7,0.5c-0.2,0.2-0.3,0.4-0.4,0.7c-0.1,0.3-0.1,0.5-0.1,0.9
			C82.6,115.6,82.7,116.2,83,117.1z"/>
		<path class="st1" d="M87.8,110.3l1.2-0.7l3,5.4c0.3,0.6,0.7,0.9,1.2,1c0.5,0.1,1,0.1,1.4-0.2c0.5-0.3,0.8-0.6,0.9-1.1
			c0.1-0.5,0.1-1-0.3-1.6l-3-5.4l1.2-0.7l3,5.5c0.5,0.9,0.6,1.7,0.3,2.5c-0.2,0.8-0.8,1.5-1.6,1.9c-0.8,0.4-1.6,0.5-2.5,0.3
			c-0.8-0.2-1.5-0.7-2-1.6L87.8,110.3z"/>
		<path class="st1" d="M95.2,106l1-0.8l7.5,2.5l0,0l-4.3-5.2l1.1-0.9l6.1,7.3l-1,0.8l-7.5-2.5l0,0l4.3,5.2l-1.1,0.9L95.2,106z"/>
		<path class="st1" d="M102.2,99.8l0.9-1l7,6.4l-0.9,1L102.2,99.8z"/>
		<path class="st1" d="M113.8,96c0.6,0.7,0.9,1.4,1,2.1c0,0.7-0.2,1.5-0.6,2.1c-0.4,0.6-0.9,1-1.5,1.2c-0.6,0.2-1.1,0.3-1.6,0.2
			c-0.2,0-0.3-0.1-0.4-0.1c-0.1,0-0.3-0.1-0.5-0.2c-0.3-0.2-1-0.6-1.9-1.2c-0.9-0.6-1.5-1.1-1.8-1.4c-0.3-0.3-0.5-0.5-0.6-0.8
			c-0.2-0.4-0.3-1-0.3-1.6c0-0.6,0.2-1.2,0.6-1.8c0.5-0.7,1.2-1.2,1.9-1.3c0.8-0.1,1.5,0,2.2,0.3l-0.9,1.2c-0.4-0.1-0.8-0.2-1.2-0.1
			c-0.4,0.1-0.7,0.3-1,0.7c-0.2,0.3-0.3,0.5-0.3,0.8c0,0.3,0,0.5,0.1,0.8c0.1,0.3,0.2,0.5,0.4,0.8c0.2,0.3,0.7,0.7,1.5,1.2
			c0.8,0.5,1.3,0.9,1.6,1c0.3,0.1,0.6,0.2,0.9,0.2c0.2,0,0.5-0.1,0.7-0.2c0.3-0.1,0.5-0.3,0.7-0.6c0.5-0.6,0.4-1.4,0-2.2L113.8,96z"
			/>
		<path class="st1" d="M117.6,89.9L116,93l1.6,1.6l-0.6,1.3l-7.1-7.2l0.5-1.1l10,1.1l-0.6,1.3L117.6,89.9z M116.2,89.7l-4.3-0.6l0,0
			l3.2,3L116.2,89.7z"/>
	</g>
	<circle class="st1" cx="16.5" cy="74.2" r="2.3"/>
	<circle class="st1" cx="119.3" cy="74.2" r="2.3"/>
	<linearGradient id="SVGID_1_" gradientUnits="userSpaceOnUse" x1="45.1297" y1="67.4" x2="90.1703" y2="67.4">
		<stop  offset="0" style="stop-color:#E43562"/>
		<stop  offset="1" style="stop-color:#64257E"/>
	</linearGradient>
	<path class="st2" d="M74,45.8C62,42.3,49.5,49.2,46,61.1S49.4,85.5,61.3,89c11.9,3.5,24.4-3.4,27.9-15.3
		C92.7,61.8,85.9,49.3,74,45.8z M74,77.3l-6.4-16.5l-6.4,16.5h-6l9.6-22.9h5.8L80,77.3H74z"/>
	<line class="st0" x1="67.8" y1="35.3" x2="67.8" y2="31.4"/>
	<line class="st0" x1="84" y1="39.3" x2="85.8" y2="36.2"/>
	<line class="st0" x1="51.5" y1="39.3" x2="49.8" y2="36.2"/>
	<line class="st0" x1="103.8" y1="67.4" x2="100.2" y2="67.4"/>
	<line class="st0" x1="35.3" y1="67.4" x2="31.8" y2="67.4"/>
	<line class="st0" x1="98.9" y1="49.4" x2="95.9" y2="51.2"/>
	<line class="st0" x1="39.7" y1="51.2" x2="36.6" y2="49.4"/>
	<linearGradient id="SVGID_2_" gradientUnits="userSpaceOnUse" x1="51.2019" y1="99.4596" x2="67.1806" y2="99.4596">
		<stop  offset="0" style="stop-color:#E43562"/>
		<stop  offset="1" style="stop-color:#64257E"/>
	</linearGradient>
	<path class="st3" d="M61.1,92.4c-2.1-0.6-4-1.5-5.8-2.5l-4,15.6l6.7-2.3l5.2,5.9l4-15.6C65.2,93.3,63.1,93,61.1,92.4z"/>
	<linearGradient id="SVGID_3_" gradientUnits="userSpaceOnUse" x1="68.1081" y1="99.4596" x2="84.0863" y2="99.4596">
		<stop  offset="0" style="stop-color:#E43562"/>
		<stop  offset="1" style="stop-color:#64257E"/>
	</linearGradient>
	<path class="st4" d="M68.1,93.4l4,15.6l5.2-5.9l6.7,2.3l-4-15.6C76.5,92,72.4,93.2,68.1,93.4z"/>
</g>
</svg>
