<?xml version="1.0" encoding="utf-8"?>
<!-- Generator: Adobe Illustrator 22.0.1, SVG Export Plug-In . SVG Version: 6.00 Build 0)  -->
<svg version="1.1" id="Livello_1" xmlns="http://www.w3.org/2000/svg" xmlns:xlink="http://www.w3.org/1999/xlink" x="0px" y="0px"
	 width="135.3px" height="134.8px" viewBox="0 0 135.3 134.8" style="enable-background:new 0 0 135.3 134.8;" xml:space="preserve"
	>
<style type="text/css">
	.st0{fill:none;stroke:#969596;stroke-width:1.2083;stroke-miterlimit:10;}
</style>
<g>
	<path class="st0" d="M114.9,99c-9.5-17.1-27.8-28.8-48.8-28.8c-21,0-39.3,11.6-48.8,28.8"/>
	<line class="st0" x1="33.3" y1="125.9" x2="102" y2="125.9"/>
	<circle class="st0" cx="18.5" cy="116.4" r="17.4"/>
	<circle class="st0" cx="18.5" cy="116.4" r="10.5"/>
	<circle class="st0" cx="116.8" cy="116.4" r="17.4"/>
	<circle class="st0" cx="116.8" cy="116.4" r="10.5"/>
	<path class="st0" d="M66.4,92.5l-9,23.1h-8.5l13.4-32h8.1l13.4,32h-8.4L66.4,92.5z M66.4,92.5"/>
	<line class="st0" x1="33" y1="81.1" x2="29.3" y2="76.5"/>
	<circle class="st0" cx="29.6" cy="76.8" r="0.6"/>
	<line class="st0" x1="79" y1="50.7" x2="76.3" y2="64"/>
	<line class="st0" x1="54.4" y1="50.7" x2="57.1" y2="64"/>
	<line class="st0" x1="33" y1="56.8" x2="38.8" y2="69"/>
	<line class="st0" x1="14.4" y1="67.2" x2="23.3" y2="77.4"/>
	<line class="st0" x1="2.1" y1="82.8" x2="13.4" y2="90.3"/>
	<line class="st0" x1="99.8" y1="56.8" x2="93.9" y2="69"/>
	<line class="st0" x1="118.4" y1="67.2" x2="109.4" y2="77.4"/>
	<line class="st0" x1="130.7" y1="82.8" x2="119.3" y2="90.3"/>
</g>
</svg>
