<?xml version="1.0" encoding="utf-8"?>
<!-- Generator: Adobe Illustrator 22.0.1, SVG Export Plug-In . SVG Version: 6.00 Build 0)  -->
<svg version="1.1" id="Livello_1" xmlns="http://www.w3.org/2000/svg" xmlns:xlink="http://www.w3.org/1999/xlink" x="0px" y="0px"
	 viewBox="0 0 251 146.3" style="enable-background:new 0 0 251 146.3;" xml:space="preserve">
<style type="text/css">
	.st0{fill:#C9C9C9;}
	.st1{fill:none;stroke:#333333;stroke-width:0.8346;stroke-miterlimit:10;}
	.st2{fill:#FFFFFF;stroke:#333333;stroke-width:0.8346;stroke-miterlimit:10;}
</style>
<ellipse class="st0" cx="130.5" cy="138.8" rx="115.5" ry="2.2"/>
<g>
	<g>
		<path class="st1" d="M214.9,123.5c0-50.1-40.6-90.8-90.8-90.8s-90.8,40.6-90.8,90.7L214.9,123.5z"/>
		<circle class="st2" cx="46.4" cy="108" r="28.4"/>
		<circle class="st2" cx="46.4" cy="108" r="17"/>
		<circle class="st2" cx="206.6" cy="108" r="28.4"/>
		<circle class="st2" cx="206.6" cy="108" r="17"/>
	</g>
	<path class="st1" d="M85.6,6.4c-0.4-0.1-1.1-0.3-1.9-0.3c-0.8-0.1-1.9-0.2-2.9-0.1c-1.1,0.1-2.3,0.3-3.5,0.6
		c-1.2,0.3-2.5,0.9-3.8,1.5c-1.3,0.6-2.4,1.5-3.7,2.4c-1.2,0.9-2.2,2-3.2,3.1c-0.9,1.2-1.8,2.4-2.6,3.7c-0.7,1.3-1.4,2.7-1.8,4
		c-0.5,1.4-0.8,2.8-1,4.2c-0.5,2.8-0.3,5.5,0.1,7.9c0.2,1.2,0.5,2.3,0.9,3.3c0.3,1,0.8,1.9,1.1,2.6c0.1,0.3,0.3,0.7,0.5,0.9
		c0.1-0.4,0.2-0.9,0.4-1.4c0.7-2.5,1.8-5.9,3.2-9.1c0.7-1.6,1.5-3.2,2.3-4.6c0.4-0.7,0.9-1.4,1.3-2c0.4-0.6,0.9-1.2,1.3-1.7
		c0.4-0.5,0.8-0.9,1.2-1.3c0.3-0.4,0.7-0.7,1-0.9c0.6-0.5,0.9-0.8,0.9-0.8s-0.3,0.3-0.8,0.9c-0.2,0.3-0.6,0.6-0.9,1
		c-0.3,0.4-0.7,0.9-1.1,1.4c-0.3,0.5-0.7,1.1-1.1,1.8c-0.3,0.7-0.7,1.3-1.1,2c-0.7,1.5-1.4,3-1.9,4.7c-1.1,3.2-2,6.6-2.4,9.1
		c-0.1,0.7-0.2,1.3-0.3,1.9c0.4-0.2,0.9-0.4,1.4-0.7c0.7-0.4,1.5-0.8,2.3-1.4c0.8-0.5,1.7-1.1,2.6-1.8c0.9-0.7,1.8-1.4,2.6-2.2
		c0.9-0.8,1.7-1.6,2.5-2.4c0.8-0.9,1.5-1.8,2.2-2.7c0.7-1,1.3-1.9,1.9-2.9c1.1-1.9,2-4,2.6-6c0.3-1,0.6-2.1,0.8-3.1
		c0.2-1,0.4-2.1,0.6-3.1c0.2-1,0.3-2,0.5-3c0.1-1,0.3-1.9,0.4-2.6c0.1-0.7,0.2-1.4,0.2-1.9c0.1-0.5,0.1-0.7,0.1-0.7S86,6.5,85.6,6.4
		L85.6,6.4z M85.6,6.4"/>
	<path class="st1" d="M208.5,35.4c-0.3,0.1-0.8,0.2-1.3,0.5c-0.5,0.2-1.2,0.5-1.8,1c-0.6,0.4-1.3,1-1.9,1.6
		c-0.6,0.7-1.2,1.4-1.8,2.3c-0.6,0.8-1,1.8-1.4,2.7c-0.4,1-0.6,2-0.9,3.1c-0.2,1-0.3,2.1-0.3,3.2c0,1,0.1,2.1,0.3,3.1
		c0.2,1,0.5,2,0.9,2.9c0.7,1.8,1.8,3.5,2.9,4.8c0.6,0.6,1.1,1.2,1.7,1.7c0.5,0.5,1.1,0.9,1.6,1.2c0.2,0.2,0.4,0.3,0.6,0.4
		c-0.1-0.3-0.2-0.6-0.3-1c-0.5-1.8-1-4.2-1.3-6.7c-0.1-1.2-0.2-2.5-0.2-3.6c0-0.6,0.1-1.1,0.1-1.7c0.1-0.5,0.1-1,0.2-1.5
		c0.1-0.5,0.2-0.9,0.3-1.2c0.1-0.4,0.2-0.7,0.3-0.9c0.2-0.5,0.3-0.8,0.3-0.8s-0.1,0.3-0.2,0.8c-0.1,0.3-0.2,0.6-0.2,0.9
		c0,0.4-0.1,0.8-0.2,1.2c0,0.5,0,0.9-0.1,1.5c0,0.5,0,1.1,0.1,1.6c0.1,1.1,0.2,2.3,0.5,3.5c0.5,2.4,1.1,4.7,1.7,6.4
		c0.2,0.5,0.3,0.9,0.5,1.3c0.2-0.3,0.4-0.6,0.6-0.9c0.3-0.5,0.6-1,0.9-1.7c0.3-0.6,0.7-1.3,1-2c0.3-0.7,0.6-1.5,0.8-2.3
		c0.3-0.8,0.5-1.6,0.6-2.4c0.2-0.8,0.3-1.6,0.4-2.4c0.1-0.8,0.1-1.6,0.1-2.4c0-1.6-0.2-3.1-0.5-4.6c-0.1-0.7-0.4-1.5-0.6-2.2
		c-0.2-0.7-0.5-1.4-0.7-2.1c-0.2-0.7-0.5-1.3-0.8-2c-0.3-0.7-0.5-1.2-0.7-1.7c-0.2-0.5-0.4-0.9-0.5-1.2c-0.1-0.3-0.2-0.5-0.2-0.5
		S208.8,35.3,208.5,35.4L208.5,35.4z M208.5,35.4"/>
	<path class="st1" d="M15,50.6c0,0.3,0,0.8,0.2,1.4c0.1,0.6,0.2,1.3,0.5,2c0.3,0.7,0.7,1.5,1.2,2.3c0.5,0.8,1.1,1.5,1.8,2.2
		c0.7,0.7,1.5,1.3,2.4,2c0.9,0.6,1.8,1.1,2.8,1.5c1,0.4,2,0.7,3,1c1,0.2,2.1,0.4,3.1,0.4c1,0,2,0,3-0.2c2-0.3,3.8-0.9,5.3-1.7
		c0.8-0.4,1.4-0.8,2-1.3c0.6-0.4,1.1-0.9,1.5-1.3c0.2-0.2,0.4-0.4,0.5-0.5c-0.3,0-0.7,0-1,0c-1.9,0-4.3,0-6.8-0.3
		c-1.2-0.1-2.5-0.4-3.6-0.6c-0.6-0.2-1.1-0.3-1.6-0.5c-0.5-0.2-1-0.3-1.4-0.5c-0.4-0.2-0.8-0.4-1.1-0.5c-0.3-0.1-0.6-0.3-0.8-0.5
		c-0.5-0.3-0.7-0.4-0.7-0.4s0.3,0.1,0.8,0.4c0.2,0.1,0.5,0.3,0.9,0.4c0.3,0.1,0.7,0.3,1.2,0.4c0.4,0.1,0.9,0.2,1.4,0.4
		c0.5,0.1,1,0.2,1.6,0.3c1.1,0.2,2.3,0.3,3.5,0.3c2.4,0.1,4.8,0,6.6-0.2c0.5-0.1,1-0.1,1.4-0.2c-0.2-0.2-0.5-0.5-0.8-0.8
		c-0.4-0.4-0.9-0.9-1.4-1.3c-0.5-0.5-1.1-0.9-1.8-1.4c-0.6-0.5-1.3-0.9-2-1.3c-0.7-0.4-1.4-0.8-2.2-1.2c-0.8-0.3-1.5-0.7-2.3-0.9
		c-0.8-0.2-1.5-0.5-2.3-0.7c-1.5-0.3-3.1-0.5-4.6-0.5c-0.7,0-1.5,0-2.3,0.1c-0.7,0-1.5,0.2-2.2,0.2c-0.7,0.1-1.4,0.2-2.1,0.3
		c-0.7,0.1-1.3,0.2-1.8,0.3c-0.5,0.1-1,0.2-1.3,0.2C15.2,50,15,50,15,50S15,50.2,15,50.6L15,50.6z M15,50.6"/>
	<path class="st1" d="M235.7,56.9c-0.2-0.2-0.6-0.5-1.1-0.8c-0.5-0.3-1.2-0.7-1.9-0.9c-0.7-0.2-1.5-0.4-2.5-0.6
		c-0.9-0.1-1.8-0.1-2.9-0.1c-1,0-2,0.3-3,0.5c-1,0.3-2,0.7-3,1.1c-0.9,0.5-1.9,1-2.7,1.7c-0.8,0.7-1.6,1.3-2.3,2.1
		c-0.7,0.8-1.3,1.6-1.8,2.4c-1.1,1.7-1.8,3.5-2.2,5.1c-0.2,0.8-0.3,1.6-0.4,2.4c-0.1,0.7,0,1.4,0,2c0,0.3,0,0.5,0.1,0.7
		c0.2-0.2,0.4-0.5,0.6-0.8c1.2-1.4,2.8-3.3,4.7-5c0.9-0.8,1.9-1.6,2.8-2.3c0.5-0.3,1-0.6,1.4-0.9c0.5-0.3,0.9-0.5,1.3-0.7
		c0.4-0.2,0.8-0.4,1.2-0.5c0.3-0.2,0.7-0.2,0.9-0.3c0.5-0.2,0.8-0.3,0.8-0.3s-0.3,0.1-0.8,0.3c-0.2,0.1-0.6,0.2-0.9,0.4
		c-0.3,0.2-0.7,0.4-1.1,0.6c-0.4,0.3-0.8,0.5-1.2,0.8c-0.4,0.3-0.8,0.7-1.3,1c-0.9,0.7-1.7,1.6-2.6,2.5c-1.7,1.8-3.1,3.7-4.2,5.2
		c-0.3,0.4-0.5,0.8-0.8,1.1c0.3,0,0.7,0,1.1-0.1c0.5-0.1,1.2-0.1,1.9-0.2c0.7-0.1,1.4-0.2,2.2-0.4c0.8-0.2,1.5-0.4,2.3-0.6
		c0.8-0.2,1.5-0.6,2.3-0.9c0.7-0.4,1.5-0.7,2.2-1.1c0.7-0.4,1.4-0.8,2-1.3c1.3-0.9,2.4-2,3.4-3.2c0.5-0.5,1-1.2,1.4-1.8
		c0.4-0.6,0.9-1.2,1.3-1.8c0.4-0.6,0.8-1.2,1.1-1.8c0.4-0.6,0.7-1.1,1-1.6c0.3-0.4,0.5-0.9,0.7-1.2c0.2-0.3,0.3-0.5,0.3-0.5
		S235.9,57.1,235.7,56.9L235.7,56.9z M235.7,56.9"/>
	<path class="st1" d="M9.4,24.4C9.1,24.5,9,24.6,9,24.6s0,0.1,0.1,0.4c0.1,0.3,0.2,0.7,0.3,1.1c0.1,0.4,0.3,0.9,0.5,1.5
		c0.2,0.5,0.3,1.1,0.5,1.7c0.2,0.6,0.4,1.2,0.6,1.7c0.2,0.6,0.5,1.2,0.8,1.7c0.6,1.1,1.3,2.2,2.1,3.3c0.4,0.5,0.9,1,1.3,1.5
		c0.5,0.5,1,0.9,1.5,1.4c0.5,0.4,1.1,0.8,1.7,1.2c0.6,0.4,1.2,0.7,1.7,1c0.6,0.3,1.2,0.6,1.7,0.8c0.5,0.2,1.1,0.4,1.5,0.6
		c0.3,0.1,0.6,0.2,0.9,0.3c-0.1-0.3-0.2-0.7-0.4-1.1c-0.5-1.4-1.3-3.3-2.3-5.1c-0.5-0.9-1-1.7-1.6-2.5c-0.3-0.4-0.6-0.7-0.8-1.1
		c-0.3-0.3-0.6-0.6-0.8-0.9c-0.3-0.3-0.5-0.5-0.8-0.7c-0.2-0.2-0.4-0.4-0.6-0.5c-0.4-0.3-0.6-0.4-0.6-0.4s0.2,0.1,0.6,0.4
		c0.2,0.1,0.4,0.3,0.7,0.5c0.2,0.2,0.5,0.4,0.8,0.7c0.3,0.3,0.6,0.6,0.9,0.9c0.3,0.3,0.6,0.7,0.9,1c0.6,0.7,1.2,1.6,1.8,2.4
		c1.1,1.7,2.1,3.6,2.7,5c0.1,0.3,0.2,0.5,0.4,0.8c0.1-0.2,0.1-0.4,0.2-0.6c0.1-0.5,0.3-1,0.4-1.6c0.1-0.6,0.2-1.3,0.2-2
		c0-1.4-0.1-3-0.7-4.6c-0.2-0.8-0.6-1.6-1-2.3c-0.4-0.8-0.9-1.5-1.4-2.2c-0.6-0.7-1.2-1.3-1.8-1.9c-0.7-0.6-1.4-1.1-2.2-1.5
		c-0.8-0.4-1.5-0.8-2.3-1c-0.8-0.2-1.6-0.4-2.3-0.5c-0.8-0.1-1.5-0.1-2.1,0c-0.6,0-1.2,0.2-1.7,0.3C10,24.1,9.6,24.3,9.4,24.4
		L9.4,24.4z M9.4,24.4"/>
	<path class="st1" d="M57.7,33.4c-1.6-0.7-3.1-1.5-4.6-2.3c-0.7-0.4-1.4-0.9-2-1.3c-0.6-0.4-1.2-0.9-1.7-1.3
		c-0.5-0.4-0.9-0.8-1.3-1.2c-0.4-0.3-0.7-0.7-0.9-1c-0.5-0.6-0.8-0.9-0.8-0.9s0.3,0.3,0.9,0.8c0.3,0.3,0.6,0.6,1,0.9
		c0.4,0.3,0.9,0.7,1.4,1.1c0.6,0.3,1.1,0.7,1.8,1.1c0.7,0.3,1.3,0.7,2,1.1c1.5,0.7,3,1.4,4.7,1.9c0.7,0.2,1.3,0.4,2,0.6
		c-0.4-3.3-0.4-6.6,0-9.7c-0.7-0.6-1.4-1.2-2.2-1.8c-1-0.7-1.9-1.3-2.9-1.8c-1.9-1.1-4-2-6-2.6c-1-0.4-2.1-0.6-3.1-0.8
		c-1-0.2-2.1-0.4-3.1-0.6c-1-0.2-2-0.3-3-0.5c-1-0.2-1.9-0.3-2.6-0.4c-0.7-0.1-1.5-0.2-1.9-0.2c-0.5,0-0.7-0.1-0.7-0.1
		s-0.1,0.3-0.2,0.7c-0.1,0.4-0.3,1.1-0.3,1.9C34,17.9,33.8,19,34,20c0.1,1.1,0.3,2.3,0.6,3.5c0.3,1.2,0.9,2.5,1.5,3.8
		c0.6,1.3,1.5,2.4,2.4,3.7c0.9,1.2,2,2.2,3.1,3.2c1.2,1,2.4,1.8,3.7,2.6c1.3,0.7,2.7,1.4,4,1.8c1.4,0.5,2.8,0.9,4.2,1
		c2.8,0.5,5.5,0.3,7.9-0.1c0.1,0,0.2,0,0.3-0.1c-0.6-1.6-1-3.3-1.3-5C59.4,34.2,58.6,33.8,57.7,33.4L57.7,33.4z M57.7,33.4"/>
</g>
</svg>
