<?xml version="1.0" encoding="utf-8"?>
<!-- Generator: Adobe Illustrator 22.0.1, SVG Export Plug-In . SVG Version: 6.00 Build 0)  -->
<svg version="1.1" id="Livello_1" xmlns="http://www.w3.org/2000/svg" xmlns:xlink="http://www.w3.org/1999/xlink" x="0px" y="0px"
	 viewBox="0 0 135.3 134.8" style="enable-background:new 0 0 135.3 134.8;" xml:space="preserve">
<style type="text/css">
	.st0{fill:#666666;}
	.st1{fill:none;stroke:#666666;stroke-width:0.9947;stroke-miterlimit:10;}
</style>
<g>
	<g>
		<g>
			<path class="st0" d="M45.3,64.2h2.4c2.4,0,4.2-0.7,5.6-2.1c1.3-1.3,2-3,2-5.2c-0.1-2.2-0.7-3.9-2.1-5.3c-1.3-1.3-3-2-5.1-2.1
				c-1.5,0-2.8,0.5-4.1,1.5c-1.3,1-2.2,2.6-2.6,4.7h-7c0.3-3.7,1.8-6.9,4.4-9.5c2.5-2.5,5.5-3.8,9.1-3.9c4.5,0.1,8,1.6,10.6,4.4
				c2.5,2.8,3.8,6.1,3.8,10c0,2-0.3,3.8-1,5.6c-0.8,1.8-2.2,3.4-4.3,4.8c2.2,1.4,3.6,3,4.6,5c0.9,2,1.4,4,1.4,6.1
				c-0.1,4.7-1.5,8.4-4.2,11.2c-2.8,2.8-6.3,4.2-10.6,4.2c-3.4,0-6.3-1.1-8.9-3.4c-2.6-2.2-4.2-5.4-5-9.7h7c0.6,1.7,1.6,3,2.7,4.1
				c1.1,1.1,2.7,1.6,4.7,1.6c2.1,0,3.8-0.7,5.2-2.2c1.5-1.4,2.2-3.3,2.2-5.9c-0.1-2.6-0.8-4.6-2.2-5.9c-1.4-1.4-3.2-2.1-5.3-2.1h-3
				V64.2z"/>
			<path class="st0" d="M71.5,57c0.1-4.7,1.5-8.3,4.3-10.8c2.7-2.5,5.9-3.7,9.6-3.7c3.3,0,6.3,0.9,8.9,2.9c2.5,2,4.1,4.8,4.8,8.5
				h-7.2c-1.1-2.8-3.3-4.2-6.5-4.2c-4.5,0.1-6.8,2.7-6.9,7.8v4.7c3.4-1.1,6.5-1.6,9.4-1.6c3.2,0,5.9,1.1,8.2,3.4
				c2.2,2.2,3.3,5.9,3.2,10.7v4.6c-0.1,4.7-1.5,8.2-4.2,10.8c-2.7,2.5-5.9,3.8-9.7,3.8c-3.7-0.1-6.9-1.3-9.6-3.8
				c-2.8-2.5-4.3-6.1-4.3-10.7L71.5,57L71.5,57z M78.4,78.9c0.1,5.1,2.4,7.7,6.9,7.8c4.5-0.1,6.8-2.6,6.9-7.8v-4.1
				c-0.2-5.1-2.4-7.7-6.9-7.8c-4.5,0.1-6.8,2.7-6.9,7.8V78.9z"/>
		</g>
		<path class="st1" d="M12.3,29.9C24,12.4,44.7,1,67.4,1c36.6,0,66.4,29.8,66.4,66.4s-29.5,66.4-66,66.4S1.5,104.6,1.5,67.9
			c0-6.6,0.9-12.4,2.8-18.2"/>
		<polyline class="st1" points="29.7,30.2 11.3,30.2 11.3,11.7 		"/>
	</g>
	<g>
		<path class="st0" d="M72.4,102.2h1.2l2.4,5.6l2.3-5.6h1.2v8.6h-1.3v-5.4l0,0l-1.7,4.1h-1l-1.7-4.1l0,0v5.4h-1.3L72.4,102.2
			L72.4,102.2z"/>
		<path class="st0" d="M81.9,102.2h5.3v1.2h-4.1v2.5h3.4v1.1h-3.4v2.6h4.1v1.2h-5.3V102.2z"/>
		<path class="st0" d="M89,108.7c0.7,0.6,1.5,0.9,2.4,0.9c1.1,0,1.6-0.4,1.6-1.2c0-0.6-0.3-1-1.1-1.1c-0.3-0.1-0.7-0.1-1.1-0.2
			c-0.7-0.1-1.3-0.4-1.6-0.9c-0.3-0.4-0.6-0.9-0.6-1.6c0-0.8,0.3-1.4,0.7-1.8s1.1-0.7,2-0.7c1,0,2,0.3,2.7,0.9l-0.7,1
			c-0.6-0.4-1.3-0.7-2.1-0.7c-0.4,0-0.7,0.1-0.9,0.3c-0.3,0.2-0.4,0.5-0.4,0.9c0,0.3,0.1,0.5,0.3,0.7c0.2,0.2,0.5,0.3,0.9,0.4
			c0.3,0,0.5,0.1,0.9,0.2c0.8,0.1,1.4,0.4,1.7,0.9s0.5,1,0.5,1.6c0,1.6-1,2.5-2.9,2.5c-1.2,0-2.3-0.4-3.2-1.2L89,108.7z"/>
		<path class="st0" d="M96,102.2h1.3v8.6H96V102.2z"/>
	</g>
</g>
</svg>
