<?xml version="1.0" encoding="utf-8"?>
<!-- Generator: Adobe Illustrator 22.0.1, SVG Export Plug-In . SVG Version: 6.00 Build 0)  -->
<svg version="1.1" id="Livello_1" xmlns="http://www.w3.org/2000/svg" xmlns:xlink="http://www.w3.org/1999/xlink" x="0px" y="0px"
	 width="600px" height="200px" viewBox="0 0 600 200" style="enable-background:new 0 0 600 200;" xml:space="preserve">
<style type="text/css">
	.st0{display:none;}
	.st1{display:inline;}
	.st2{fill:#FFFFFF;stroke:#333333;stroke-width:0.8346;stroke-miterlimit:10;}
	.st3{display:inline;fill:#FFFFFF;stroke:#333333;stroke-width:0.8346;stroke-miterlimit:10;}
	.st4{display:inline;fill:none;stroke:#333333;stroke-width:0.6955;stroke-miterlimit:10;}
	.st5{display:inline;fill:#FFFFFF;stroke:#333333;stroke-width:0.6955;stroke-miterlimit:10;}
	.st6{display:inline;fill:#112E50;}
	.st7{display:inline;fill:url(#SVGID_1_);}
	.st8{display:inline;fill:#FFFFFF;}
	.st9{display:inline;fill:#E3E3E3;}
	.st10{fill:#1D1D1B;}
	.st11{fill:url(#SVGID_2_);}
	.st12{fill:url(#SVGID_3_);}
	.st13{fill:url(#SVGID_4_);}
</style>
<g class="st0">
	<g class="st1">
		<path class="st2" d="M85.2,156c0-72-58.3-130.6-130.6-130.6s-130.8,58.3-130.8,130.4L85.2,156z"/>
		<circle class="st2" cx="-157.2" cy="133.8" r="40.8"/>
		<ellipse class="st2" cx="-157.2" cy="133.8" rx="24.5" ry="24.5"/>
		<ellipse class="st2" cx="73.1" cy="133.8" rx="40.8" ry="40.8"/>
		<circle class="st2" cx="73.1" cy="133.8" r="24.5"/>
	</g>
	<path class="st3" d="M-45,77.6l-20.9,54.3h-19.9l31.3-75h19l31.3,75h-19.9L-45,77.6z"/>
	<line class="st4" x1="-123.2" y1="51" x2="-132" y2="40"/>
	<circle class="st5" cx="-131.2" cy="40.8" r="1.5"/>
</g>
<g class="st0">
	<path class="st6" d="M349.6,25.4c-41.2,0-74.6,33.4-74.6,74.6s33.4,74.6,74.6,74.6s74.6-33.4,74.6-74.6S390.7,25.4,349.6,25.4z
		 M349.6,140.2c-22.2,0-40.2-18-40.2-40.2s18-40.2,40.2-40.2s40.2,18,40.2,40.2S371.8,140.2,349.6,140.2z"/>
	
		<linearGradient id="SVGID_1_" gradientUnits="userSpaceOnUse" x1="847.1173" y1="-1337.8485" x2="897.5891" y2="-1337.8485" gradientTransform="matrix(0.96 0.28 0.28 -0.96 -113.3039 -1428.6058)">
		<stop  offset="0" style="stop-color:#E43562"/>
		<stop  offset="1" style="stop-color:#662480"/>
	</linearGradient>
	<circle class="st7" cx="349.6" cy="100" r="25.2"/>
</g>
<g class="st0">
	<path class="st8" d="M275.1,26.2v72.2c0,40.6,64.3,73.5,73.9,73.5c8,0,73.9-32.9,73.9-73.5V26.2H275.1z"/>
	<path class="st9" d="M350.7,70.9l-18.6,48h-17.6l27.8-66.5H359l27.8,66.5h-17.5L350.7,70.9z"/>
</g>
<g>
	<g>
		<path class="st10" d="M423,79.5l0.6-1.9l6.6,2.1l0,0l-4.9-7.2l0.7-2.2l3.8,5.6l9.1-1.9l-0.7,2.2l-7.3,1.4l1.7,2.9l3.9,1.3
			l-0.6,1.9L423,79.5z"/>
		<path class="st10" d="M427.5,67.2l0.8-1.8l12.2,5.6l-0.8,1.8L427.5,67.2z"/>
		<path class="st10" d="M430,61.8l1-1.7l9.8,6l3.3-5.4l1.6,1l-4.3,7.1L430,61.8z"/>
		<path class="st10" d="M441.4,56.3c-1.2-1-2-1.7-2.3-2.1c-0.3-0.4-0.6-0.8-0.7-1.2c-0.3-0.6-0.4-1.4-0.3-2.2
			c0.1-0.8,0.4-1.6,1.1-2.4c0.7-0.8,1.4-1.3,2.2-1.5c0.8-0.2,1.6-0.2,2.2-0.1c0.4,0,0.8,0.2,1.3,0.5c0.5,0.3,1.3,0.9,2.5,1.9
			c1.2,1,1.9,1.7,2.3,2.1c0.4,0.4,0.6,0.8,0.7,1.2c0.3,0.6,0.4,1.4,0.3,2.2c-0.1,0.8-0.4,1.7-1.1,2.5c-0.7,0.8-1.4,1.2-2.2,1.4
			c-0.8,0.2-1.6,0.3-2.2,0.1c-0.2-0.1-0.4-0.1-0.6-0.2c-0.2-0.1-0.4-0.2-0.7-0.3C443.4,57.9,442.6,57.2,441.4,56.3z M442.7,54.8
			c1,0.9,1.7,1.4,2.1,1.6c0.4,0.2,0.8,0.4,1.2,0.3c0.3,0,0.7,0,1-0.2c0.4-0.1,0.7-0.4,1-0.7c0.3-0.4,0.5-0.7,0.6-1.1
			c0.1-0.4,0.1-0.7,0-1c-0.1-0.4-0.2-0.8-0.5-1.1c-0.3-0.4-1-1-2-1.8c-1-0.9-1.7-1.4-2.1-1.6c-0.4-0.2-0.8-0.3-1.2-0.3
			c-0.3,0-0.7,0-1,0.2c-0.4,0.1-0.7,0.4-1,0.7c-0.3,0.4-0.5,0.7-0.6,1.1c-0.1,0.4-0.1,0.7,0,1.1c0.1,0.4,0.2,0.8,0.5,1.1
			C441,53.3,441.7,53.9,442.7,54.8z"/>
		<path class="st10" d="M445.5,41.6l1.4-1.2l8.4,4.4l-2.7-9.1l1.4-1.2l8.5,10.4l-1.5,1.2l-5.3-6.5l0,0l2,6.7l-1.3,1l-6.2-3.3l0,0
			l5.3,6.5l-1.5,1.2L445.5,41.6z"/>
		<path class="st10" d="M458.3,31.9l7.3-4l0.9,1.7l-5.5,3.1l1.9,3.4l4.7-2.6l0.9,1.6l-4.7,2.6l1.9,3.5l5.5-3.1l0.9,1.7l-7.3,4
			L458.3,31.9z"/>
		<path class="st10" d="M471.6,27.3l-3.3,1.3l-0.6-1.7l8.5-3.2l0.6,1.7l-3.3,1.3l4.1,10.8l-1.8,0.7L471.6,27.3z"/>
		<path class="st10" d="M479.2,22.7l5-1.1c1.1-0.2,2-0.1,2.8,0.3c0.9,0.5,1.6,1.3,1.9,2.5c0.4,1.8-0.2,3.2-1.7,4.2l4.2,5.2l-2.3,0.5
			l-3.8-5l-2.5,0.5l1.2,5.6l-1.9,0.4L479.2,22.7z M482.4,28l2.9-0.6c0.7-0.2,1.2-0.5,1.5-1c0.3-0.5,0.3-1,0.2-1.6
			c-0.2-0.7-0.5-1.1-1-1.3c-0.4-0.2-0.9-0.2-1.5-0.1l-3,0.7L482.4,28z"/>
		<path class="st10" d="M491.7,20.5l2-0.2l1.3,13.3l-2,0.2L491.7,20.5z"/>
		<path class="st10" d="M510.8,30.3c-0.4,1.2-1,2.1-1.9,2.7c-0.9,0.6-1.9,0.8-3,0.8c-1-0.1-1.8-0.4-2.5-1c-0.7-0.5-1.1-1.1-1.4-1.8
			c-0.1-0.2-0.1-0.4-0.2-0.6c-0.1-0.2-0.1-0.4-0.1-0.7c0-0.5,0-1.6,0.1-3.1c0.1-1.6,0.3-2.6,0.4-3.1c0.1-0.5,0.3-0.9,0.5-1.2
			c0.4-0.6,0.9-1.1,1.6-1.5c0.7-0.4,1.6-0.6,2.6-0.5c1.2,0.1,2.2,0.6,3,1.4c0.7,0.8,1.1,1.8,1.3,2.9l-2.1-0.2
			c-0.1-0.6-0.4-1-0.8-1.4c-0.4-0.4-0.9-0.6-1.6-0.7c-0.5,0-0.9,0-1.2,0.2c-0.4,0.2-0.6,0.4-0.9,0.6c-0.3,0.3-0.5,0.6-0.6,1.1
			c-0.1,0.5-0.3,1.4-0.4,2.7c-0.1,1.3-0.1,2.2-0.1,2.7c0,0.5,0.2,0.9,0.4,1.2c0.2,0.3,0.4,0.5,0.8,0.7c0.3,0.2,0.7,0.4,1.2,0.4
			c1.1,0.1,2-0.5,2.6-1.6L510.8,30.3z"/>
		<path class="st10" d="M514.7,21.2l8.1,1.9l-0.4,1.9l-6.2-1.4l-0.9,3.7l5.3,1.2l-0.4,1.8l-5.3-1.2l-0.9,3.8l6.2,1.4l-0.4,1.9
			l-8.1-1.9L514.7,21.2z"/>
		<path class="st10" d="M526.5,24.3l4.7,1.9c1,0.4,1.7,1,2.1,1.8c0.5,0.9,0.5,2,0.1,3.1c-0.7,1.7-2,2.5-3.7,2.5l0.5,6.6l-2.2-0.9
			l-0.3-6.3l-2.3-1l-2.2,5.3l-1.8-0.7L526.5,24.3z M526.1,30.5l2.8,1.1c0.7,0.3,1.3,0.3,1.8,0c0.5-0.2,0.8-0.6,1.1-1.2
			c0.3-0.7,0.2-1.2,0-1.7c-0.2-0.4-0.6-0.7-1.2-0.9l-2.9-1.2L526.1,30.5z"/>
		<path class="st10" d="M539,32.1l-3.1-1.8l0.9-1.6l7.8,4.6l-0.9,1.6l-3.1-1.8l-5.9,10l-1.7-1L539,32.1z"/>
		<path class="st10" d="M546.9,35l1.6,1.2l-8,10.8l-1.6-1.2L546.9,35z"/>
		<path class="st10" d="M551.6,38.6l6.1,5.6l-1.3,1.4l-4.7-4.3l-2.7,2.9l4,3.7l-1.2,1.3l-4-3.7l-3.9,4.2l-1.4-1.3L551.6,38.6z"/>
		<path class="st10" d="M559.6,46.4l1.3,1.5l-10.1,8.8l-1.3-1.5L559.6,46.4z"/>
		<path class="st10" d="M560.6,63.7c-1.2,0.5-2.3,0.6-3.3,0.3c-1-0.3-1.8-0.9-2.5-1.8c-0.6-0.9-0.8-1.7-0.8-2.5
			c0-0.8,0.1-1.6,0.5-2.2c0.1-0.2,0.2-0.4,0.3-0.5c0.1-0.2,0.3-0.4,0.5-0.6c0.4-0.4,1.2-1,2.5-1.9c1.3-0.9,2.2-1.5,2.6-1.7
			c0.5-0.2,0.9-0.3,1.3-0.4c0.7-0.1,1.4,0,2.2,0.3c0.8,0.3,1.5,0.8,2.1,1.7c0.7,1,1,2.1,0.8,3.2c-0.2,1.1-0.7,2-1.5,2.8l-1.2-1.7
			c0.4-0.4,0.6-0.9,0.6-1.5c0-0.6-0.1-1.1-0.5-1.6c-0.3-0.4-0.6-0.6-0.9-0.8c-0.3-0.2-0.7-0.3-1-0.3c-0.4,0-0.8,0-1.2,0.2
			c-0.4,0.2-1.2,0.7-2.3,1.4c-1.1,0.8-1.8,1.3-2.1,1.7c-0.3,0.3-0.5,0.7-0.6,1.1c-0.1,0.3-0.1,0.7-0.1,1.1c0,0.4,0.2,0.8,0.4,1.2
			c0.6,0.9,1.6,1.2,2.9,1L560.6,63.7z"/>
		<path class="st10" d="M563.7,71.6l-2.2-4.4l-3.1,0.4l-0.9-1.9l14.1-1.6l0.7,1.5l-10,10.1l-0.9-1.9L563.7,71.6z M565.1,70.3
			l4.5-4.3l0,0l-6.1,0.9L565.1,70.3z"/>
		<path class="st10" d="M573.9,74.1l-1.1-3.4l1.7-0.6l2.9,8.6l-1.7,0.6l-1.1-3.4l-11,3.7l-0.6-1.9L573.9,74.1z"/>
		<path class="st10" d="M577.9,81.4l0.4,1.9l-13.1,2.9l-0.4-1.9L577.9,81.4z"/>
	</g>
	<g>
		<path class="st10" d="M440.5,126.5l1,1.8l-7.7,7.3l0,0l10.4-2.1l1,1.8l-13.9,2.4l-0.7-1.4L440.5,126.5z"/>
		<path class="st10" d="M445.8,136.4l4.9,6.7l-1.5,1.1l-3.8-5.1l-3.1,2.3l3.2,4.4l-1.5,1.1l-3.2-4.4l-3.2,2.3l3.8,5.1l-1.5,1.1
			l-4.9-6.7L445.8,136.4z"/>
		<path class="st10" d="M452,144.5l3.6,3.5c0.8,0.8,1.2,1.6,1.3,2.5c0.1,1.1-0.2,2-1.1,2.9c-1.3,1.3-2.8,1.6-4.4,0.9l-2,6.4
			l-1.7-1.6l2.1-6l-1.8-1.8l-4,4.1l-1.4-1.4L452,144.5z M449.3,150.1l2.1,2.1c0.5,0.5,1.1,0.7,1.7,0.7c0.5,0,1-0.3,1.4-0.7
			c0.5-0.5,0.7-1,0.6-1.5c0-0.4-0.3-0.9-0.7-1.3l-2.2-2.2L449.3,150.1z"/>
		<path class="st10" d="M460.7,152.4l1.6,1.2l-8.1,10.7l-1.6-1.2L460.7,152.4z"/>
		<path class="st10" d="M465.8,158.2l-3.1-1.8l0.9-1.6l7.8,4.6l-0.9,1.6l-3.1-1.8l-5.9,10l-1.7-1L465.8,158.2z"/>
		<path class="st10" d="M473.7,171.6l-4.5-1.9l-2.1,2.4l-1.9-0.8l9.5-10.5l1.5,0.6l-0.8,14.2l-1.9-0.8L473.7,171.6z M473.8,169.8
			l0.5-6.1l0,0l-4,4.7L473.8,169.8z M474.4,157l2.3,0.9l0.5,3.2l-1.4-0.6L474.4,157z"/>
		<path class="st10" d="M492.3,176.2l-4.9-0.7l-1.4,2.8l-2.1-0.3l6.6-12.6l1.6,0.2l2.8,13.9l-2.1-0.3L492.3,176.2z M492,174.3
			l-1-6.1l0,0l-2.7,5.5L492,174.3z"/>
		<path class="st10" d="M496.6,166.3l2,0l0.1,8.7c0,0.9,0.3,1.6,0.8,2.1c0.5,0.5,1.1,0.7,1.9,0.7c0.8,0,1.4-0.3,1.9-0.8
			c0.5-0.5,0.7-1.2,0.7-2.1l-0.1-8.7l2,0l0.1,8.9c0,1.4-0.4,2.5-1.3,3.4c-0.9,0.9-2,1.3-3.3,1.3c-1.3,0-2.4-0.4-3.3-1.3
			c-0.9-0.8-1.4-1.9-1.4-3.3L496.6,166.3z"/>
		<path class="st10" d="M511.3,167.2l-3.5,0.6l-0.3-1.8l9-1.5l0.3,1.8l-3.5,0.6l2,11.4l-1.9,0.3L511.3,167.2z"/>
		<path class="st10" d="M519.6,170.6c-0.5-1.5-0.8-2.5-0.9-3c-0.1-0.5-0.1-1,0-1.4c0.1-0.7,0.4-1.4,0.9-2c0.5-0.7,1.2-1.2,2.2-1.5
			c1-0.3,1.9-0.4,2.7-0.1c0.8,0.2,1.4,0.6,1.9,1.1c0.3,0.2,0.6,0.6,0.8,1.1c0.2,0.5,0.6,1.4,1.1,2.9c0.5,1.5,0.8,2.4,0.9,3
			c0.1,0.5,0.1,1,0,1.4c-0.1,0.7-0.4,1.4-0.9,2c-0.5,0.7-1.2,1.2-2.2,1.6c-1,0.3-1.9,0.3-2.7,0.1c-0.8-0.2-1.5-0.6-2-1.1
			c-0.2-0.2-0.3-0.3-0.4-0.5c-0.1-0.2-0.3-0.4-0.4-0.6C520.5,173,520.1,172.1,519.6,170.6z M521.5,170c0.4,1.3,0.8,2.1,1,2.5
			c0.2,0.4,0.5,0.7,0.8,0.9c0.3,0.2,0.6,0.3,1,0.4c0.4,0.1,0.8,0.1,1.2-0.1c0.4-0.2,0.8-0.4,1.1-0.7c0.3-0.3,0.4-0.6,0.5-0.9
			c0.1-0.4,0.2-0.8,0.1-1.2c-0.1-0.5-0.3-1.3-0.7-2.6c-0.4-1.3-0.8-2.1-1-2.5c-0.2-0.4-0.5-0.7-0.9-0.9c-0.3-0.2-0.6-0.3-1-0.4
			c-0.4-0.1-0.8,0-1.2,0.1c-0.4,0.2-0.8,0.4-1,0.7c-0.3,0.3-0.4,0.6-0.6,0.9c-0.1,0.4-0.2,0.8-0.1,1.2
			C520.8,167.9,521,168.7,521.5,170z"/>
		<path class="st10" d="M528.1,160.5l1.7-0.9l4.2,7.6c0.5,0.8,1,1.3,1.7,1.5c0.7,0.2,1.3,0.1,2-0.2c0.7-0.4,1.1-0.9,1.3-1.6
			c0.2-0.7,0.1-1.4-0.3-2.2l-4.2-7.6l1.7-0.9l4.3,7.8c0.7,1.2,0.8,2.4,0.5,3.6c-0.4,1.2-1.1,2.1-2.3,2.7c-1.1,0.6-2.3,0.8-3.5,0.4
			c-1.2-0.3-2.1-1.1-2.8-2.3L528.1,160.5z"/>
		<path class="st10" d="M538.6,154.5l1.4-1.2l10.6,3.6l0,0l-6.1-7.3l1.5-1.3l8.5,10.3l-1.4,1.2l-10.6-3.6l0,0l6.1,7.3l-1.5,1.3
			L538.6,154.5z"/>
		<path class="st10" d="M548.4,145.8l1.3-1.4l9.9,9.1l-1.3,1.4L548.4,145.8z"/>
		<path class="st10" d="M564.8,140.4c0.8,1,1.3,2,1.4,3c0.1,1.1-0.2,2-0.9,3c-0.6,0.8-1.3,1.4-2.1,1.6c-0.8,0.3-1.5,0.4-2.2,0.3
			c-0.2,0-0.4-0.1-0.6-0.1c-0.2-0.1-0.4-0.1-0.7-0.3c-0.5-0.2-1.4-0.8-2.6-1.7c-1.3-0.9-2.1-1.5-2.5-1.9c-0.4-0.4-0.6-0.8-0.8-1.1
			c-0.3-0.6-0.5-1.3-0.5-2.2c0-0.8,0.3-1.7,0.9-2.5c0.7-1,1.6-1.6,2.7-1.8c1.1-0.2,2.1-0.1,3.2,0.4l-1.2,1.7
			c-0.5-0.2-1.1-0.2-1.6-0.1c-0.6,0.1-1,0.5-1.4,1c-0.3,0.4-0.4,0.8-0.5,1.1c0,0.4,0,0.7,0.1,1.1c0.1,0.4,0.3,0.7,0.6,1.1
			c0.3,0.4,1,0.9,2.1,1.7c1.1,0.8,1.8,1.2,2.3,1.4c0.4,0.2,0.8,0.3,1.2,0.2c0.3,0,0.7-0.1,1-0.3c0.4-0.2,0.7-0.4,0.9-0.8
			c0.6-0.9,0.6-1.9,0-3.1L564.8,140.4z"/>
		<path class="st10" d="M570.1,131.8l-2.2,4.4l2.3,2.2l-0.9,1.9l-10-10.1l0.7-1.5l14.1,1.6l-0.9,1.9L570.1,131.8z M568.3,131.5
			l-6.1-0.9l0,0l4.5,4.3L568.3,131.5z"/>
	</g>
	<circle class="st10" cx="427.9" cy="109.5" r="3.3"/>
	<circle class="st10" cx="572.7" cy="109.5" r="3.3"/>
	<linearGradient id="SVGID_2_" gradientUnits="userSpaceOnUse" x1="468.1527" y1="99.9999" x2="531.604" y2="99.9999">
		<stop  offset="0" style="stop-color:#E43562"/>
		<stop  offset="1" style="stop-color:#65247F"/>
	</linearGradient>
	<path class="st11" d="M508.8,69.6c-16.8-4.9-34.4,4.8-39.3,21.6s4.8,34.4,21.6,39.3c16.8,4.9,34.4-4.8,39.3-21.6
		S525.6,74.5,508.8,69.6z M508.9,113.9l-9-23.3l-9,23.3h-8.5l13.5-32.2h8.1l13.5,32.2H508.9z"/>
	<g>
		<path class="st10" d="M499.9,48.3c-28.5,0-51.7,23.2-51.7,51.7c0,19,10.4,36.4,27,45.4l1.1-1.9c-15.7-8.5-25.6-24.8-25.9-42.7h3.9
			v-1.7h-3.9c0.1-8.4,2.4-16.3,6.3-23.2l3.3,1.9l0.8-1.4l-3.3-1.9c4.2-7,10.1-12.8,17-17l1.9,3.3l1.4-0.8l-1.9-3.3
			c6.9-3.8,14.8-6,23.2-6.2v4.2h1.7v-4.2c8.4,0.2,16.2,2.4,23.1,6.3l-1.8,3.2l1.4,0.8l1.8-3.2c6.9,4.2,12.7,10,16.9,17l-3.1,1.8
			l0.8,1.4l3.1-1.8c3.8,6.9,6,14.7,6.2,23.1h-3.6v1.7h3.6c-0.3,17.8-10.1,34.1-25.8,42.6l1.1,1.9c16.6-9.1,27-26.5,27-45.4
			C551.6,71.5,528.4,48.3,499.9,48.3z"/>
		<path class="st10" d="M499.9,5.1C447.6,5.1,405,47.7,405,100c0,52.3,42.6,94.9,94.9,94.9s94.9-42.6,94.9-94.9
			C594.8,47.7,552.2,5.1,499.9,5.1z M499.9,192.7c-51.1,0-92.7-41.6-92.7-92.7c0-51.1,41.6-92.7,92.7-92.7s92.7,41.6,92.7,92.7
			C592.5,151.1,551,192.7,499.9,192.7z"/>
	</g>
	<linearGradient id="SVGID_3_" gradientUnits="userSpaceOnUse" x1="476.7069" y1="145.1642" x2="499.217" y2="145.1642">
		<stop  offset="0" style="stop-color:#E43562"/>
		<stop  offset="1" style="stop-color:#65247F"/>
	</linearGradient>
	<path class="st12" d="M490.6,135.2c-2.9-0.9-5.7-2.1-8.2-3.5l-5.7,21.9l9.4-3.3l7.4,8.3l5.7-22
		C496.4,136.5,493.5,136.1,490.6,135.2z"/>
	<linearGradient id="SVGID_4_" gradientUnits="userSpaceOnUse" x1="500.5236" y1="145.1642" x2="523.0331" y2="145.1642">
		<stop  offset="0" style="stop-color:#E43562"/>
		<stop  offset="1" style="stop-color:#65247F"/>
	</linearGradient>
	<path class="st13" d="M500.5,136.7l5.7,22l7.4-8.3l9.4,3.3l-5.7-21.9C512.3,134.6,506.5,136.4,500.5,136.7z"/>
</g>
</svg>
