<svg id="Livello_1" data-name="Livello 1" xmlns="http://www.w3.org/2000/svg" xmlns:xlink="http://www.w3.org/1999/xlink" viewBox="0 0 477.55 225.4"><defs><style>.cls-1,.cls-5{fill:#fff;}.cls-2{fill:url(#Sfumatura_senza_nome_2);}.cls-3{fill:#87d0ef;}.cls-4{fill:none;stroke:#fff;stroke-miterlimit:10;stroke-width:1.41px;}.cls-5{font-size:19.99px;font-family:DINAlternate-Bold, DIN Alternate;font-weight:700;letter-spacing:0.02em;}</style><linearGradient id="Sfumatura_senza_nome_2" x1="318.05" y1="121.91" x2="429.33" y2="121.91" gradientUnits="userSpaceOnUse"><stop offset="0" stop-color="#e43562"/><stop offset="1" stop-color="#65247f"/></linearGradient></defs><title>icon-garanzia</title><path class="cls-1" d="M261.38,17.67V127.32c0,61.72,97.66,111.75,112.31,111.75C385.9,239.07,486,189,486,127.32V17.67Z" transform="translate(-8.45 -13.67)"/><path class="cls-2" d="M373.77,99.16l-28.7,73.89h-27L360.79,70.77h25.8l42.74,102.28H402.47Zm0,0" transform="translate(-8.45 -13.67)"/><path class="cls-3" d="M283.69,34.69l-7.06,18.17H270L280.5,27.71h6.34l10.51,25.15h-6.6Zm0,0" transform="translate(-8.45 -13.67)"/><path class="cls-3" d="M463.94,35l-7.06,18.17h-6.64L460.75,28h6.34L477.6,53.15H471Zm0,0" transform="translate(-8.45 -13.67)"/><path class="cls-3" d="M317.14,41.53c0,7.2-4.47,11.9-11.15,11.9s-11.41-4.7-11.41-11.9V27.71h6.19V41.53c0,3.83,2.07,6.19,5.22,6.19,3,0,5-2.36,5-6.19V27.71h6.19Z" transform="translate(-8.45 -13.67)"/><path class="cls-3" d="M332.21,33.12V52.86h-6.15V33.12h-8.15V27.71h22.45v5.41Z" transform="translate(-8.45 -13.67)"/><path class="cls-3" d="M351.9,27a13.33,13.33,0,1,0,13.33,13.33A13.33,13.33,0,0,0,351.9,27Zm0,20.52a7.19,7.19,0,1,1,7.18-7.19A7.19,7.19,0,0,1,351.9,47.48Z" transform="translate(-8.45 -13.67)"/><path class="cls-3" d="M378.54,33.93a6.18,6.18,0,0,0-4.27-1.83,3.15,3.15,0,0,0-2.48.88,2.27,2.27,0,0,0-.65,1.6,1.78,1.78,0,0,0,.57,1.41c.61.57,1.49.8,3.2,1.45l1.91.72a10.23,10.23,0,0,1,3.47,2,6.33,6.33,0,0,1,1.87,4.73,9.08,9.08,0,0,1-2.25,6.29c-2.25,2.37-5.53,2.6-7.21,2.6a10.77,10.77,0,0,1-5-1.07,15.94,15.94,0,0,1-3.74-2.79L367,45.68a15.41,15.41,0,0,0,2.37,1.94,5.91,5.91,0,0,0,3.2.92,4,4,0,0,0,2.67-.88,2.61,2.61,0,0,0,.92-2.06,2.26,2.26,0,0,0-.88-1.83,12.62,12.62,0,0,0-3-1.41l-2.09-.72a8.52,8.52,0,0,1-3.55-2,6.23,6.23,0,0,1-1.53-4.42,7.83,7.83,0,0,1,2.21-5.72,8.22,8.22,0,0,1,6.3-2.33,12.33,12.33,0,0,1,7.55,2.52Z" transform="translate(-8.45 -13.67)"/><path class="cls-3" d="M389.1,27.71V53.15h-5.87V27.71Z" transform="translate(-8.45 -13.67)"/><path class="cls-3" d="M410.65,52.35A11.77,11.77,0,0,1,405,53.73a13.66,13.66,0,0,1-10-3.7,13.65,13.65,0,0,1,0-19.23,13.52,13.52,0,0,1,9.5-3.66,15.26,15.26,0,0,1,6.1,1.41v6.79a8.08,8.08,0,0,0-5.95-2.71,7.15,7.15,0,0,0-5.19,2,8.14,8.14,0,0,0-2.4,5.87,7.69,7.69,0,0,0,2.21,5.61,7.78,7.78,0,0,0,5.5,2.13,8,8,0,0,0,5.83-2.63Z" transform="translate(-8.45 -13.67)"/><path class="cls-3" d="M433.57,42.78a10.79,10.79,0,0,1-2.82,8c-2.44,2.51-5.26,2.9-7.93,2.9s-5.49-.39-7.94-2.9a10.83,10.83,0,0,1-2.82-8V27.71h5.88V42.63a6,6,0,0,0,1.33,4.27,5.39,5.39,0,0,0,7.09,0,6,6,0,0,0,1.34-4.27V27.71h5.87Z" transform="translate(-8.45 -13.67)"/><path class="cls-3" d="M444.79,27.71a9.07,9.07,0,0,1,6.48,2.22,7.66,7.66,0,0,1,2.21,5.68,7,7,0,0,1-2,5.19A8,8,0,0,1,448,42.74l7.82,10.41H448.6l-6.87-10v10h-5.87V27.71Zm-3.06,11.56h1.34a4.8,4.8,0,0,0,3.51-1.11,3.42,3.42,0,0,0,.95-2.47,3.09,3.09,0,0,0-1.18-2.6,5.77,5.77,0,0,0-3.24-.8h-1.38Z" transform="translate(-8.45 -13.67)"/><path class="cls-1" d="M81.28,118.48h4q5.92,0,9.19-3.39a11.49,11.49,0,0,0,3.27-8.49,12.36,12.36,0,0,0-3.37-8.66,11.8,11.8,0,0,0-8.42-3.39A10.5,10.5,0,0,0,79.18,97a12.48,12.48,0,0,0-4.31,7.63H63.3a24.58,24.58,0,0,1,7.24-15.57,20.71,20.71,0,0,1,14.93-6.39q11,.11,17.48,7.25a24.34,24.34,0,0,1,6.3,16.43,25.58,25.58,0,0,1-1.71,9.25,19.32,19.32,0,0,1-7.14,7.93,20.79,20.79,0,0,1,7.6,8.22,23.67,23.67,0,0,1,2.22,10q-.1,11.7-7,18.43-6.81,6.92-17.46,7a21.69,21.69,0,0,1-14.59-5.47Q64.8,156.34,62.92,146H74.48a16.93,16.93,0,0,0,4.37,6.75,10.74,10.74,0,0,0,7.63,2.69,11.43,11.43,0,0,0,8.57-3.61q3.54-3.37,3.65-9.61c-.07-4.23-1.29-7.52-3.65-9.84A12.19,12.19,0,0,0,86.21,129H81.28Z" transform="translate(-8.45 -13.67)"/><path class="cls-1" d="M124.27,106.58q.12-11.51,7.14-17.73a22.2,22.2,0,0,1,15.72-6.16,23.56,23.56,0,0,1,14.55,4.78q6.21,4.91,7.92,14.07H157.68q-2.72-6.87-10.58-7-11.08.24-11.31,12.78v7.84a47.43,47.43,0,0,1,15.41-2.57,18.52,18.52,0,0,1,13.52,5.48q5.43,5.6,5.32,17.63v7.59q-.22,11.47-6.92,17.7a22.94,22.94,0,0,1-16,6.27A22.64,22.64,0,0,1,131.41,161q-7-6.21-7.14-17.67Zm11.52,36.07q.22,12.65,11.34,12.76,11.06-.12,11.39-12.76v-6.8q-.33-12.52-11.39-12.76-11.12.24-11.34,12.76Z" transform="translate(-8.45 -13.67)"/><path class="cls-4" d="M27,61.94C46,33.23,80.22,14.38,117.63,14.38,177.87,14.38,227,63.51,227,123.75S178.46,233.12,118.23,233.12,9.15,184.88,9.15,124.65a99.37,99.37,0,0,1,4.55-30" transform="translate(-8.45 -13.67)"/><polyline class="cls-4" points="47.13 48.79 16.73 48.79 16.73 18.39"/><text class="cls-5" transform="translate(115.98 181.47)">MESI</text></svg>